<?xml version="1.0" encoding="UTF-8" standalone="no"?>
<!DOCTYPE svg PUBLIC "-//W3C//DTD SVG 20010904//EN"
              "http://www.w3.org/TR/2001/REC-SVG-20010904/DTD/svg10.dtd">

<svg xmlns="http://www.w3.org/2000/svg"
     width="103.722mm" height="41.2771mm"
     viewBox="0 0 588 234">
  <path id="Selection #1"
        fill="gray" stroke="black" stroke-width="1"
        d="M 359.00,37.00
           C 360.82,33.55 361.64,33.11 365.00,31.16
             367.29,29.83 369.35,28.64 372.00,28.23
             372.00,28.23 402.00,32.25 402.00,32.25
             411.08,32.63 420.94,30.08 430.00,29.17
             430.00,29.17 473.00,24.00 473.00,24.00
             473.00,24.00 481.00,24.00 481.00,24.00
             481.00,24.00 503.00,21.04 503.00,21.04
             513.17,21.42 525.96,30.26 536.00,32.48
             536.00,32.48 562.61,36.48 562.61,36.48
             565.70,38.22 566.19,42.82 566.75,46.00
             566.75,46.00 571.81,71.00 571.81,71.00
             572.35,73.69 574.32,79.34 573.36,81.72
             572.25,84.49 565.79,85.93 563.00,87.00
             563.00,87.00 575.00,90.00 575.00,90.00
             575.00,90.00 572.17,118.00 572.17,118.00
             572.17,118.00 570.10,129.28 570.10,129.28
             570.10,129.28 563.00,132.20 563.00,132.20
             563.00,132.20 547.00,137.00 547.00,137.00
             550.69,138.22 562.02,140.39 564.18,142.72
             567.01,145.79 565.95,159.46 566.00,164.00
             566.00,164.00 567.00,178.00 567.00,178.00
             567.00,178.00 567.00,202.00 567.00,202.00
             567.00,202.00 543.00,204.83 543.00,204.83
             543.00,204.83 520.00,206.29 520.00,206.29
             520.00,206.29 492.00,208.96 492.00,208.96
             492.00,208.96 461.00,201.00 461.00,201.00
             460.98,202.83 461.16,205.91 459.98,207.40
             458.63,209.10 455.95,208.96 454.00,209.00
             454.00,209.00 439.00,210.00 439.00,210.00
             426.54,210.14 429.65,210.87 420.00,211.83
             420.00,211.83 393.00,213.04 393.00,213.04
             393.00,213.04 382.00,214.08 382.00,214.08
             382.00,214.08 373.00,214.08 373.00,214.08
             367.95,214.67 364.44,216.24 359.00,215.91
             359.00,215.91 349.00,214.17 349.00,214.17
             340.16,213.23 321.47,214.13 316.00,206.00
             309.36,210.07 307.10,212.89 299.00,213.00
             299.00,213.00 282.00,213.00 282.00,213.00
             282.00,213.00 267.00,212.00 267.00,212.00
             267.00,212.00 219.00,212.00 219.00,212.00
             215.86,212.00 205.96,211.86 204.02,209.40
             203.05,208.16 203.12,206.48 203.00,205.00
             200.61,206.46 197.62,208.55 195.00,209.35
             192.00,210.27 185.40,210.00 182.00,210.00
             182.00,210.00 158.00,210.00 158.00,210.00
             146.79,209.84 149.00,204.37 142.00,203.72
             142.00,203.72 125.00,205.58 125.00,205.58
             125.00,205.58 108.00,208.58 108.00,208.58
             108.00,208.58 95.00,210.37 95.00,210.37
             88.64,211.63 82.55,213.33 76.00,213.63
             70.59,213.87 64.14,210.98 59.00,209.44
             59.00,209.44 38.06,202.94 38.06,202.94
             29.31,198.24 39.15,189.78 40.78,182.17
             42.03,176.31 36.02,171.26 35.75,166.04
             35.59,162.84 37.90,160.97 40.04,158.95
             45.76,153.57 50.10,152.21 57.00,149.00
             53.82,145.82 45.95,138.35 44.07,134.72
             42.38,131.44 42.19,126.63 41.72,123.00
             41.72,123.00 38.71,93.00 38.71,93.00
             38.71,93.00 35.76,68.00 35.76,68.00
             35.76,68.00 35.76,59.00 35.76,59.00
             36.45,54.40 44.02,47.79 46.57,43.00
             48.77,38.86 48.00,29.89 48.00,25.00
             48.00,25.00 87.00,22.83 87.00,22.83
             87.00,22.83 110.00,20.67 110.00,20.67
             110.00,20.67 128.00,23.71 128.00,23.71
             128.00,23.71 167.00,29.43 167.00,29.43
             175.30,30.83 183.53,32.90 192.00,33.00
             192.00,33.00 245.00,28.00 245.00,28.00
             245.00,28.00 299.00,28.00 299.00,28.00
             299.00,28.00 337.00,28.00 337.00,28.00
             345.35,28.12 351.60,33.40 359.00,37.00 Z" />
    <path id="Selection"
        fill="lightgray" stroke="black" stroke-width="1"
        d="M 112.00,23.00
           C 112.00,23.00 117.00,24.00 117.00,24.00
             117.00,24.00 112.00,23.00 112.00,23.00 Z
           M 128.00,26.00
           C 128.00,26.00 133.00,27.00 133.00,27.00
             133.00,27.00 128.00,26.00 128.00,26.00 Z
           M 120.00,27.00
           C 120.00,27.00 120.00,28.00 120.00,28.00
             120.00,28.00 121.00,27.00 121.00,27.00
             121.00,27.00 120.00,27.00 120.00,27.00 Z
           M 135.00,27.00
           C 135.00,27.00 142.00,28.00 142.00,28.00
             142.00,28.00 135.00,27.00 135.00,27.00 Z
           M 140.00,30.00
           C 140.00,30.00 140.00,31.00 140.00,31.00
             140.00,31.00 141.00,30.00 141.00,30.00
             141.00,30.00 140.00,30.00 140.00,30.00 Z
           M 105.00,31.00
           C 105.00,31.00 108.00,34.00 108.00,34.00
             108.00,34.00 105.00,31.00 105.00,31.00 Z
           M 120.00,31.00
           C 120.00,31.00 120.00,32.00 120.00,32.00
             120.00,32.00 121.00,31.00 121.00,31.00
             121.00,31.00 120.00,31.00 120.00,31.00 Z
           M 131.00,31.00
           C 131.00,31.00 131.00,32.00 131.00,32.00
             131.00,32.00 132.00,31.00 132.00,31.00
             132.00,31.00 131.00,31.00 131.00,31.00 Z
           M 161.00,33.00
           C 161.00,33.00 162.00,34.00 162.00,34.00
             162.00,34.00 168.00,32.00 168.00,32.00
             164.75,30.82 163.86,31.15 161.00,33.00 Z
           M 152.00,32.00
           C 152.00,32.00 152.00,33.00 152.00,33.00
             152.00,33.00 153.00,32.00 153.00,32.00
             153.00,32.00 152.00,32.00 152.00,32.00 Z
           M 109.00,33.00
           C 109.00,33.00 117.00,34.00 117.00,34.00
             117.00,34.00 109.00,33.00 109.00,33.00 Z
           M 180.00,34.00
           C 180.00,34.00 185.00,35.00 185.00,35.00
             185.00,35.00 180.00,34.00 180.00,34.00 Z
           M 128.00,35.00
           C 128.00,35.00 134.00,36.00 134.00,36.00
             134.00,36.00 128.00,35.00 128.00,35.00 Z
           M 537.00,35.00
           C 537.00,35.00 543.00,36.00 543.00,36.00
             543.00,36.00 537.00,35.00 537.00,35.00 Z
           M 390.00,62.00
           C 389.03,55.24 392.27,52.41 390.80,49.27
             389.80,47.15 386.05,45.73 384.00,44.75
             376.80,41.28 371.12,38.18 363.00,38.00
             363.00,38.00 364.00,41.00 364.00,41.00
             364.00,41.00 358.00,46.00 358.00,46.00
             358.00,46.00 360.00,39.00 360.00,39.00
             360.00,39.00 323.00,38.00 323.00,38.00
             323.00,38.00 307.00,39.00 307.00,39.00
             307.00,39.00 262.00,39.00 262.00,39.00
             262.00,39.00 307.00,77.00 307.00,77.00
             307.00,77.00 271.00,50.63 271.00,50.63
             271.00,50.63 254.00,39.34 254.00,39.34
             254.00,39.34 241.00,42.32 241.00,42.32
             241.00,42.32 218.00,46.00 218.00,46.00
             221.00,54.64 223.79,60.55 224.00,70.00
             221.96,65.21 218.57,51.45 215.36,48.60
             213.26,46.73 204.29,46.40 201.00,45.86
             201.00,45.86 191.00,43.24 191.00,43.24
             184.97,41.82 173.13,40.01 167.00,40.00
             167.00,40.00 151.00,40.00 151.00,40.00
             151.00,40.00 139.00,39.09 139.00,39.09
             139.00,39.09 117.00,37.91 117.00,37.91
             117.00,37.91 107.00,37.00 107.00,37.00
             88.64,36.79 78.52,43.49 62.00,49.00
             62.00,49.00 62.72,76.00 62.72,76.00
             63.01,78.48 62.70,83.63 64.02,85.44
             65.73,87.80 73.12,89.41 76.00,90.00
             76.00,90.00 54.00,92.00 54.00,92.00
             54.00,92.00 70.00,93.00 70.00,93.00
             67.67,94.36 64.44,95.88 63.01,98.21
             61.43,100.77 61.04,106.95 61.00,110.00
             61.00,110.00 60.06,137.99 60.06,137.99
             59.36,144.56 64.99,144.00 70.00,145.67
             84.32,150.42 79.79,147.78 92.00,150.40
             92.00,150.40 101.00,153.00 101.00,153.00
             91.87,155.17 82.95,149.92 70.00,153.58
             66.82,154.48 61.92,155.34 61.04,159.11
             60.51,161.35 62.56,168.14 63.00,171.00
             63.00,171.00 38.00,164.00 38.00,164.00
             48.58,171.18 74.10,171.12 86.00,183.00
             86.00,183.00 106.00,179.00 106.00,179.00
             106.00,179.00 81.00,187.00 81.00,187.00
             81.00,187.00 82.00,185.00 82.00,185.00
             82.00,185.00 69.00,190.00 69.00,190.00
             69.00,190.00 91.00,192.17 91.00,192.17
             91.00,192.17 137.00,196.00 137.00,196.00
             137.00,196.00 139.00,194.00 139.00,194.00
             140.23,189.35 144.35,187.46 147.70,184.34
             147.70,184.34 159.00,171.00 159.00,171.00
             156.42,176.36 145.94,188.90 152.70,194.01
             154.79,195.59 165.86,195.00 169.00,195.00
             169.00,195.00 150.00,196.00 150.00,196.00
             154.13,197.64 160.46,197.00 165.00,197.00
             165.00,197.00 194.00,197.00 194.00,197.00
             203.24,196.94 200.90,195.46 206.87,185.00
             210.11,179.33 213.75,173.95 218.00,169.00
             215.17,177.95 206.80,187.56 205.00,199.04
             205.00,199.04 221.00,199.04 221.00,199.04
             221.00,199.04 233.00,200.00 233.00,200.00
             233.00,200.00 267.00,200.00 267.00,200.00
             267.00,200.00 283.00,201.10 283.00,201.10
             283.00,201.10 297.00,201.10 297.00,201.10
             297.00,201.10 305.99,201.10 305.99,201.10
             305.99,201.10 314.00,199.00 314.00,199.00
             314.00,199.00 318.00,186.00 318.00,186.00
             318.00,186.00 324.00,199.00 324.00,199.00
             324.00,199.00 325.00,200.00 325.00,200.00
             325.00,200.00 327.00,201.00 327.00,201.00
             327.00,201.00 352.00,200.00 352.00,200.00
             352.00,200.00 397.00,200.00 397.00,200.00
             397.00,200.00 395.13,192.96 395.13,192.96
             394.20,185.30 395.98,185.20 392.00,177.00
             392.00,177.00 407.00,195.00 407.00,195.00
             408.12,199.96 412.68,199.21 417.00,198.91
             417.00,198.91 448.00,197.00 448.00,197.00
             448.00,197.00 446.00,195.00 446.00,195.00
             448.68,191.74 442.97,185.42 439.96,183.77
             438.16,182.77 437.97,183.19 437.00,183.00
             437.00,183.00 436.00,182.00 436.00,182.00
             436.00,182.00 437.00,180.00 437.00,180.00
             437.00,180.00 434.00,180.00 434.00,180.00
             433.04,174.92 430.20,172.26 425.00,172.00
             423.76,165.45 413.89,159.66 409.00,155.00
             419.37,161.56 442.13,181.41 449.00,191.00
             449.00,191.00 451.00,191.00 451.00,191.00
             452.49,185.75 452.28,181.27 451.00,176.00
             454.76,181.63 454.94,184.41 455.00,191.00
             455.00,191.00 470.00,192.00 470.00,192.00
             470.00,192.00 463.00,193.00 463.00,193.00
             463.00,193.00 495.00,197.46 495.00,197.46
             500.29,198.42 509.96,201.26 515.00,200.45
             526.09,198.66 541.16,190.56 552.00,192.00
             548.67,186.03 550.01,174.05 550.00,167.00
             549.99,164.35 550.19,161.43 548.98,159.00
             546.31,153.67 535.38,144.26 529.00,145.41
             525.28,146.07 512.68,153.75 508.00,156.00
             508.00,156.00 524.00,145.00 524.00,145.00
             524.00,145.00 510.00,144.00 510.00,144.00
             510.00,144.00 537.00,135.00 537.00,135.00
             537.00,135.00 539.80,117.00 539.80,117.00
             539.80,117.00 539.80,105.00 539.80,105.00
             539.80,105.00 545.00,84.00 545.00,84.00
             545.00,84.00 550.00,85.00 550.00,85.00
             550.00,85.00 547.00,84.00 547.00,84.00
             547.00,84.00 548.00,80.00 548.00,80.00
             548.00,80.00 547.00,80.00 547.00,80.00
             547.00,80.00 547.00,82.00 547.00,82.00
             547.00,82.00 546.26,68.17 546.26,68.17
             546.26,68.17 540.00,60.00 540.00,60.00
             540.00,60.00 549.00,66.00 549.00,66.00
             549.00,66.00 553.00,57.00 553.00,57.00
             553.00,57.00 555.00,59.00 555.00,59.00
             555.00,59.00 556.00,59.00 556.00,59.00
             556.00,59.00 549.96,52.25 549.96,52.25
             548.19,48.19 559.71,39.56 563.00,38.00
             560.22,37.25 553.97,36.88 552.00,39.00
             552.00,39.00 557.00,39.00 557.00,39.00
             557.00,39.00 552.00,42.00 552.00,42.00
             552.00,42.00 548.00,50.00 548.00,50.00
             548.00,50.00 525.00,46.00 525.00,46.00
             525.00,46.00 529.00,51.00 529.00,51.00
             523.91,48.07 515.69,41.07 511.00,39.55
             506.79,38.19 491.09,37.19 486.00,36.96
             486.00,36.96 478.00,36.04 478.00,36.04
             478.00,36.04 465.00,36.04 465.00,36.04
             456.49,36.04 438.12,39.93 429.00,41.58
             429.00,41.58 407.00,45.58 407.00,45.58
             403.77,46.16 399.14,46.51 396.61,48.72
             393.69,51.27 391.06,58.27 390.00,62.00 Z
           M 191.00,38.00
           C 191.00,38.00 191.00,39.00 191.00,39.00
             191.00,39.00 192.00,38.00 192.00,38.00
             192.00,38.00 191.00,38.00 191.00,38.00 Z
           M 520.00,38.00
           C 520.00,38.00 520.00,39.00 520.00,39.00
             520.00,39.00 521.00,38.00 521.00,38.00
             521.00,38.00 520.00,38.00 520.00,38.00 Z
           M 540.00,38.00
           C 540.00,38.00 540.00,39.00 540.00,39.00
             540.00,39.00 541.00,38.00 541.00,38.00
             541.00,38.00 540.00,38.00 540.00,38.00 Z
           M 192.00,40.00
           C 192.00,40.00 196.00,41.00 196.00,41.00
             196.00,41.00 192.00,40.00 192.00,40.00 Z
           M 519.00,40.00
           C 519.00,40.00 519.00,41.00 519.00,41.00
             519.00,41.00 520.00,40.00 520.00,40.00
             520.00,40.00 519.00,40.00 519.00,40.00 Z
           M 203.00,43.00
           C 203.00,43.00 208.00,44.00 208.00,44.00
             208.00,44.00 203.00,43.00 203.00,43.00 Z
           M 550.00,43.00
           C 550.00,43.00 550.00,44.00 550.00,44.00
             550.00,44.00 551.00,43.00 551.00,43.00
             551.00,43.00 550.00,43.00 550.00,43.00 Z
           M 358.00,46.00
           C 358.00,46.00 331.00,76.00 331.00,76.00
             330.57,71.82 334.08,68.24 336.42,65.00
             342.76,56.26 346.94,48.60 358.00,46.00 Z
           M 81.00,58.00
           C 81.00,58.00 93.00,67.00 93.00,67.00
             93.00,67.00 89.00,67.00 89.00,67.00
             89.00,67.00 81.00,58.00 81.00,58.00 Z
           M 95.00,70.00
           C 95.00,70.00 98.00,70.00 98.00,70.00
             98.00,70.00 107.00,79.00 107.00,79.00
             107.00,79.00 96.00,81.00 96.00,81.00
             96.00,81.00 102.00,78.00 102.00,78.00
             102.00,78.00 102.00,76.00 102.00,76.00
             98.85,74.65 96.03,73.45 95.00,70.00 Z
           M 339.00,97.00
           C 339.00,97.00 340.00,98.00 340.00,98.00
             340.00,98.00 339.00,100.00 339.00,100.00
             339.00,100.00 344.00,104.00 344.00,104.00
             344.00,104.00 324.00,91.51 324.00,91.51
             324.00,91.51 314.42,86.37 314.42,86.37
             314.42,86.37 304.83,93.40 304.83,93.40
             304.83,93.40 285.00,108.00 285.00,108.00
             290.42,100.49 298.57,95.68 304.91,89.00
             307.36,86.42 309.98,82.15 314.00,82.64
             321.47,83.54 331.01,96.33 339.00,97.00 Z
           M 91.00,83.00
           C 91.00,83.00 91.00,84.00 91.00,84.00
             91.00,84.00 90.00,83.00 90.00,83.00
             90.00,83.00 91.00,83.00 91.00,83.00 Z
           M 188.00,90.00
           C 188.00,90.00 188.00,91.00 188.00,91.00
             188.00,91.00 187.00,90.00 187.00,90.00
             187.00,90.00 188.00,90.00 188.00,90.00 Z
           M 44.00,91.00
           C 44.00,91.00 53.00,92.00 53.00,92.00
             53.00,92.00 44.00,91.00 44.00,91.00 Z
           M 190.00,92.00
           C 190.00,92.00 190.00,93.00 190.00,93.00
             190.00,93.00 189.00,92.00 189.00,92.00
             189.00,92.00 190.00,92.00 190.00,92.00 Z
           M 191.00,93.00
           C 191.00,93.00 191.00,94.00 191.00,94.00
             191.00,94.00 190.00,93.00 190.00,93.00
             190.00,93.00 191.00,93.00 191.00,93.00 Z
           M 192.00,94.00
           C 192.00,94.00 192.00,95.00 192.00,95.00
             192.00,95.00 191.00,94.00 191.00,94.00
             191.00,94.00 192.00,94.00 192.00,94.00 Z
           M 335.00,94.00
           C 335.00,94.00 335.00,95.00 335.00,95.00
             335.00,95.00 334.00,94.00 334.00,94.00
             334.00,94.00 335.00,94.00 335.00,94.00 Z
           M 195.00,97.00
           C 206.08,104.93 220.60,125.49 223.48,139.00
             224.21,142.41 224.00,147.40 224.00,151.00
             224.00,151.00 220.19,139.00 220.19,139.00
             220.19,139.00 209.25,117.00 209.25,117.00
             209.25,117.00 195.00,97.00 195.00,97.00 Z
           M 343.00,100.00
           C 343.00,100.00 343.00,101.00 343.00,101.00
             343.00,101.00 342.00,100.00 342.00,100.00
             342.00,100.00 343.00,100.00 343.00,100.00 Z
           M 346.00,102.00
           C 346.00,102.00 346.00,103.00 346.00,103.00
             346.00,103.00 345.00,102.00 345.00,102.00
             345.00,102.00 346.00,102.00 346.00,102.00 Z
           M 345.00,104.00
           C 345.00,104.00 345.00,105.00 345.00,105.00
             345.00,105.00 344.00,104.00 344.00,104.00
             344.00,104.00 345.00,104.00 345.00,104.00 Z
           M 284.00,106.00
           C 279.56,115.40 261.51,129.23 253.00,136.00
             248.16,139.86 243.68,144.44 238.00,147.00
             240.97,140.73 246.17,137.25 251.17,132.68
             257.67,126.74 277.06,109.60 284.00,106.00 Z
           M 351.00,106.00
           C 351.00,106.00 351.00,107.00 351.00,107.00
             351.00,107.00 350.00,106.00 350.00,106.00
             350.00,106.00 351.00,106.00 351.00,106.00 Z
           M 285.00,108.00
           C 285.00,108.00 285.00,109.00 285.00,109.00
             285.00,109.00 284.00,108.00 284.00,108.00
             284.00,108.00 285.00,108.00 285.00,108.00 Z
           M 351.00,108.00
           C 351.00,108.00 351.00,109.00 351.00,109.00
             351.00,109.00 350.00,108.00 350.00,108.00
             350.00,108.00 351.00,108.00 351.00,108.00 Z
           M 354.00,108.00
           C 354.00,108.00 354.00,109.00 354.00,109.00
             354.00,109.00 353.00,108.00 353.00,108.00
             353.00,108.00 354.00,108.00 354.00,108.00 Z
           M 284.00,109.00
           C 284.00,109.00 284.00,110.00 284.00,110.00
             284.00,110.00 283.00,109.00 283.00,109.00
             283.00,109.00 284.00,109.00 284.00,109.00 Z
           M 355.00,109.00
           C 355.00,109.00 355.00,110.00 355.00,110.00
             355.00,110.00 354.00,109.00 354.00,109.00
             354.00,109.00 355.00,109.00 355.00,109.00 Z
           M 283.00,110.00
           C 283.00,110.00 283.00,111.00 283.00,111.00
             283.00,111.00 282.00,110.00 282.00,110.00
             282.00,110.00 283.00,110.00 283.00,110.00 Z
           M 281.00,112.00
           C 281.00,112.00 281.00,113.00 281.00,113.00
             281.00,113.00 280.00,112.00 280.00,112.00
             280.00,112.00 281.00,112.00 281.00,112.00 Z
           M 361.00,114.00
           C 361.00,114.00 369.00,121.00 369.00,121.00
             365.51,119.51 362.09,117.85 361.00,114.00 Z
           M 370.00,121.00
           C 370.00,121.00 374.00,125.00 374.00,125.00
             374.00,125.00 370.00,121.00 370.00,121.00 Z
           M 375.00,125.00
           C 375.00,125.00 380.00,130.00 380.00,130.00
             377.08,128.59 375.89,128.23 375.00,125.00 Z
           M 388.00,136.00
           C 388.00,136.00 388.00,137.00 388.00,137.00
             388.00,137.00 387.00,136.00 387.00,136.00
             387.00,136.00 388.00,136.00 388.00,136.00 Z
           M 538.00,135.00
           C 538.00,135.00 544.00,137.00 544.00,137.00
             544.00,137.00 538.00,135.00 538.00,135.00 Z
           M 389.00,137.00
           C 389.00,137.00 389.00,138.00 389.00,138.00
             389.00,138.00 388.00,137.00 388.00,137.00
             388.00,137.00 389.00,137.00 389.00,137.00 Z
           M 390.00,138.00
           C 390.00,138.00 390.00,139.00 390.00,139.00
             390.00,139.00 389.00,138.00 389.00,138.00
             389.00,138.00 390.00,138.00 390.00,138.00 Z
           M 394.00,140.00
           C 394.00,140.00 394.00,141.00 394.00,141.00
             394.00,141.00 393.00,140.00 393.00,140.00
             393.00,140.00 394.00,140.00 394.00,140.00 Z
           M 226.00,145.00
           C 226.00,145.00 227.00,155.00 227.00,155.00
             227.00,155.00 235.00,148.00 235.00,148.00
             235.00,148.00 222.00,167.00 222.00,167.00
             222.00,167.00 223.49,157.00 223.49,157.00
             223.49,157.00 226.00,145.00 226.00,145.00 Z
           M 402.00,148.00
           C 402.00,148.00 402.00,149.00 402.00,149.00
             402.00,149.00 401.00,148.00 401.00,148.00
             401.00,148.00 402.00,148.00 402.00,148.00 Z
           M 403.00,149.00
           C 403.00,149.00 403.00,150.00 403.00,150.00
             403.00,150.00 402.00,149.00 402.00,149.00
             402.00,149.00 403.00,149.00 403.00,149.00 Z
           M 417.00,163.00
           C 417.00,163.00 417.00,164.00 417.00,164.00
             417.00,164.00 416.00,163.00 416.00,163.00
             416.00,163.00 417.00,163.00 417.00,163.00 Z
           M 422.00,167.00
           C 422.00,167.00 422.00,168.00 422.00,168.00
             422.00,168.00 421.00,167.00 421.00,167.00
             421.00,167.00 422.00,167.00 422.00,167.00 Z
           M 160.00,170.00
           C 160.00,170.00 160.00,171.00 160.00,171.00
             160.00,171.00 159.00,170.00 159.00,170.00
             159.00,170.00 160.00,170.00 160.00,170.00 Z
           M 425.00,170.00
           C 425.00,170.00 425.00,171.00 425.00,171.00
             425.00,171.00 424.00,170.00 424.00,170.00
             424.00,170.00 425.00,170.00 425.00,170.00 Z
           M 429.00,173.00
           C 429.00,173.00 429.00,174.00 429.00,174.00
             429.00,174.00 428.00,173.00 428.00,173.00
             428.00,173.00 429.00,173.00 429.00,173.00 Z
           M 431.00,175.00
           C 431.00,175.00 431.00,176.00 431.00,176.00
             431.00,176.00 430.00,175.00 430.00,175.00
             430.00,175.00 431.00,175.00 431.00,175.00 Z
           M 433.00,177.00
           C 433.00,177.00 433.00,178.00 433.00,178.00
             433.00,178.00 432.00,177.00 432.00,177.00
             432.00,177.00 433.00,177.00 433.00,177.00 Z
           M 434.00,178.00
           C 434.00,178.00 434.00,179.00 434.00,179.00
             434.00,179.00 433.00,178.00 433.00,178.00
             433.00,178.00 434.00,178.00 434.00,178.00 Z
           M 439.00,183.00
           C 439.00,183.00 439.00,184.00 439.00,184.00
             439.00,184.00 438.00,183.00 438.00,183.00
             438.00,183.00 439.00,183.00 439.00,183.00 Z
           M 441.00,185.00
           C 441.00,185.00 441.00,186.00 441.00,186.00
             441.00,186.00 440.00,185.00 440.00,185.00
             440.00,185.00 441.00,185.00 441.00,185.00 Z
           M 408.00,196.00
           C 408.00,196.00 408.00,197.00 408.00,197.00
             408.00,197.00 407.00,196.00 407.00,196.00
             407.00,196.00 408.00,196.00 408.00,196.00 Z
           M 315.00,197.00
           C 315.00,197.00 315.00,198.00 315.00,198.00
             315.00,198.00 316.00,197.00 316.00,197.00
             316.00,197.00 315.00,197.00 315.00,197.00 Z
           M 326.00,198.00
           C 326.00,198.00 326.00,199.00 326.00,199.00
             326.00,199.00 325.00,198.00 325.00,198.00
             325.00,198.00 326.00,198.00 326.00,198.00 Z" />
        <path id="Selection"
        fill="black" stroke="black" stroke-width="1"
        transform="translate(25,40)" 
        d="M 374.00,8.00
           C 369.41,13.06 367.12,12.53 365.42,15.30
             360.91,22.58 364.19,37.57 349.00,39.00
             349.00,39.00 350.49,45.00 350.49,45.00
             350.49,45.00 347.32,64.00 347.32,64.00
             347.32,64.00 345.00,77.00 345.00,77.00
             340.23,70.65 342.03,70.39 338.98,64.01
             338.98,64.01 333.72,54.96 333.72,54.96
             332.05,51.08 333.85,51.40 329.49,43.00
             326.25,36.78 321.51,33.91 321.00,27.00
             319.00,26.58 314.87,25.20 313.17,25.42
             311.02,25.68 309.48,27.42 307.93,27.71
             304.02,28.45 303.01,23.75 302.00,21.00
             299.13,26.05 301.30,27.94 300.76,34.00
             298.26,53.26 300.33,45.88 300.76,55.00
             300.76,55.00 301.41,72.00 301.41,72.00
             302.43,78.62 305.87,88.48 304.54,95.00
             303.85,98.40 302.82,99.86 302.63,104.00
             302.63,104.00 302.63,110.00 302.63,110.00
             301.79,118.01 295.69,121.31 304.00,129.00
             304.00,129.00 310.34,117.52 310.34,117.52
             310.34,117.52 313.04,116.16 313.04,116.16
             313.04,116.16 319.00,115.44 319.00,115.44
             319.00,115.44 327.00,113.00 327.00,113.00
             327.00,113.00 325.90,105.00 325.90,105.00
             325.90,105.00 323.26,96.00 323.26,96.00
             323.26,96.00 322.55,89.00 322.55,89.00
             322.55,89.00 317.37,72.00 317.37,72.00
             317.37,72.00 317.37,65.05 317.37,65.05
             316.33,61.41 313.79,60.66 311.76,57.87
             309.08,54.18 308.86,50.39 309.02,46.00
             309.10,43.65 311.33,34.48 315.23,39.09
             316.75,41.04 314.10,46.45 315.23,50.94
             316.44,55.08 319.50,54.47 321.40,56.58
             324.15,59.63 321.39,63.95 320.00,67.00
             325.00,69.84 325.56,73.86 327.33,79.00
             327.33,79.00 330.28,87.00 330.28,87.00
             330.28,87.00 332.13,94.00 332.13,94.00
             332.13,94.00 335.74,101.00 335.74,101.00
             337.93,105.76 337.45,111.44 344.02,112.47
             346.00,112.78 356.85,110.92 357.89,109.40
             357.89,109.40 358.99,94.00 358.99,94.00
             359.34,84.20 360.61,74.17 364.00,65.00
             364.00,65.00 370.54,72.25 370.54,72.25
             370.54,72.25 382.28,82.00 382.28,82.00
             382.28,82.00 385.00,83.00 385.00,83.00
             387.47,74.75 385.02,74.52 385.00,66.00
             384.98,57.08 384.56,58.87 383.26,51.00
             383.26,51.00 382.74,45.00 382.74,45.00
             382.74,45.00 379.00,30.84 379.00,30.84
             377.77,30.96 376.25,31.01 375.14,30.84
             367.20,28.53 374.16,21.01 375.14,17.00
             375.98,14.08 375.15,10.70 374.00,8.00 Z
           M 431.00,11.00
           C 431.00,11.00 424.00,27.00 424.00,27.00
             439.50,32.02 431.82,36.83 445.00,37.00
             443.66,30.80 435.15,15.51 431.00,11.00 Z
           M 29.00,17.00
           C 26.39,25.40 25.08,39.03 24.72,48.00
             24.72,48.00 24.72,57.00 24.72,57.00
             24.72,61.86 23.12,62.09 23.00,69.00
             22.88,76.48 23.56,83.96 33.00,84.85
             43.75,85.86 43.69,77.98 49.00,75.00
             50.97,81.11 59.83,98.68 63.37,103.91
             63.37,103.91 70.93,113.99 70.93,113.99
             70.93,113.99 76.02,121.16 76.02,121.16
             78.12,125.19 76.06,126.50 81.00,129.00
             83.02,123.17 84.55,120.05 91.00,119.00
             91.00,119.00 92.88,111.00 92.88,111.00
             92.88,111.00 92.88,100.00 92.88,100.00
             90.03,98.42 86.57,96.75 84.60,93.91
             82.03,90.21 83.66,84.53 78.82,81.90
             77.10,81.27 75.26,81.77 74.29,81.90
             68.33,81.06 64.21,66.24 61.49,61.00
             61.49,61.00 52.62,46.00 52.62,46.00
             52.62,46.00 46.31,37.00 46.31,37.00
             44.22,32.84 45.64,29.45 41.94,25.29
             39.70,22.77 38.05,23.33 35.16,21.50
             35.16,21.50 29.00,17.00 29.00,17.00 Z
           M 377.00,25.00
           C 377.00,25.00 385.00,23.00 385.00,23.00
             381.88,18.41 378.50,20.48 377.00,25.00 Z
           M 85.00,28.00
           C 89.69,28.74 94.61,27.36 98.00,24.00
             92.66,22.85 89.29,24.95 85.00,28.00 Z
           M 501.00,26.00
           C 502.29,30.51 503.53,30.69 508.00,31.00
             508.00,31.00 501.00,26.00 501.00,26.00 Z
           M 193.77,35.00
           C 193.77,35.00 193.77,42.00 193.77,42.00
             193.77,42.00 194.63,47.00 194.63,47.00
             194.63,47.00 200.55,74.00 200.55,74.00
             200.55,74.00 202.13,88.00 202.13,88.00
             202.77,92.62 202.60,103.29 206.50,105.98
             211.20,109.22 223.93,104.58 229.00,103.00
             229.00,103.00 225.66,92.00 225.66,92.00
             225.66,92.00 221.73,81.00 221.73,81.00
             221.73,81.00 220.70,76.13 220.70,76.13
             219.50,72.34 216.51,72.25 216.36,68.95
             216.24,66.36 218.65,64.24 218.94,59.00
             219.30,52.64 216.01,50.51 218.04,47.31
             220.22,43.86 224.00,46.13 227.00,46.29
             230.46,46.48 233.36,44.14 236.26,48.15
             237.04,49.23 237.56,50.65 237.46,51.99
             237.14,56.54 231.42,58.27 229.19,59.89
             225.89,62.29 224.94,65.24 224.00,69.00
             224.00,69.00 227.00,75.00 227.00,75.00
             238.59,79.55 241.40,95.04 254.00,101.00
             257.22,89.61 250.01,89.94 249.40,83.00
             249.11,79.69 251.67,76.25 252.66,73.00
             253.74,69.45 252.96,67.41 254.09,65.18
             254.09,65.18 264.13,54.58 264.13,54.58
             265.97,53.31 266.94,53.33 269.00,53.00
             269.00,53.00 269.00,48.00 269.00,48.00
             261.73,47.84 264.39,44.05 260.27,38.29
             257.01,33.73 252.43,30.77 247.00,29.45
             247.00,29.45 237.00,27.56 237.00,27.56
             232.40,26.96 230.38,29.34 226.00,30.27
             226.00,30.27 215.00,31.37 215.00,31.37
             205.95,33.08 204.10,34.99 193.77,35.00 Z
           M 137.00,33.00
           C 139.24,40.28 139.33,41.03 133.00,46.00
             139.46,52.76 141.31,46.54 149.98,51.34
             159.45,56.59 159.67,72.71 158.00,82.00
             158.00,82.00 167.42,86.58 167.42,86.58
             167.42,86.58 172.00,98.00 172.00,98.00
             176.04,95.94 176.31,95.12 178.00,91.00
             178.00,91.00 183.00,93.00 183.00,93.00
             183.00,93.00 184.69,83.00 184.69,83.00
             184.69,83.00 181.40,74.00 181.40,74.00
             181.40,74.00 182.48,67.00 182.48,67.00
             182.48,67.00 180.00,57.00 180.00,57.00
             174.53,55.38 170.71,50.60 169.51,45.00
             168.95,42.42 169.91,39.57 168.31,37.26
             166.04,33.97 161.61,33.36 158.00,32.85
             154.38,32.33 150.64,31.01 147.00,31.09
             147.00,31.09 137.00,33.00 137.00,33.00 Z
           M 487.00,110.83
           C 487.00,110.83 501.57,110.83 501.57,110.83
             501.57,110.83 512.00,102.00 512.00,102.00
             512.00,102.00 509.72,94.00 509.72,94.00
             509.72,94.00 511.47,77.00 511.47,77.00
             511.47,77.00 513.29,70.00 513.29,70.00
             513.29,70.00 513.29,63.00 513.29,63.00
             513.29,63.00 514.70,55.00 514.70,55.00
             514.70,55.00 514.00,39.00 514.00,39.00
             510.06,39.00 506.69,39.29 503.05,37.40
             499.91,35.77 495.42,29.67 491.51,32.07
             487.46,34.57 489.61,43.20 489.47,47.00
             489.47,47.00 489.47,53.00 489.47,53.00
             488.93,55.18 488.78,60.86 489.47,62.74
             491.17,66.39 495.35,66.00 494.94,74.00
             494.50,82.56 489.38,82.57 487.71,88.09
             486.80,91.11 487.00,106.74 487.00,110.83 Z
           M 421.00,33.00
           C 421.00,33.00 415.55,50.89 415.55,50.89
             415.55,50.89 417.00,54.00 417.00,54.00
             409.83,62.44 412.13,64.54 410.27,71.00
             410.27,71.00 403.41,90.00 403.41,90.00
             403.41,90.00 403.41,96.00 403.41,96.00
             402.81,99.06 399.21,106.21 399.85,108.70
             400.56,111.41 404.38,111.23 406.60,113.51
             409.15,116.13 406.72,117.15 412.00,125.00
             419.16,122.01 417.68,119.20 419.76,113.00
             419.76,113.00 422.57,106.00 422.57,106.00
             423.35,103.47 423.58,100.50 425.65,98.60
             430.00,94.60 443.05,100.50 442.62,91.91
             442.45,88.45 439.59,82.94 436.81,80.89
             434.31,79.03 431.32,78.90 430.07,76.69
             429.08,74.93 430.65,68.15 431.30,66.09
             433.38,59.44 443.14,59.84 444.82,59.25
             447.05,58.47 448.85,55.98 450.01,54.00
             450.94,52.40 451.68,50.92 451.43,49.00
             450.33,40.75 439.99,44.01 436.13,42.40
             433.03,41.11 432.01,37.90 431.00,35.00
             431.00,35.00 421.00,33.00 421.00,33.00 Z
           M 92.00,89.00
           C 92.00,89.00 94.86,71.00 94.86,71.00
             94.86,71.00 94.22,64.42 94.22,64.42
             94.22,64.42 94.95,58.99 94.95,58.99
             94.95,58.99 94.95,49.00 94.95,49.00
             94.95,49.00 97.00,34.00 97.00,34.00
             90.52,34.30 80.42,34.93 75.31,39.13
             72.93,41.09 72.84,44.18 72.15,47.00
             70.80,52.50 70.91,68.21 74.01,72.69
             76.12,75.73 79.58,74.37 83.86,78.34
             88.83,82.95 86.27,86.79 92.00,89.00 Z
           M 61.00,38.00
           C 61.00,38.00 64.00,43.00 64.00,43.00
             64.00,43.00 66.00,43.00 66.00,43.00
             66.00,43.00 69.00,35.00 69.00,35.00
             69.00,35.00 61.00,38.00 61.00,38.00 Z
           M 125.98,35.86
           C 122.95,36.65 119.68,37.46 117.26,39.57
             114.40,42.06 106.14,57.26 105.65,61.00
             105.33,63.48 106.66,67.03 106.91,70.00
             107.56,77.91 108.87,86.73 113.03,93.72
             118.77,103.37 135.04,110.11 146.00,108.87
             147.81,108.67 162.52,104.86 163.40,104.07
             166.53,101.24 163.78,92.00 160.70,90.02
             155.93,86.96 149.90,90.39 145.00,90.62
             139.06,90.89 134.83,85.59 132.15,81.00
             127.84,73.63 129.64,72.71 128.74,67.00
             128.41,64.86 127.57,63.22 127.78,61.00
             127.78,61.00 129.11,55.00 129.11,55.00
             129.23,51.85 127.72,48.82 127.60,47.00
             127.30,42.54 134.45,36.16 125.98,35.86 Z
           M 453.00,36.00
           C 453.00,36.00 457.00,43.00 457.00,43.00
             457.00,43.00 453.00,36.00 453.00,36.00 Z
           M 439.00,67.00
           C 441.02,76.32 447.33,84.08 450.24,93.00
             451.34,96.36 451.30,102.63 454.52,104.99
             456.63,106.24 459.64,105.38 462.00,104.99
             471.31,104.33 468.52,106.26 479.00,103.00
             474.31,94.65 468.02,87.58 466.00,78.00
             466.00,78.00 473.00,77.00 473.00,77.00
             473.00,77.00 466.00,61.00 466.00,61.00
             461.25,62.84 460.41,62.94 457.00,59.00
             448.82,62.84 449.50,66.67 439.00,67.00 Z
           M 267.00,65.00
           C 267.00,65.00 265.00,70.00 265.00,70.00
             265.00,70.00 270.00,65.00 270.00,65.00
             270.00,65.00 267.00,65.00 267.00,65.00 Z
           M 260.00,75.00
           C 258.75,76.74 256.14,79.82 256.18,81.99
             256.25,85.14 260.30,87.21 262.60,90.32
             265.28,93.95 264.98,96.75 265.00,101.00
             272.42,101.59 281.27,110.30 288.15,99.91
             289.26,98.24 289.51,96.87 290.00,95.00
             285.71,95.00 280.97,95.57 277.18,93.20
             269.54,88.41 270.84,79.36 260.00,75.00 Z
           M 368.00,81.00
           C 369.72,88.09 367.79,99.16 371.97,104.69
             374.23,107.67 386.72,108.44 388.36,104.69
             389.77,101.48 387.73,92.46 387.00,89.00
             376.05,91.53 380.63,82.77 368.00,81.00 Z
           M 279.00,87.00
           C 279.00,87.00 282.00,90.00 282.00,90.00
             282.00,90.00 279.00,87.00 279.00,87.00 Z
           M 531.00,91.00
           C 531.00,91.00 542.00,90.00 542.00,90.00
             537.45,87.39 534.03,85.65 531.00,91.00 Z
           M 22.00,89.00
           C 22.00,89.00 21.00,110.00 21.00,110.00
             21.00,110.00 32.00,111.14 32.00,111.14
             32.00,111.14 39.87,111.14 39.87,111.14
             39.87,111.14 47.00,117.00 47.00,117.00
             46.44,109.97 44.16,110.28 43.92,106.00
             43.75,102.83 46.57,95.77 43.40,92.60
             41.18,90.37 35.99,91.15 33.00,90.95
             33.00,90.95 22.00,89.00 22.00,89.00 Z
           M 517.00,95.00
           C 520.89,104.21 518.57,106.36 510.00,110.00
             510.00,110.00 510.00,112.00 510.00,112.00
             524.77,116.92 522.66,113.84 530.00,113.94
             533.70,113.99 536.13,115.27 543.00,114.98
             544.94,114.90 547.52,114.87 548.34,112.69
             549.34,110.05 546.91,107.27 545.96,105.00
             545.96,105.00 544.00,96.00 544.00,96.00
             527.91,98.88 532.07,91.97 517.00,95.00 Z
           M 550.00,97.00
           C 550.00,97.00 550.00,103.00 550.00,103.00
             550.00,103.00 552.00,97.00 552.00,97.00
             552.00,97.00 550.00,97.00 550.00,97.00 Z
           M 176.00,102.00
           C 171.75,104.98 169.76,105.68 169.00,111.00
             174.14,109.59 178.36,108.20 176.00,102.00 Z
           M 291.00,103.00
           C 291.00,103.00 291.00,107.00 291.00,107.00
             291.00,107.00 293.00,103.00 293.00,103.00
             293.00,103.00 291.00,103.00 291.00,103.00 Z
           M 431.00,105.00
           C 431.00,105.00 431.00,107.00 431.00,107.00
             431.00,107.00 435.00,107.00 435.00,107.00
             435.00,107.00 435.00,105.00 435.00,105.00
             435.00,105.00 431.00,105.00 431.00,105.00 Z
           M 473.00,113.00
           C 477.45,112.84 478.71,113.07 481.00,109.00
             481.00,109.00 480.00,108.00 480.00,108.00
             480.00,108.00 473.00,113.00 473.00,113.00 Z
           M 277.00,112.00
           C 277.00,112.00 286.00,110.00 286.00,110.00
             282.18,108.49 279.41,108.40 277.00,112.00 Z
           M 455.00,115.00
           C 455.00,115.00 457.00,119.00 457.00,119.00
             459.48,116.39 459.45,116.57 459.00,113.00
             459.00,113.00 455.00,115.00 455.00,115.00 Z
           M 425.00,115.00
           C 425.00,115.00 423.00,125.00 423.00,125.00
             432.97,123.93 436.96,115.42 425.00,115.00 Z
           M 314.00,125.00
           C 314.00,125.00 319.00,124.00 319.00,124.00
             316.22,122.78 316.25,123.06 314.00,125.00 Z
           M 90.00,124.00
           C 86.81,128.52 85.42,131.85 91.00,135.00
             91.00,135.00 90.00,124.00 90.00,124.00 Z" />
</svg>
