<?xml version="1.0" encoding="UTF-8" standalone="no"?>
<!DOCTYPE svg PUBLIC "-//W3C//DTD SVG 20010904//EN"
              "http://www.w3.org/TR/2001/REC-SVG-20010904/DTD/svg10.dtd">

<svg xmlns="http://www.w3.org/2000/svg"
     width="103.722mm" height="41.2771mm"
     viewBox="0 0 588 234">
  <path id="Selection #1"
        fill="gray" stroke="black" stroke-width="1"
        d="M 359.00,37.00
           C 360.82,33.55 361.64,33.11 365.00,31.16
             367.29,29.83 369.35,28.64 372.00,28.23
             372.00,28.23 402.00,32.25 402.00,32.25
             411.08,32.63 420.94,30.08 430.00,29.17
             430.00,29.17 473.00,24.00 473.00,24.00
             473.00,24.00 481.00,24.00 481.00,24.00
             481.00,24.00 503.00,21.04 503.00,21.04
             513.17,21.42 525.96,30.26 536.00,32.48
             536.00,32.48 562.61,36.48 562.61,36.48
             565.70,38.22 566.19,42.82 566.75,46.00
             566.75,46.00 571.81,71.00 571.81,71.00
             572.35,73.69 574.32,79.34 573.36,81.72
             572.25,84.49 565.79,85.93 563.00,87.00
             563.00,87.00 575.00,90.00 575.00,90.00
             575.00,90.00 572.17,118.00 572.17,118.00
             572.17,118.00 570.10,129.28 570.10,129.28
             570.10,129.28 563.00,132.20 563.00,132.20
             563.00,132.20 547.00,137.00 547.00,137.00
             550.69,138.22 562.02,140.39 564.18,142.72
             567.01,145.79 565.95,159.46 566.00,164.00
             566.00,164.00 567.00,178.00 567.00,178.00
             567.00,178.00 567.00,202.00 567.00,202.00
             567.00,202.00 543.00,204.83 543.00,204.83
             543.00,204.83 520.00,206.29 520.00,206.29
             520.00,206.29 492.00,208.96 492.00,208.96
             492.00,208.96 461.00,201.00 461.00,201.00
             460.98,202.83 461.16,205.91 459.98,207.40
             458.63,209.10 455.95,208.96 454.00,209.00
             454.00,209.00 439.00,210.00 439.00,210.00
             426.54,210.14 429.65,210.87 420.00,211.83
             420.00,211.83 393.00,213.04 393.00,213.04
             393.00,213.04 382.00,214.08 382.00,214.08
             382.00,214.08 373.00,214.08 373.00,214.08
             367.95,214.67 364.44,216.24 359.00,215.91
             359.00,215.91 349.00,214.17 349.00,214.17
             340.16,213.23 321.47,214.13 316.00,206.00
             309.36,210.07 307.10,212.89 299.00,213.00
             299.00,213.00 282.00,213.00 282.00,213.00
             282.00,213.00 267.00,212.00 267.00,212.00
             267.00,212.00 219.00,212.00 219.00,212.00
             215.86,212.00 205.96,211.86 204.02,209.40
             203.05,208.16 203.12,206.48 203.00,205.00
             200.61,206.46 197.62,208.55 195.00,209.35
             192.00,210.27 185.40,210.00 182.00,210.00
             182.00,210.00 158.00,210.00 158.00,210.00
             146.79,209.84 149.00,204.37 142.00,203.72
             142.00,203.72 125.00,205.58 125.00,205.58
             125.00,205.58 108.00,208.58 108.00,208.58
             108.00,208.58 95.00,210.37 95.00,210.37
             88.64,211.63 82.55,213.33 76.00,213.63
             70.59,213.87 64.14,210.98 59.00,209.44
             59.00,209.44 38.06,202.94 38.06,202.94
             29.31,198.24 39.15,189.78 40.78,182.17
             42.03,176.31 36.02,171.26 35.75,166.04
             35.59,162.84 37.90,160.97 40.04,158.95
             45.76,153.57 50.10,152.21 57.00,149.00
             53.82,145.82 45.95,138.35 44.07,134.72
             42.38,131.44 42.19,126.63 41.72,123.00
             41.72,123.00 38.71,93.00 38.71,93.00
             38.71,93.00 35.76,68.00 35.76,68.00
             35.76,68.00 35.76,59.00 35.76,59.00
             36.45,54.40 44.02,47.79 46.57,43.00
             48.77,38.86 48.00,29.89 48.00,25.00
             48.00,25.00 87.00,22.83 87.00,22.83
             87.00,22.83 110.00,20.67 110.00,20.67
             110.00,20.67 128.00,23.71 128.00,23.71
             128.00,23.71 167.00,29.43 167.00,29.43
             175.30,30.83 183.53,32.90 192.00,33.00
             192.00,33.00 245.00,28.00 245.00,28.00
             245.00,28.00 299.00,28.00 299.00,28.00
             299.00,28.00 337.00,28.00 337.00,28.00
             345.35,28.12 351.60,33.40 359.00,37.00 Z" />
    <path id="Selection"
        fill="lightgray" stroke="black" stroke-width="1"
        d="M 112.00,23.00
           C 112.00,23.00 117.00,24.00 117.00,24.00
             117.00,24.00 112.00,23.00 112.00,23.00 Z
           M 128.00,26.00
           C 128.00,26.00 133.00,27.00 133.00,27.00
             133.00,27.00 128.00,26.00 128.00,26.00 Z
           M 120.00,27.00
           C 120.00,27.00 120.00,28.00 120.00,28.00
             120.00,28.00 121.00,27.00 121.00,27.00
             121.00,27.00 120.00,27.00 120.00,27.00 Z
           M 135.00,27.00
           C 135.00,27.00 142.00,28.00 142.00,28.00
             142.00,28.00 135.00,27.00 135.00,27.00 Z
           M 140.00,30.00
           C 140.00,30.00 140.00,31.00 140.00,31.00
             140.00,31.00 141.00,30.00 141.00,30.00
             141.00,30.00 140.00,30.00 140.00,30.00 Z
           M 105.00,31.00
           C 105.00,31.00 108.00,34.00 108.00,34.00
             108.00,34.00 105.00,31.00 105.00,31.00 Z
           M 120.00,31.00
           C 120.00,31.00 120.00,32.00 120.00,32.00
             120.00,32.00 121.00,31.00 121.00,31.00
             121.00,31.00 120.00,31.00 120.00,31.00 Z
           M 131.00,31.00
           C 131.00,31.00 131.00,32.00 131.00,32.00
             131.00,32.00 132.00,31.00 132.00,31.00
             132.00,31.00 131.00,31.00 131.00,31.00 Z
           M 161.00,33.00
           C 161.00,33.00 162.00,34.00 162.00,34.00
             162.00,34.00 168.00,32.00 168.00,32.00
             164.75,30.82 163.86,31.15 161.00,33.00 Z
           M 152.00,32.00
           C 152.00,32.00 152.00,33.00 152.00,33.00
             152.00,33.00 153.00,32.00 153.00,32.00
             153.00,32.00 152.00,32.00 152.00,32.00 Z
           M 109.00,33.00
           C 109.00,33.00 117.00,34.00 117.00,34.00
             117.00,34.00 109.00,33.00 109.00,33.00 Z
           M 180.00,34.00
           C 180.00,34.00 185.00,35.00 185.00,35.00
             185.00,35.00 180.00,34.00 180.00,34.00 Z
           M 128.00,35.00
           C 128.00,35.00 134.00,36.00 134.00,36.00
             134.00,36.00 128.00,35.00 128.00,35.00 Z
           M 537.00,35.00
           C 537.00,35.00 543.00,36.00 543.00,36.00
             543.00,36.00 537.00,35.00 537.00,35.00 Z
           M 390.00,62.00
           C 389.03,55.24 392.27,52.41 390.80,49.27
             389.80,47.15 386.05,45.73 384.00,44.75
             376.80,41.28 371.12,38.18 363.00,38.00
             363.00,38.00 364.00,41.00 364.00,41.00
             364.00,41.00 358.00,46.00 358.00,46.00
             358.00,46.00 360.00,39.00 360.00,39.00
             360.00,39.00 323.00,38.00 323.00,38.00
             323.00,38.00 307.00,39.00 307.00,39.00
             307.00,39.00 262.00,39.00 262.00,39.00
             262.00,39.00 307.00,77.00 307.00,77.00
             307.00,77.00 271.00,50.63 271.00,50.63
             271.00,50.63 254.00,39.34 254.00,39.34
             254.00,39.34 241.00,42.32 241.00,42.32
             241.00,42.32 218.00,46.00 218.00,46.00
             221.00,54.64 223.79,60.55 224.00,70.00
             221.96,65.21 218.57,51.45 215.36,48.60
             213.26,46.73 204.29,46.40 201.00,45.86
             201.00,45.86 191.00,43.24 191.00,43.24
             184.97,41.82 173.13,40.01 167.00,40.00
             167.00,40.00 151.00,40.00 151.00,40.00
             151.00,40.00 139.00,39.09 139.00,39.09
             139.00,39.09 117.00,37.91 117.00,37.91
             117.00,37.91 107.00,37.00 107.00,37.00
             88.64,36.79 78.52,43.49 62.00,49.00
             62.00,49.00 62.72,76.00 62.72,76.00
             63.01,78.48 62.70,83.63 64.02,85.44
             65.73,87.80 73.12,89.41 76.00,90.00
             76.00,90.00 54.00,92.00 54.00,92.00
             54.00,92.00 70.00,93.00 70.00,93.00
             67.67,94.36 64.44,95.88 63.01,98.21
             61.43,100.77 61.04,106.95 61.00,110.00
             61.00,110.00 60.06,137.99 60.06,137.99
             59.36,144.56 64.99,144.00 70.00,145.67
             84.32,150.42 79.79,147.78 92.00,150.40
             92.00,150.40 101.00,153.00 101.00,153.00
             91.87,155.17 82.95,149.92 70.00,153.58
             66.82,154.48 61.92,155.34 61.04,159.11
             60.51,161.35 62.56,168.14 63.00,171.00
             63.00,171.00 38.00,164.00 38.00,164.00
             48.58,171.18 74.10,171.12 86.00,183.00
             86.00,183.00 106.00,179.00 106.00,179.00
             106.00,179.00 81.00,187.00 81.00,187.00
             81.00,187.00 82.00,185.00 82.00,185.00
             82.00,185.00 69.00,190.00 69.00,190.00
             69.00,190.00 91.00,192.17 91.00,192.17
             91.00,192.17 137.00,196.00 137.00,196.00
             137.00,196.00 139.00,194.00 139.00,194.00
             140.23,189.35 144.35,187.46 147.70,184.34
             147.70,184.34 159.00,171.00 159.00,171.00
             156.42,176.36 145.94,188.90 152.70,194.01
             154.79,195.59 165.86,195.00 169.00,195.00
             169.00,195.00 150.00,196.00 150.00,196.00
             154.13,197.64 160.46,197.00 165.00,197.00
             165.00,197.00 194.00,197.00 194.00,197.00
             203.24,196.94 200.90,195.46 206.87,185.00
             210.11,179.33 213.75,173.95 218.00,169.00
             215.17,177.95 206.80,187.56 205.00,199.04
             205.00,199.04 221.00,199.04 221.00,199.04
             221.00,199.04 233.00,200.00 233.00,200.00
             233.00,200.00 267.00,200.00 267.00,200.00
             267.00,200.00 283.00,201.10 283.00,201.10
             283.00,201.10 297.00,201.10 297.00,201.10
             297.00,201.10 305.99,201.10 305.99,201.10
             305.99,201.10 314.00,199.00 314.00,199.00
             314.00,199.00 318.00,186.00 318.00,186.00
             318.00,186.00 324.00,199.00 324.00,199.00
             324.00,199.00 325.00,200.00 325.00,200.00
             325.00,200.00 327.00,201.00 327.00,201.00
             327.00,201.00 352.00,200.00 352.00,200.00
             352.00,200.00 397.00,200.00 397.00,200.00
             397.00,200.00 395.13,192.96 395.13,192.96
             394.20,185.30 395.98,185.20 392.00,177.00
             392.00,177.00 407.00,195.00 407.00,195.00
             408.12,199.96 412.68,199.21 417.00,198.91
             417.00,198.91 448.00,197.00 448.00,197.00
             448.00,197.00 446.00,195.00 446.00,195.00
             448.68,191.74 442.97,185.42 439.96,183.77
             438.16,182.77 437.97,183.19 437.00,183.00
             437.00,183.00 436.00,182.00 436.00,182.00
             436.00,182.00 437.00,180.00 437.00,180.00
             437.00,180.00 434.00,180.00 434.00,180.00
             433.04,174.92 430.20,172.26 425.00,172.00
             423.76,165.45 413.89,159.66 409.00,155.00
             419.37,161.56 442.13,181.41 449.00,191.00
             449.00,191.00 451.00,191.00 451.00,191.00
             452.49,185.75 452.28,181.27 451.00,176.00
             454.76,181.63 454.94,184.41 455.00,191.00
             455.00,191.00 470.00,192.00 470.00,192.00
             470.00,192.00 463.00,193.00 463.00,193.00
             463.00,193.00 495.00,197.46 495.00,197.46
             500.29,198.42 509.96,201.26 515.00,200.45
             526.09,198.66 541.16,190.56 552.00,192.00
             548.67,186.03 550.01,174.05 550.00,167.00
             549.99,164.35 550.19,161.43 548.98,159.00
             546.31,153.67 535.38,144.26 529.00,145.41
             525.28,146.07 512.68,153.75 508.00,156.00
             508.00,156.00 524.00,145.00 524.00,145.00
             524.00,145.00 510.00,144.00 510.00,144.00
             510.00,144.00 537.00,135.00 537.00,135.00
             537.00,135.00 539.80,117.00 539.80,117.00
             539.80,117.00 539.80,105.00 539.80,105.00
             539.80,105.00 545.00,84.00 545.00,84.00
             545.00,84.00 550.00,85.00 550.00,85.00
             550.00,85.00 547.00,84.00 547.00,84.00
             547.00,84.00 548.00,80.00 548.00,80.00
             548.00,80.00 547.00,80.00 547.00,80.00
             547.00,80.00 547.00,82.00 547.00,82.00
             547.00,82.00 546.26,68.17 546.26,68.17
             546.26,68.17 540.00,60.00 540.00,60.00
             540.00,60.00 549.00,66.00 549.00,66.00
             549.00,66.00 553.00,57.00 553.00,57.00
             553.00,57.00 555.00,59.00 555.00,59.00
             555.00,59.00 556.00,59.00 556.00,59.00
             556.00,59.00 549.96,52.25 549.96,52.25
             548.19,48.19 559.71,39.56 563.00,38.00
             560.22,37.25 553.97,36.88 552.00,39.00
             552.00,39.00 557.00,39.00 557.00,39.00
             557.00,39.00 552.00,42.00 552.00,42.00
             552.00,42.00 548.00,50.00 548.00,50.00
             548.00,50.00 525.00,46.00 525.00,46.00
             525.00,46.00 529.00,51.00 529.00,51.00
             523.91,48.07 515.69,41.07 511.00,39.55
             506.79,38.19 491.09,37.19 486.00,36.96
             486.00,36.96 478.00,36.04 478.00,36.04
             478.00,36.04 465.00,36.04 465.00,36.04
             456.49,36.04 438.12,39.93 429.00,41.58
             429.00,41.58 407.00,45.58 407.00,45.58
             403.77,46.16 399.14,46.51 396.61,48.72
             393.69,51.27 391.06,58.27 390.00,62.00 Z
           M 191.00,38.00
           C 191.00,38.00 191.00,39.00 191.00,39.00
             191.00,39.00 192.00,38.00 192.00,38.00
             192.00,38.00 191.00,38.00 191.00,38.00 Z
           M 520.00,38.00
           C 520.00,38.00 520.00,39.00 520.00,39.00
             520.00,39.00 521.00,38.00 521.00,38.00
             521.00,38.00 520.00,38.00 520.00,38.00 Z
           M 540.00,38.00
           C 540.00,38.00 540.00,39.00 540.00,39.00
             540.00,39.00 541.00,38.00 541.00,38.00
             541.00,38.00 540.00,38.00 540.00,38.00 Z
           M 192.00,40.00
           C 192.00,40.00 196.00,41.00 196.00,41.00
             196.00,41.00 192.00,40.00 192.00,40.00 Z
           M 519.00,40.00
           C 519.00,40.00 519.00,41.00 519.00,41.00
             519.00,41.00 520.00,40.00 520.00,40.00
             520.00,40.00 519.00,40.00 519.00,40.00 Z
           M 203.00,43.00
           C 203.00,43.00 208.00,44.00 208.00,44.00
             208.00,44.00 203.00,43.00 203.00,43.00 Z
           M 550.00,43.00
           C 550.00,43.00 550.00,44.00 550.00,44.00
             550.00,44.00 551.00,43.00 551.00,43.00
             551.00,43.00 550.00,43.00 550.00,43.00 Z
           M 358.00,46.00
           C 358.00,46.00 331.00,76.00 331.00,76.00
             330.57,71.82 334.08,68.24 336.42,65.00
             342.76,56.26 346.94,48.60 358.00,46.00 Z
           M 81.00,58.00
           C 81.00,58.00 93.00,67.00 93.00,67.00
             93.00,67.00 89.00,67.00 89.00,67.00
             89.00,67.00 81.00,58.00 81.00,58.00 Z
           M 95.00,70.00
           C 95.00,70.00 98.00,70.00 98.00,70.00
             98.00,70.00 107.00,79.00 107.00,79.00
             107.00,79.00 96.00,81.00 96.00,81.00
             96.00,81.00 102.00,78.00 102.00,78.00
             102.00,78.00 102.00,76.00 102.00,76.00
             98.85,74.65 96.03,73.45 95.00,70.00 Z
           M 339.00,97.00
           C 339.00,97.00 340.00,98.00 340.00,98.00
             340.00,98.00 339.00,100.00 339.00,100.00
             339.00,100.00 344.00,104.00 344.00,104.00
             344.00,104.00 324.00,91.51 324.00,91.51
             324.00,91.51 314.42,86.37 314.42,86.37
             314.42,86.37 304.83,93.40 304.83,93.40
             304.83,93.40 285.00,108.00 285.00,108.00
             290.42,100.49 298.57,95.68 304.91,89.00
             307.36,86.42 309.98,82.15 314.00,82.64
             321.47,83.54 331.01,96.33 339.00,97.00 Z
           M 91.00,83.00
           C 91.00,83.00 91.00,84.00 91.00,84.00
             91.00,84.00 90.00,83.00 90.00,83.00
             90.00,83.00 91.00,83.00 91.00,83.00 Z
           M 188.00,90.00
           C 188.00,90.00 188.00,91.00 188.00,91.00
             188.00,91.00 187.00,90.00 187.00,90.00
             187.00,90.00 188.00,90.00 188.00,90.00 Z
           M 44.00,91.00
           C 44.00,91.00 53.00,92.00 53.00,92.00
             53.00,92.00 44.00,91.00 44.00,91.00 Z
           M 190.00,92.00
           C 190.00,92.00 190.00,93.00 190.00,93.00
             190.00,93.00 189.00,92.00 189.00,92.00
             189.00,92.00 190.00,92.00 190.00,92.00 Z
           M 191.00,93.00
           C 191.00,93.00 191.00,94.00 191.00,94.00
             191.00,94.00 190.00,93.00 190.00,93.00
             190.00,93.00 191.00,93.00 191.00,93.00 Z
           M 192.00,94.00
           C 192.00,94.00 192.00,95.00 192.00,95.00
             192.00,95.00 191.00,94.00 191.00,94.00
             191.00,94.00 192.00,94.00 192.00,94.00 Z
           M 335.00,94.00
           C 335.00,94.00 335.00,95.00 335.00,95.00
             335.00,95.00 334.00,94.00 334.00,94.00
             334.00,94.00 335.00,94.00 335.00,94.00 Z
           M 195.00,97.00
           C 206.08,104.93 220.60,125.49 223.48,139.00
             224.21,142.41 224.00,147.40 224.00,151.00
             224.00,151.00 220.19,139.00 220.19,139.00
             220.19,139.00 209.25,117.00 209.25,117.00
             209.25,117.00 195.00,97.00 195.00,97.00 Z
           M 343.00,100.00
           C 343.00,100.00 343.00,101.00 343.00,101.00
             343.00,101.00 342.00,100.00 342.00,100.00
             342.00,100.00 343.00,100.00 343.00,100.00 Z
           M 346.00,102.00
           C 346.00,102.00 346.00,103.00 346.00,103.00
             346.00,103.00 345.00,102.00 345.00,102.00
             345.00,102.00 346.00,102.00 346.00,102.00 Z
           M 345.00,104.00
           C 345.00,104.00 345.00,105.00 345.00,105.00
             345.00,105.00 344.00,104.00 344.00,104.00
             344.00,104.00 345.00,104.00 345.00,104.00 Z
           M 284.00,106.00
           C 279.56,115.40 261.51,129.23 253.00,136.00
             248.16,139.86 243.68,144.44 238.00,147.00
             240.97,140.73 246.17,137.25 251.17,132.68
             257.67,126.74 277.06,109.60 284.00,106.00 Z
           M 351.00,106.00
           C 351.00,106.00 351.00,107.00 351.00,107.00
             351.00,107.00 350.00,106.00 350.00,106.00
             350.00,106.00 351.00,106.00 351.00,106.00 Z
           M 285.00,108.00
           C 285.00,108.00 285.00,109.00 285.00,109.00
             285.00,109.00 284.00,108.00 284.00,108.00
             284.00,108.00 285.00,108.00 285.00,108.00 Z
           M 351.00,108.00
           C 351.00,108.00 351.00,109.00 351.00,109.00
             351.00,109.00 350.00,108.00 350.00,108.00
             350.00,108.00 351.00,108.00 351.00,108.00 Z
           M 354.00,108.00
           C 354.00,108.00 354.00,109.00 354.00,109.00
             354.00,109.00 353.00,108.00 353.00,108.00
             353.00,108.00 354.00,108.00 354.00,108.00 Z
           M 284.00,109.00
           C 284.00,109.00 284.00,110.00 284.00,110.00
             284.00,110.00 283.00,109.00 283.00,109.00
             283.00,109.00 284.00,109.00 284.00,109.00 Z
           M 355.00,109.00
           C 355.00,109.00 355.00,110.00 355.00,110.00
             355.00,110.00 354.00,109.00 354.00,109.00
             354.00,109.00 355.00,109.00 355.00,109.00 Z
           M 283.00,110.00
           C 283.00,110.00 283.00,111.00 283.00,111.00
             283.00,111.00 282.00,110.00 282.00,110.00
             282.00,110.00 283.00,110.00 283.00,110.00 Z
           M 281.00,112.00
           C 281.00,112.00 281.00,113.00 281.00,113.00
             281.00,113.00 280.00,112.00 280.00,112.00
             280.00,112.00 281.00,112.00 281.00,112.00 Z
           M 361.00,114.00
           C 361.00,114.00 369.00,121.00 369.00,121.00
             365.51,119.51 362.09,117.85 361.00,114.00 Z
           M 370.00,121.00
           C 370.00,121.00 374.00,125.00 374.00,125.00
             374.00,125.00 370.00,121.00 370.00,121.00 Z
           M 375.00,125.00
           C 375.00,125.00 380.00,130.00 380.00,130.00
             377.08,128.59 375.89,128.23 375.00,125.00 Z
           M 388.00,136.00
           C 388.00,136.00 388.00,137.00 388.00,137.00
             388.00,137.00 387.00,136.00 387.00,136.00
             387.00,136.00 388.00,136.00 388.00,136.00 Z
           M 538.00,135.00
           C 538.00,135.00 544.00,137.00 544.00,137.00
             544.00,137.00 538.00,135.00 538.00,135.00 Z
           M 389.00,137.00
           C 389.00,137.00 389.00,138.00 389.00,138.00
             389.00,138.00 388.00,137.00 388.00,137.00
             388.00,137.00 389.00,137.00 389.00,137.00 Z
           M 390.00,138.00
           C 390.00,138.00 390.00,139.00 390.00,139.00
             390.00,139.00 389.00,138.00 389.00,138.00
             389.00,138.00 390.00,138.00 390.00,138.00 Z
           M 394.00,140.00
           C 394.00,140.00 394.00,141.00 394.00,141.00
             394.00,141.00 393.00,140.00 393.00,140.00
             393.00,140.00 394.00,140.00 394.00,140.00 Z
           M 226.00,145.00
           C 226.00,145.00 227.00,155.00 227.00,155.00
             227.00,155.00 235.00,148.00 235.00,148.00
             235.00,148.00 222.00,167.00 222.00,167.00
             222.00,167.00 223.49,157.00 223.49,157.00
             223.49,157.00 226.00,145.00 226.00,145.00 Z
           M 402.00,148.00
           C 402.00,148.00 402.00,149.00 402.00,149.00
             402.00,149.00 401.00,148.00 401.00,148.00
             401.00,148.00 402.00,148.00 402.00,148.00 Z
           M 403.00,149.00
           C 403.00,149.00 403.00,150.00 403.00,150.00
             403.00,150.00 402.00,149.00 402.00,149.00
             402.00,149.00 403.00,149.00 403.00,149.00 Z
           M 417.00,163.00
           C 417.00,163.00 417.00,164.00 417.00,164.00
             417.00,164.00 416.00,163.00 416.00,163.00
             416.00,163.00 417.00,163.00 417.00,163.00 Z
           M 422.00,167.00
           C 422.00,167.00 422.00,168.00 422.00,168.00
             422.00,168.00 421.00,167.00 421.00,167.00
             421.00,167.00 422.00,167.00 422.00,167.00 Z
           M 160.00,170.00
           C 160.00,170.00 160.00,171.00 160.00,171.00
             160.00,171.00 159.00,170.00 159.00,170.00
             159.00,170.00 160.00,170.00 160.00,170.00 Z
           M 425.00,170.00
           C 425.00,170.00 425.00,171.00 425.00,171.00
             425.00,171.00 424.00,170.00 424.00,170.00
             424.00,170.00 425.00,170.00 425.00,170.00 Z
           M 429.00,173.00
           C 429.00,173.00 429.00,174.00 429.00,174.00
             429.00,174.00 428.00,173.00 428.00,173.00
             428.00,173.00 429.00,173.00 429.00,173.00 Z
           M 431.00,175.00
           C 431.00,175.00 431.00,176.00 431.00,176.00
             431.00,176.00 430.00,175.00 430.00,175.00
             430.00,175.00 431.00,175.00 431.00,175.00 Z
           M 433.00,177.00
           C 433.00,177.00 433.00,178.00 433.00,178.00
             433.00,178.00 432.00,177.00 432.00,177.00
             432.00,177.00 433.00,177.00 433.00,177.00 Z
           M 434.00,178.00
           C 434.00,178.00 434.00,179.00 434.00,179.00
             434.00,179.00 433.00,178.00 433.00,178.00
             433.00,178.00 434.00,178.00 434.00,178.00 Z
           M 439.00,183.00
           C 439.00,183.00 439.00,184.00 439.00,184.00
             439.00,184.00 438.00,183.00 438.00,183.00
             438.00,183.00 439.00,183.00 439.00,183.00 Z
           M 441.00,185.00
           C 441.00,185.00 441.00,186.00 441.00,186.00
             441.00,186.00 440.00,185.00 440.00,185.00
             440.00,185.00 441.00,185.00 441.00,185.00 Z
           M 408.00,196.00
           C 408.00,196.00 408.00,197.00 408.00,197.00
             408.00,197.00 407.00,196.00 407.00,196.00
             407.00,196.00 408.00,196.00 408.00,196.00 Z
           M 315.00,197.00
           C 315.00,197.00 315.00,198.00 315.00,198.00
             315.00,198.00 316.00,197.00 316.00,197.00
             316.00,197.00 315.00,197.00 315.00,197.00 Z
           M 326.00,198.00
           C 326.00,198.00 326.00,199.00 326.00,199.00
             326.00,199.00 325.00,198.00 325.00,198.00
             325.00,198.00 326.00,198.00 326.00,198.00 Z" />
         <path id="Selection"
        fill="black" stroke="black" stroke-width="1"
        transform="translate(25,40)" 
        d="M 447.00,9.00
           C 447.00,9.00 440.00,25.00 440.00,25.00
             455.50,30.02 447.82,34.83 461.00,35.00
             459.66,28.80 451.15,13.51 447.00,9.00 Z
           M 519.00,24.00
           C 520.29,28.51 521.53,28.69 526.00,29.00
             526.00,29.00 519.00,24.00 519.00,24.00 Z
           M 215.00,37.00
           C 214.22,47.87 207.73,48.28 199.00,51.00
             199.10,59.23 201.02,60.21 202.34,67.00
             202.34,67.00 202.34,75.00 202.34,75.00
             204.23,82.51 207.26,85.92 203.00,94.00
             204.53,97.58 205.58,105.05 210.09,105.46
             213.43,105.77 217.01,101.84 220.82,103.54
             223.77,104.85 222.89,107.85 224.09,109.20
             226.04,111.90 230.57,109.75 233.00,109.20
             233.00,104.91 233.29,101.81 231.39,98.00
             229.15,93.50 225.58,91.24 224.66,87.00
             224.11,84.49 224.83,74.38 226.60,72.60
             228.08,71.11 231.89,70.68 234.00,70.14
             234.00,70.14 259.00,67.00 259.00,67.00
             259.00,67.00 257.00,53.00 257.00,53.00
             257.00,53.00 242.00,54.94 242.00,54.94
             242.00,54.94 235.00,54.94 235.00,54.94
             235.00,54.94 223.00,56.00 223.00,56.00
             223.39,54.16 223.72,49.81 224.76,48.60
             226.08,47.07 229.06,46.91 230.96,46.25
             230.96,46.25 236.28,43.65 236.28,43.65
             236.28,43.65 247.00,43.65 247.00,43.65
             250.33,43.00 255.93,43.40 258.01,40.43
             260.50,36.87 257.70,28.95 257.00,25.00
             248.14,25.03 247.43,26.73 244.00,26.75
             238.98,26.78 239.09,24.40 231.04,27.60
             224.35,30.25 225.04,34.73 215.00,37.00 Z
           M 387.00,31.00
           C 387.00,31.00 398.00,31.00 398.00,31.00
             398.00,31.00 395.00,25.00 395.00,25.00
             391.11,26.49 389.18,27.34 387.00,31.00 Z
           M 121.00,27.00
           C 121.00,27.00 117.58,48.00 117.58,48.00
             117.58,48.00 118.33,71.00 118.33,71.00
             117.79,79.17 112.57,89.81 116.56,97.77
             118.29,101.22 121.61,100.51 123.35,102.58
             126.34,106.15 117.46,114.79 126.02,114.48
             127.11,114.44 129.89,113.61 131.00,113.23
             141.40,109.64 137.99,101.34 138.13,95.00
             138.13,95.00 138.13,88.00 138.13,88.00
             138.13,88.00 138.13,83.00 138.13,83.00
             138.13,83.00 138.13,76.01 138.13,76.01
             138.13,76.01 138.13,71.44 138.13,71.44
             138.81,67.65 142.37,66.17 142.26,62.82
             142.56,60.77 139.40,53.25 142.26,49.31
             145.77,43.69 160.80,49.80 157.96,56.83
             157.57,57.80 151.65,65.61 150.74,66.45
             148.87,68.18 146.28,69.13 145.15,71.26
             144.63,72.73 144.92,74.45 145.15,76.00
             145.15,76.00 152.00,72.76 152.00,72.76
             162.27,79.71 162.58,75.11 172.00,72.76
             174.80,71.74 178.23,73.26 180.36,70.67
             182.48,68.09 180.67,64.85 181.28,61.00
             182.37,53.99 186.86,52.53 187.00,41.00
             187.00,41.00 184.00,45.00 184.00,45.00
             184.00,45.00 182.00,45.00 182.00,45.00
             181.24,43.12 180.78,41.75 179.49,40.09
             177.09,37.00 166.81,30.37 163.00,29.73
             163.00,29.73 157.00,29.73 157.00,29.73
             157.00,29.73 149.00,29.00 149.00,29.00
             149.00,29.00 134.00,29.00 134.00,29.00
             126.38,28.99 127.80,28.45 121.00,27.00 Z
           M 293.00,42.00
           C 298.71,56.18 307.55,47.89 318.00,49.13
             326.04,50.08 327.85,55.82 332.09,56.63
             335.97,57.38 344.84,52.42 349.00,51.00
             348.94,49.32 348.99,47.61 348.40,46.00
             346.98,42.15 337.68,33.09 333.99,30.75
             332.13,29.57 328.57,27.46 326.32,27.74
             323.75,28.06 320.71,32.37 316.00,34.16
             311.88,35.73 307.40,34.36 304.28,35.56
             302.40,36.28 299.93,39.06 293.00,42.00 Z
           M 45.00,72.00
           C 45.00,72.00 36.82,76.37 36.82,76.37
             36.82,76.37 26.00,73.00 26.00,73.00
             23.68,81.17 26.06,90.45 31.52,96.95
             38.55,105.31 46.49,101.03 42.00,109.00
             48.69,116.83 49.03,109.41 54.09,107.02
             57.83,105.30 65.13,105.84 69.00,107.02
             69.00,107.02 71.00,95.00 71.00,95.00
             64.50,94.48 66.00,93.37 61.00,91.56
             57.86,90.42 55.51,90.78 52.13,88.23
             47.25,84.56 45.33,76.64 47.00,71.00
             47.00,71.00 64.77,77.15 64.77,77.15
             64.77,77.15 68.64,86.69 68.64,86.69
             68.64,86.69 75.98,91.31 75.98,91.31
             75.98,91.31 77.00,109.00 77.00,109.00
             80.76,107.31 88.06,102.61 89.98,98.96
             91.41,96.24 90.77,92.99 91.26,90.00
             91.64,87.64 92.75,85.42 92.75,83.00
             92.74,78.88 87.69,66.10 84.45,63.57
             79.15,59.43 61.89,55.95 55.05,50.45
             52.58,48.46 51.46,46.68 49.89,44.00
             45.46,36.41 46.51,33.43 54.00,29.00
             43.71,26.14 27.31,40.64 33.42,56.96
             35.42,62.32 40.47,64.32 45.00,72.00 Z
           M 505.00,108.83
           C 505.00,108.83 519.57,108.83 519.57,108.83
             519.57,108.83 530.00,100.00 530.00,100.00
             530.00,100.00 527.72,92.00 527.72,92.00
             527.72,92.00 529.47,75.00 529.47,75.00
             529.47,75.00 531.29,68.00 531.29,68.00
             531.29,68.00 531.29,61.00 531.29,61.00
             531.29,61.00 532.70,53.00 532.70,53.00
             532.70,53.00 532.00,37.00 532.00,37.00
             528.06,37.00 524.69,37.29 521.05,35.40
             517.91,33.77 513.42,27.67 509.51,30.07
             505.46,32.57 507.61,41.20 507.47,45.00
             507.47,45.00 507.47,51.00 507.47,51.00
             506.93,53.18 506.78,58.86 507.47,60.74
             509.17,64.39 513.35,64.00 512.94,72.00
             512.50,80.56 507.38,80.57 505.71,86.09
             504.80,89.11 505.00,104.74 505.00,108.83 Z
           M 53.00,39.00
           C 53.00,39.00 60.00,42.68 60.00,42.68
             67.22,46.36 68.50,46.14 72.00,54.00
             81.29,52.37 78.04,54.10 85.00,54.94
             85.00,54.94 93.00,54.94 93.00,54.94
             92.12,42.10 78.67,26.67 65.00,30.61
             63.08,31.16 61.69,32.21 60.00,33.19
             56.34,35.30 55.15,35.14 53.00,39.00 Z
           M 206.00,43.00
           C 206.00,43.00 212.00,31.00 212.00,31.00
             209.88,31.17 199.46,31.36 198.62,32.04
             196.17,33.99 198.59,39.34 200.52,40.92
             202.08,42.19 204.11,42.54 206.00,43.00 Z
           M 437.00,31.00
           C 437.00,31.00 431.55,48.89 431.55,48.89
             431.55,48.89 433.00,52.00 433.00,52.00
             425.83,60.44 428.13,62.54 426.27,69.00
             426.27,69.00 419.41,88.00 419.41,88.00
             419.41,88.00 419.41,94.00 419.41,94.00
             418.81,97.06 415.21,104.21 415.85,106.70
             416.56,109.41 420.38,109.23 422.60,111.51
             425.15,114.13 422.72,115.15 428.00,123.00
             435.16,120.01 433.68,117.20 435.76,111.00
             435.76,111.00 438.57,104.00 438.57,104.00
             439.35,101.47 439.58,98.50 441.65,96.60
             446.00,92.60 459.05,98.50 458.62,89.91
             458.45,86.45 455.59,80.94 452.81,78.89
             450.31,77.03 447.32,76.90 446.07,74.69
             445.08,72.93 446.65,66.15 447.30,64.09
             449.38,57.44 459.14,57.84 460.82,57.25
             463.05,56.47 464.85,53.98 466.01,52.00
             466.94,50.40 467.68,48.92 467.43,47.00
             466.33,38.75 455.99,42.01 452.13,40.40
             449.03,39.11 448.01,35.90 447.00,33.00
             447.00,33.00 437.00,31.00 437.00,31.00 Z
           M 469.00,34.00
           C 469.00,34.00 473.00,41.00 473.00,41.00
             473.00,41.00 469.00,34.00 469.00,34.00 Z
           M 382.60,36.07
           C 379.50,40.25 381.63,47.82 380.75,53.00
             380.45,54.93 379.28,57.70 380.75,59.39
             382.96,62.00 394.32,59.06 396.96,57.50
             404.60,52.97 402.63,50.37 403.48,45.17
             403.96,42.85 405.50,41.01 403.48,38.86
             399.72,35.07 393.37,36.80 390.00,36.58
             386.43,36.33 386.45,34.99 382.60,36.07 Z
           M 373.00,41.00
           C 373.00,41.00 371.00,51.00 371.00,51.00
             375.30,48.33 374.94,45.66 375.00,41.00
             375.00,41.00 373.00,41.00 373.00,41.00 Z
           M 334.00,109.22
           C 333.24,100.02 331.97,100.07 325.00,95.55
             325.00,95.55 318.00,90.38 318.00,90.38
             316.48,89.32 313.53,87.69 312.40,86.45
             310.51,84.37 310.70,81.56 309.91,79.00
             307.19,70.14 305.03,66.41 309.00,57.00
             299.50,57.53 297.20,57.51 291.00,49.00
             289.62,49.78 289.00,49.78 288.02,51.29
             286.84,53.10 283.20,65.87 283.51,68.00
             284.49,74.78 284.87,73.02 285.00,81.00
             285.14,88.89 287.67,90.25 292.20,96.09
             297.30,102.67 302.77,109.82 312.00,110.65
             315.41,110.96 317.82,109.30 321.00,109.22
             327.23,109.71 323.42,112.28 334.00,109.22 Z
           M 112.00,51.00
           C 105.34,57.53 103.11,61.56 110.00,69.00
             111.20,64.82 113.48,54.85 112.00,51.00 Z
           M 455.00,65.00
           C 457.02,74.32 463.33,82.08 466.24,91.00
             467.34,94.36 467.30,100.63 470.52,102.99
             472.63,104.24 475.64,103.38 478.00,102.99
             487.31,102.33 484.52,104.26 495.00,101.00
             490.31,92.65 484.02,85.58 482.00,76.00
             482.00,76.00 489.00,75.00 489.00,75.00
             489.00,75.00 482.00,59.00 482.00,59.00
             477.25,60.84 476.41,60.94 473.00,57.00
             464.82,60.84 465.50,64.67 455.00,65.00 Z
           M 319.00,58.00
           C 320.13,60.71 320.13,60.45 323.00,61.00
             323.00,61.00 319.00,58.00 319.00,58.00 Z
           M 397.00,111.00
           C 397.00,111.00 399.06,94.00 399.06,94.00
             399.06,94.00 399.06,85.00 399.06,85.00
             399.06,85.00 401.00,74.00 401.00,74.00
             401.00,74.00 401.00,63.00 401.00,63.00
             401.00,63.00 388.00,66.55 388.00,66.55
             384.45,67.34 382.09,66.52 379.39,69.56
             375.07,74.39 377.18,80.18 376.98,86.00
             376.77,92.21 375.12,91.85 375.00,99.00
             374.97,100.97 374.72,105.88 376.02,107.35
             377.61,109.15 379.84,107.63 383.00,107.97
             387.37,108.44 389.89,110.61 397.00,111.00 Z
           M 337.00,75.00
           C 335.04,81.28 335.49,85.82 329.00,89.00
             331.21,92.62 333.01,92.47 335.53,95.26
             338.36,98.39 338.74,102.72 343.05,102.59
             350.76,102.36 353.39,92.92 355.33,87.00
             356.08,84.68 357.67,80.81 355.97,78.60
             354.65,76.87 351.93,77.10 350.00,76.91
             344.03,76.32 344.74,75.18 337.00,75.00 Z
           M 149.00,82.00
           C 151.34,82.76 151.37,82.83 153.00,81.00
             153.00,81.00 149.00,82.00 149.00,82.00 Z
           M 231.00,85.00
           C 231.00,85.00 231.00,89.00 231.00,89.00
             238.77,92.81 235.56,96.07 239.43,99.07
             244.32,102.85 250.84,99.97 256.00,99.71
             259.10,99.55 261.04,101.23 266.00,100.94
             276.00,100.36 272.43,93.83 270.12,88.00
             269.26,85.82 268.95,82.70 266.69,81.69
             264.46,80.51 255.52,81.12 253.00,81.69
             253.00,81.69 246.00,84.19 246.00,84.19
             246.00,84.19 231.00,85.00 231.00,85.00 Z
           M 549.00,89.00
           C 549.00,89.00 560.00,88.00 560.00,88.00
             555.45,85.39 552.03,83.65 549.00,89.00 Z
           M 361.00,87.00
           C 361.00,87.00 359.00,95.00 359.00,95.00
             361.12,92.17 361.50,90.51 361.00,87.00 Z
           M 96.00,90.00
           C 96.00,90.00 95.00,94.00 95.00,94.00
             95.00,94.00 96.00,90.00 96.00,90.00 Z
           M 535.00,93.00
           C 538.89,102.21 536.57,104.36 528.00,108.00
             528.00,108.00 528.00,110.00 528.00,110.00
             542.77,114.92 540.66,111.84 548.00,111.94
             551.70,111.99 554.13,113.27 561.00,112.98
             562.94,112.90 565.52,112.87 566.34,110.69
             567.34,108.05 564.91,105.27 563.96,103.00
             563.96,103.00 562.00,94.00 562.00,94.00
             545.91,96.88 550.07,89.97 535.00,93.00 Z
           M 107.00,95.00
           C 107.00,95.00 106.00,99.00 106.00,99.00
             106.00,99.00 107.00,95.00 107.00,95.00 Z
           M 568.00,95.00
           C 568.00,95.00 568.00,101.00 568.00,101.00
             568.00,101.00 570.00,95.00 570.00,95.00
             570.00,95.00 568.00,95.00 568.00,95.00 Z
           M 21.00,98.00
           C 21.00,98.00 21.00,99.00 21.00,99.00
             21.00,99.00 22.00,98.00 22.00,98.00
             22.00,98.00 21.00,98.00 21.00,98.00 Z
           M 285.00,98.00
           C 285.97,102.53 286.66,105.67 290.00,109.00
             291.32,103.78 290.46,99.84 285.00,98.00 Z
           M 257.00,103.00
           C 257.00,103.00 254.00,109.00 254.00,109.00
             254.00,109.00 261.00,107.00 261.00,107.00
             261.00,107.00 257.00,103.00 257.00,103.00 Z
           M 447.00,103.00
           C 447.00,103.00 447.00,105.00 447.00,105.00
             447.00,105.00 451.00,105.00 451.00,105.00
             451.00,105.00 451.00,103.00 451.00,103.00
             451.00,103.00 447.00,103.00 447.00,103.00 Z
           M 112.00,104.00
           C 112.00,104.00 111.00,107.00 111.00,107.00
             111.00,107.00 112.00,108.00 112.00,108.00
             112.00,108.00 118.00,106.00 118.00,106.00
             118.00,106.00 112.00,104.00 112.00,104.00 Z
           M 489.00,111.00
           C 493.45,110.84 494.71,111.07 497.00,107.00
             497.00,107.00 496.00,106.00 496.00,106.00
             496.00,106.00 489.00,111.00 489.00,111.00 Z
           M 92.00,107.00
           C 87.31,109.55 85.45,109.98 83.00,115.00
             87.56,113.97 91.92,112.36 92.00,107.00 Z
           M 212.00,111.00
           C 212.00,111.00 211.00,116.00 211.00,116.00
             213.07,113.74 213.47,113.77 212.00,111.00 Z
           M 471.00,113.00
           C 471.00,113.00 473.00,117.00 473.00,117.00
             475.48,114.39 475.45,114.57 475.00,111.00
             475.00,111.00 471.00,113.00 471.00,113.00 Z
           M 65.00,113.00
           C 65.00,113.00 65.00,115.00 65.00,115.00
             65.00,115.00 70.00,115.00 70.00,115.00
             70.00,115.00 65.00,113.00 65.00,113.00 Z
           M 377.00,113.00
           C 377.00,113.00 377.00,115.00 377.00,115.00
             377.00,115.00 391.00,119.00 391.00,119.00
             386.35,113.12 384.09,113.03 377.00,113.00 Z
           M 400.00,116.00
           C 400.00,116.00 403.00,117.00 403.00,117.00
             403.00,117.00 404.00,113.00 404.00,113.00
             404.00,113.00 400.00,116.00 400.00,116.00 Z
           M 441.00,113.00
           C 441.00,113.00 439.00,123.00 439.00,123.00
             448.97,121.93 452.96,113.42 441.00,113.00 Z
           M 298.00,115.00
           C 299.17,121.99 300.35,122.84 307.00,121.00
             307.00,121.00 307.00,117.00 307.00,117.00
             307.00,117.00 298.00,115.00 298.00,115.00 Z
           M 312.00,121.00
           C 312.00,121.00 322.00,118.00 322.00,118.00
             317.31,116.17 315.14,117.32 312.00,121.00 Z" />
</svg>
