<?xml version="1.0" encoding="UTF-8" standalone="no"?>
<!DOCTYPE svg PUBLIC "-//W3C//DTD SVG 20010904//EN"
              "http://www.w3.org/TR/2001/REC-SVG-20010904/DTD/svg10.dtd">

<svg xmlns="http://www.w3.org/2000/svg"
     width="100%" height="5%"
     viewBox="0 0 1800 520">
  <path id="Selection"
      transform="translate(-80,10)" 
        fill="tan" stroke="#654321" stroke-width="6px"
        d="M 245.00,79.00
           C 250.61,68.18 248.00,67.05 257.00,67.00
             257.00,67.00 314.00,67.00 314.00,67.00
             314.00,67.00 327.00,99.00 327.00,99.00
             327.00,99.00 335.60,77.00 335.60,77.00
             335.60,77.00 340.41,68.02 340.41,68.02
             340.41,68.02 348.00,67.00 348.00,67.00
             348.00,67.00 405.00,67.00 405.00,67.00
             405.00,67.00 422.61,68.02 422.61,68.02
             422.61,68.02 426.00,73.00 426.00,73.00
             426.88,71.44 428.01,69.03 429.49,68.02
             431.91,66.38 442.61,67.00 446.00,67.00
             446.00,67.00 497.00,67.00 497.00,67.00
             506.74,67.02 504.41,67.01 511.00,81.00
             516.45,67.37 515.32,67.02 525.00,67.00
             525.00,67.00 580.00,67.00 580.00,67.00
             587.71,67.05 587.12,67.78 591.00,76.00
             591.00,76.00 595.41,68.02 595.41,68.02
             595.41,68.02 606.00,67.00 606.00,67.00
             606.00,67.00 629.00,67.00 629.00,67.00
             629.00,67.00 741.00,67.00 741.00,67.00
             741.00,67.00 748.59,68.02 748.59,68.02
             748.59,68.02 753.99,78.00 753.99,78.00
             753.99,78.00 764.00,102.00 764.00,102.00
             764.00,102.00 773.40,78.00 773.40,78.00
             773.40,78.00 778.50,68.02 778.50,68.02
             778.50,68.02 786.00,67.00 786.00,67.00
             786.00,67.00 853.00,67.00 853.00,67.00
             853.00,67.00 874.82,67.59 874.82,67.59
             874.82,67.59 878.00,70.00 878.00,70.00
             880.61,66.53 881.85,67.03 886.00,67.00
             886.00,67.00 911.00,67.00 911.00,67.00
             912.73,67.03 914.88,66.94 916.35,67.99
             918.35,69.42 921.72,78.28 923.00,81.00
             928.45,67.37 927.32,67.02 937.00,67.00
             937.00,67.00 1033.00,67.00 1033.00,67.00
             1035.66,67.00 1039.46,66.78 1041.78,68.17
             1045.47,70.39 1050.93,86.42 1052.00,91.00
             1054.15,86.43 1059.82,70.22 1063.22,68.17
             1065.54,66.78 1069.34,67.00 1072.00,67.00
             1072.00,67.00 1112.00,67.00 1112.00,67.00
             1115.75,67.00 1125.88,66.41 1128.73,68.17
             1131.81,70.08 1133.22,75.66 1134.00,79.00
             1139.07,68.24 1137.80,67.02 1149.00,67.00
             1149.00,67.00 1203.00,67.00 1203.00,67.00
             1211.72,67.06 1213.06,69.75 1215.00,78.00
             1215.00,78.00 1221.21,68.02 1221.21,68.02
             1221.21,68.02 1232.00,67.00 1232.00,67.00
             1232.00,67.00 1256.00,67.00 1256.00,67.00
             1256.00,67.00 1372.00,67.00 1372.00,67.00
             1372.00,67.00 1380.73,68.60 1380.73,68.60
             1380.73,68.60 1384.81,76.00 1384.81,76.00
             1384.81,76.00 1391.00,93.00 1391.00,93.00
             1391.00,93.00 1398.20,76.00 1398.20,76.00
             1399.34,73.20 1400.47,69.80 1403.21,68.17
             1405.57,66.78 1409.31,67.00 1412.00,67.00
             1412.00,67.00 1501.00,67.00 1501.00,67.00
             1503.41,67.00 1506.74,66.80 1508.87,68.02
             1512.71,70.22 1515.99,80.70 1517.00,85.00
             1518.92,80.92 1522.61,70.03 1526.13,68.02
             1528.26,66.80 1531.59,67.00 1534.00,67.00
             1534.00,67.00 1578.00,67.00 1578.00,67.00
             1583.88,67.04 1585.90,67.05 1588.00,73.00
             1592.81,64.97 1597.40,67.00 1606.00,67.00
             1606.00,67.00 1649.00,67.00 1649.00,67.00
             1658.74,67.14 1659.99,73.42 1662.00,82.00
             1667.90,69.47 1666.53,67.13 1676.00,67.00
             1676.00,67.00 1702.00,67.00 1702.00,67.00
             1704.99,67.00 1711.36,66.58 1713.79,68.02
             1717.38,70.15 1720.06,79.01 1721.00,83.00
             1725.42,73.61 1725.32,67.18 1735.00,67.00
             1735.00,67.00 1760.00,67.00 1760.00,67.00
             1762.54,67.01 1766.48,66.68 1768.40,68.60
             1770.04,70.23 1769.96,72.86 1770.00,75.00
             1770.00,75.00 1770.00,91.00 1770.00,91.00
             1770.00,91.00 1770.00,168.00 1770.00,168.00
             1770.00,168.00 1770.00,384.00 1770.00,384.00
             1770.00,384.00 1770.00,492.00 1770.00,492.00
             1769.81,501.91 1765.67,500.00 1749.00,500.00
             1749.00,500.00 1718.00,500.00 1718.00,500.00
             1714.88,500.00 1707.70,500.45 1705.21,498.98
             1702.11,497.14 1700.32,491.30 1699.00,488.00
             1699.00,488.00 1692.78,498.83 1692.78,498.83
             1692.78,498.83 1677.00,500.00 1677.00,500.00
             1677.00,500.00 1639.00,500.00 1639.00,500.00
             1639.00,500.00 1630.50,498.26 1630.50,498.26
             1630.50,498.26 1625.80,489.00 1625.80,489.00
             1625.80,489.00 1617.00,468.00 1617.00,468.00
             1617.00,468.00 1608.42,490.00 1608.42,490.00
             1607.35,492.81 1606.23,497.14 1603.61,498.83
             1601.42,500.24 1597.56,500.00 1595.00,500.00
             1595.00,500.00 1530.00,500.00 1530.00,500.00
             1523.16,499.99 1521.19,500.59 1518.00,494.00
             1512.59,502.35 1507.24,500.00 1498.00,500.00
             1498.00,500.00 1448.00,500.00 1448.00,500.00
             1436.61,499.98 1438.34,497.47 1433.00,486.00
             1427.90,498.82 1429.38,499.98 1418.00,500.00
             1418.00,500.00 1365.00,500.00 1365.00,500.00
             1356.49,499.94 1356.47,498.31 1353.00,491.00
             1353.00,491.00 1348.59,498.83 1348.59,498.83
             1348.59,498.83 1340.00,500.00 1340.00,500.00
             1340.00,500.00 1315.00,500.00 1315.00,500.00
             1315.00,500.00 1204.00,500.00 1204.00,500.00
             1204.00,500.00 1195.39,498.83 1195.39,498.83
             1195.39,498.83 1190.00,489.00 1190.00,489.00
             1190.00,489.00 1180.00,465.00 1180.00,465.00
             1180.00,465.00 1171.05,488.00 1171.05,488.00
             1171.05,488.00 1165.73,498.40 1165.73,498.40
             1165.73,498.40 1157.00,500.00 1157.00,500.00
             1157.00,500.00 1092.00,500.00 1092.00,500.00
             1092.00,500.00 1069.18,499.28 1069.18,499.28
             1069.18,499.28 1066.00,497.00 1066.00,497.00
             1066.00,497.00 1061.96,499.79 1061.96,499.79
             1061.96,499.79 1034.00,499.79 1034.00,499.79
             1034.00,499.79 1027.39,498.40 1027.39,498.40
             1027.39,498.40 1021.00,486.00 1021.00,486.00
             1015.90,498.82 1017.38,499.98 1006.00,500.00
             1006.00,500.00 954.00,500.00 954.00,500.00
             954.00,500.00 936.00,498.00 936.00,498.00
             936.00,498.00 909.00,498.00 909.00,498.00
             906.94,498.00 903.38,498.26 901.70,497.01
             900.06,495.79 898.77,491.92 898.00,490.00
             898.00,490.00 892.00,474.00 892.00,474.00
             892.00,474.00 885.00,490.00 885.00,490.00
             884.23,491.92 882.94,495.79 881.30,497.01
             879.62,498.26 876.06,498.00 874.00,498.00
             874.00,498.00 822.00,498.00 822.00,498.00
             813.44,497.84 812.04,493.55 810.00,486.00
             805.23,495.20 806.34,497.98 795.00,498.00
             795.00,498.00 740.00,498.00 740.00,498.00
             731.58,497.95 731.17,495.04 729.00,487.00
             729.00,487.00 722.79,496.98 722.79,496.98
             722.79,496.98 712.00,498.00 712.00,498.00
             712.00,498.00 687.00,498.00 687.00,498.00
             687.00,498.00 571.00,498.00 571.00,498.00
             571.00,498.00 563.51,496.98 563.51,496.98
             563.51,496.98 559.80,490.00 559.80,490.00
             559.80,490.00 553.00,472.00 553.00,472.00
             553.00,472.00 545.60,489.00 545.60,489.00
             544.72,491.20 543.25,495.65 541.35,497.01
             539.61,498.25 536.10,498.00 534.00,498.00
             534.00,498.00 443.00,498.00 443.00,498.00
             441.06,498.00 437.86,498.12 436.10,497.40
             431.67,495.59 428.21,484.50 427.00,480.00
             425.30,483.28 420.70,495.47 418.50,496.98
             416.68,498.23 413.17,498.00 411.00,498.00
             411.00,498.00 365.00,498.00 365.00,498.00
             359.07,497.96 357.82,497.99 356.00,492.00
             352.02,499.05 352.60,498.00 338.00,498.00
             338.00,498.00 296.00,498.00 296.00,498.00
             285.68,497.93 284.45,492.07 282.00,483.00
             275.27,495.97 277.95,497.93 268.00,498.00
             268.00,498.00 237.00,498.00 237.00,498.00
             234.90,498.00 231.39,498.25 229.65,497.01
             227.22,495.28 223.84,485.13 223.00,482.00
             223.00,482.00 215.35,497.01 215.35,497.01
             215.35,497.01 204.00,498.00 204.00,498.00
             204.00,498.00 175.00,498.00 175.00,498.00
             175.00,498.00 175.00,67.00 175.00,67.00
             175.00,67.00 234.00,67.00 234.00,67.00
             241.08,67.12 240.62,68.68 245.00,79.00 Z" />
</svg>
