<?xml version="1.0" encoding="UTF-8" standalone="no"?>
<!DOCTYPE svg PUBLIC "-//W3C//DTD SVG 20010904//EN"
              "http://www.w3.org/TR/2001/REC-SVG-20010904/DTD/svg10.dtd">

<svg xmlns="http://www.w3.org/2000/svg"
     width="266.714mm" height="26.8125mm"
     viewBox="0 0 1512 152">
  <path id="Selection"
        fill="#ffc300" stroke="#880000" stroke-width="4px"
        d="M 115.00,13.00
           C 115.00,13.00 108.00,29.00 108.00,29.00
             123.50,34.02 115.82,38.83 129.00,39.00
             127.66,32.80 119.15,17.51 115.00,13.00 Z
           M 291.00,13.00
           C 291.00,13.00 284.00,29.00 284.00,29.00
             299.50,34.02 291.82,38.83 305.00,39.00
             303.66,32.80 295.15,17.51 291.00,13.00 Z
           M 224.00,107.00
           C 224.00,107.00 226.00,107.00 226.00,107.00
             226.00,107.00 233.85,84.00 233.85,84.00
             234.27,82.18 233.87,81.62 233.85,80.00
             233.19,74.54 235.63,74.58 236.69,70.00
             236.69,70.00 237.26,63.00 237.26,63.00
             237.26,63.00 241.51,45.00 241.51,45.00
             243.97,33.94 248.95,28.82 249.00,16.00
             245.15,16.81 240.36,18.09 237.97,21.52
             236.75,23.27 236.84,25.59 234.69,27.41
             231.81,29.83 226.13,28.99 223.99,31.72
             222.66,33.43 223.42,35.67 222.04,39.00
             222.04,39.00 219.58,44.00 219.58,44.00
             219.58,44.00 216.99,63.00 216.99,63.00
             216.44,66.39 215.02,69.53 215.64,73.00
             217.19,81.73 221.98,85.17 222.64,89.00
             223.09,91.65 221.82,93.82 221.71,96.00
             221.62,97.87 223.39,104.92 224.00,107.00 Z
           M 1081.00,19.00
           C 1078.39,27.40 1077.08,41.03 1076.72,50.00
             1076.72,50.00 1076.72,59.00 1076.72,59.00
             1076.72,63.86 1075.12,64.09 1075.00,71.00
             1074.88,78.48 1075.56,85.96 1085.00,86.85
             1095.75,87.86 1095.69,79.98 1101.00,77.00
             1102.97,83.11 1111.83,100.68 1115.37,105.91
             1115.37,105.91 1122.93,115.99 1122.93,115.99
             1122.93,115.99 1128.02,123.16 1128.02,123.16
             1130.12,127.19 1128.06,128.50 1133.00,131.00
             1135.02,125.17 1136.55,122.05 1143.00,121.00
             1143.00,121.00 1144.88,113.00 1144.88,113.00
             1144.88,113.00 1144.88,102.00 1144.88,102.00
             1142.03,100.42 1138.57,98.75 1136.60,95.91
             1134.03,92.21 1135.66,86.53 1130.82,83.90
             1129.10,83.27 1127.26,83.77 1126.29,83.90
             1120.33,83.06 1116.21,68.24 1113.49,63.00
             1113.49,63.00 1104.62,48.00 1104.62,48.00
             1104.62,48.00 1098.31,39.00 1098.31,39.00
             1096.22,34.84 1097.64,31.45 1093.94,27.29
             1091.70,24.77 1090.05,25.33 1087.16,23.50
             1087.16,23.50 1081.00,19.00 1081.00,19.00 Z
           M 1431.00,19.00
           C 1428.39,27.40 1427.08,41.03 1426.72,50.00
             1426.72,50.00 1426.72,59.00 1426.72,59.00
             1426.72,63.86 1425.12,64.09 1425.00,71.00
             1424.88,78.48 1425.56,85.96 1435.00,86.85
             1445.75,87.86 1445.69,79.98 1451.00,77.00
             1452.97,83.11 1461.83,100.68 1465.37,105.91
             1465.37,105.91 1472.93,115.99 1472.93,115.99
             1472.93,115.99 1478.02,123.16 1478.02,123.16
             1480.12,127.19 1478.06,128.50 1483.00,131.00
             1485.02,125.17 1486.55,122.05 1493.00,121.00
             1493.00,121.00 1494.88,113.00 1494.88,113.00
             1494.88,113.00 1494.88,102.00 1494.88,102.00
             1492.03,100.42 1488.57,98.75 1486.60,95.91
             1484.03,92.21 1485.66,86.53 1480.82,83.90
             1479.10,83.27 1477.26,83.77 1476.29,83.90
             1470.33,83.06 1466.21,68.24 1463.49,63.00
             1463.49,63.00 1454.62,48.00 1454.62,48.00
             1454.62,48.00 1448.31,39.00 1448.31,39.00
             1446.22,34.84 1447.64,31.45 1443.94,27.29
             1441.70,24.77 1440.05,25.33 1437.16,23.50
             1437.16,23.50 1431.00,19.00 1431.00,19.00 Z
           M 225.00,23.00
           C 225.00,23.00 225.00,25.00 225.00,25.00
             225.00,25.00 230.00,24.00 230.00,24.00
             230.00,24.00 225.00,23.00 225.00,23.00 Z
           M 995.00,24.00
           C 995.00,24.00 1002.00,26.00 1002.00,26.00
             1002.00,26.00 995.00,24.00 995.00,24.00 Z
           M 767.00,33.00
           C 767.00,33.00 763.13,48.09 763.13,48.09
             763.13,48.09 765.00,57.00 765.00,57.00
             785.59,55.32 778.79,48.65 795.00,49.01
             795.00,49.01 803.00,49.66 803.00,49.66
             803.00,49.66 828.00,47.97 828.00,47.97
             833.47,46.54 836.22,46.32 839.00,41.00
             831.97,35.67 833.93,32.74 834.00,25.00
             834.00,25.00 808.00,29.00 808.00,29.00
             808.00,29.00 788.00,29.81 788.00,29.81
             788.00,29.81 782.00,31.64 782.00,31.64
             782.00,31.64 776.00,31.64 776.00,31.64
             776.00,31.64 767.00,33.00 767.00,33.00 Z
           M 1137.00,30.00
           C 1141.69,30.74 1146.61,29.36 1150.00,26.00
             1144.66,24.85 1141.29,26.95 1137.00,30.00 Z
           M 1487.00,30.00
           C 1491.69,30.74 1496.61,29.36 1500.00,26.00
             1494.66,24.85 1491.29,26.95 1487.00,30.00 Z
           M 57.00,26.00
           C 59.25,27.94 59.22,28.22 62.00,27.00
             62.00,27.00 57.00,26.00 57.00,26.00 Z
           M 993.00,29.00
           C 992.68,32.75 992.28,35.68 990.32,39.00
             988.61,41.88 985.76,44.51 985.33,47.98
             984.66,53.37 989.53,52.42 989.73,58.02
             990.06,67.44 987.33,73.46 987.42,79.00
             987.55,86.16 995.34,103.51 1002.01,106.67
             1004.50,107.85 1011.61,107.23 1016.00,108.00
             1016.00,108.00 1025.00,93.00 1025.00,93.00
             1022.24,92.41 1017.42,91.13 1015.06,89.70
             1009.14,86.15 1009.51,71.77 1011.68,66.00
             1012.72,63.21 1014.76,59.94 1015.19,57.00
             1015.73,53.31 1014.02,51.78 1014.51,49.00
             1014.58,46.71 1020.11,37.80 1014.51,32.28
             1009.14,27.02 1005.61,32.53 1002.09,32.28
             998.62,31.67 999.79,28.87 993.00,29.00 Z
           M 217.00,89.00
           C 208.59,83.93 209.34,78.51 206.33,70.00
             206.33,70.00 193.00,35.00 193.00,35.00
             193.00,35.00 186.00,32.85 186.00,32.85
             183.26,32.28 181.96,33.11 179.00,32.00
             175.86,30.82 171.86,27.29 168.47,30.60
             166.54,32.70 167.60,35.60 168.47,38.00
             170.69,45.51 171.39,46.30 174.97,53.00
             174.97,53.00 182.87,67.68 182.87,67.68
             185.39,70.92 188.44,71.53 191.43,78.00
             194.25,84.07 193.75,91.35 197.53,97.00
             200.32,101.17 202.59,104.97 208.00,104.97
             209.45,104.97 211.20,104.87 212.43,104.01
             216.10,101.44 213.72,96.76 217.00,89.00 Z
           M 519.77,37.00
           C 519.77,37.00 519.77,44.00 519.77,44.00
             519.77,44.00 520.63,49.00 520.63,49.00
             520.63,49.00 526.55,76.00 526.55,76.00
             526.55,76.00 528.13,90.00 528.13,90.00
             528.77,94.62 528.60,105.29 532.50,107.98
             537.20,111.22 549.93,106.58 555.00,105.00
             555.00,105.00 551.66,94.00 551.66,94.00
             551.66,94.00 547.73,83.00 547.73,83.00
             547.73,83.00 546.70,78.13 546.70,78.13
             545.50,74.34 542.51,74.25 542.36,70.95
             542.24,68.36 544.65,66.24 544.94,61.00
             545.30,54.64 542.01,52.51 544.04,49.31
             546.22,45.86 550.00,48.13 553.00,48.29
             556.46,48.48 559.36,46.14 562.26,50.15
             563.04,51.23 563.56,52.65 563.46,53.99
             563.14,58.54 557.42,60.27 555.19,61.89
             551.89,64.29 550.94,67.24 550.00,71.00
             550.00,71.00 553.00,77.00 553.00,77.00
             564.59,81.55 567.40,97.04 580.00,103.00
             583.22,91.61 576.01,91.94 575.40,85.00
             575.11,81.69 577.67,78.25 578.66,75.00
             579.74,71.45 578.96,69.41 580.09,67.18
             580.09,67.18 590.13,56.58 590.13,56.58
             591.97,55.31 592.94,55.33 595.00,55.00
             595.00,55.00 595.00,50.00 595.00,50.00
             587.73,49.84 590.39,46.05 586.27,40.29
             583.01,35.73 578.43,32.77 573.00,31.45
             573.00,31.45 563.00,29.56 563.00,29.56
             558.40,28.96 556.38,31.34 552.00,32.27
             552.00,32.27 541.00,33.37 541.00,33.37
             531.95,35.08 530.10,36.99 519.77,37.00 Z
           M 639.00,35.00
           C 639.00,35.00 650.00,35.00 650.00,35.00
             650.00,35.00 647.00,29.00 647.00,29.00
             643.11,30.49 641.18,31.34 639.00,35.00 Z
           M 1183.00,29.00
           C 1183.31,32.63 1183.17,32.68 1186.00,35.00
             1179.89,38.39 1171.10,44.17 1166.85,49.73
             1163.92,53.56 1164.04,56.01 1162.47,60.00
             1162.47,60.00 1159.63,66.00 1159.63,66.00
             1158.08,71.14 1159.46,80.71 1160.39,86.00
             1161.73,93.67 1160.16,96.30 1166.32,102.82
             1174.55,111.51 1186.18,112.06 1197.00,114.00
             1197.82,111.37 1199.29,107.92 1198.69,105.17
             1197.16,98.13 1184.13,94.37 1182.57,83.00
             1181.58,75.84 1184.29,63.42 1189.44,58.15
             1193.86,53.62 1197.09,55.95 1198.30,52.69
             1198.30,52.69 1198.30,47.00 1198.30,47.00
             1198.76,42.83 1202.41,37.78 1198.30,35.88
             1195.38,34.41 1193.16,37.71 1186.00,37.00
             1186.00,37.00 1191.00,29.00 1191.00,29.00
             1191.00,29.00 1183.00,29.00 1183.00,29.00 Z
           M 1265.00,41.00
           C 1264.22,51.87 1257.73,52.28 1249.00,55.00
             1249.10,63.23 1251.02,64.21 1252.34,71.00
             1252.34,71.00 1252.34,79.00 1252.34,79.00
             1254.23,86.51 1257.26,89.92 1253.00,98.00
             1254.53,101.58 1255.58,109.05 1260.09,109.46
             1263.43,109.77 1267.01,105.84 1270.82,107.54
             1273.77,108.85 1272.89,111.85 1274.09,113.20
             1276.04,115.90 1280.57,113.75 1283.00,113.20
             1283.00,108.91 1283.29,105.81 1281.39,102.00
             1279.15,97.50 1275.58,95.24 1274.66,91.00
             1274.11,88.49 1274.83,78.38 1276.60,76.60
             1278.08,75.11 1281.89,74.68 1284.00,74.14
             1284.00,74.14 1309.00,71.00 1309.00,71.00
             1309.00,71.00 1307.00,57.00 1307.00,57.00
             1307.00,57.00 1292.00,58.94 1292.00,58.94
             1292.00,58.94 1285.00,58.94 1285.00,58.94
             1285.00,58.94 1273.00,60.00 1273.00,60.00
             1273.39,58.16 1273.72,53.81 1274.76,52.60
             1276.08,51.07 1279.06,50.91 1280.96,50.25
             1280.96,50.25 1286.28,47.65 1286.28,47.65
             1286.28,47.65 1297.00,47.65 1297.00,47.65
             1300.33,47.00 1305.93,47.40 1308.01,44.43
             1310.50,40.87 1307.70,32.95 1307.00,29.00
             1298.14,29.03 1297.43,30.73 1294.00,30.75
             1288.98,30.78 1289.09,28.40 1281.04,31.60
             1274.35,34.25 1275.04,38.73 1265.00,41.00 Z
           M 47.00,87.00
           C 50.02,87.00 54.25,86.60 56.70,88.60
             62.15,93.05 56.26,98.19 67.00,100.00
             67.00,100.00 70.72,90.00 70.72,90.00
             70.72,90.00 69.71,81.00 69.71,81.00
             69.71,81.00 70.89,74.00 70.89,74.00
             70.89,74.00 68.98,65.00 68.98,65.00
             68.98,65.00 68.98,57.00 68.98,57.00
             68.98,57.00 67.30,45.00 67.30,45.00
             67.30,45.00 69.00,35.00 69.00,35.00
             63.12,35.00 56.22,36.71 53.00,31.00
             48.74,31.05 43.62,31.21 41.96,36.09
             40.60,40.08 44.32,44.55 45.06,49.04
             45.06,49.04 45.06,57.00 45.06,57.00
             46.14,62.40 46.95,60.93 47.00,68.00
             47.00,68.00 47.00,87.00 47.00,87.00 Z
           M 441.00,46.00
           C 446.71,60.18 455.55,51.89 466.00,53.13
             474.04,54.08 475.85,59.82 480.09,60.63
             483.97,61.38 492.84,56.42 497.00,55.00
             496.94,53.32 496.99,51.61 496.40,50.00
             494.98,46.15 485.68,37.09 481.99,34.75
             480.13,33.57 476.57,31.46 474.32,31.74
             471.75,32.06 468.71,36.37 464.00,38.16
             459.88,39.73 455.40,38.36 452.28,39.56
             450.40,40.28 447.93,43.06 441.00,46.00 Z
           M 687.00,31.00
           C 687.00,31.00 683.58,52.00 683.58,52.00
             683.58,52.00 684.33,75.00 684.33,75.00
             683.79,83.17 678.57,93.81 682.56,101.77
             684.29,105.22 687.61,104.51 689.35,106.58
             692.34,110.15 683.46,118.79 692.02,118.48
             693.11,118.44 695.89,117.61 697.00,117.23
             707.40,113.64 703.99,105.34 704.13,99.00
             704.13,99.00 704.13,92.00 704.13,92.00
             704.13,92.00 704.13,87.00 704.13,87.00
             704.13,87.00 704.13,80.01 704.13,80.01
             704.13,80.01 704.13,75.44 704.13,75.44
             704.81,71.65 708.37,70.17 708.26,66.82
             708.56,64.77 705.40,57.25 708.26,53.31
             711.77,47.69 726.80,53.80 723.96,60.83
             723.57,61.80 717.65,69.61 716.74,70.45
             714.87,72.18 712.28,73.13 711.15,75.26
             710.63,76.73 710.92,78.45 711.15,80.00
             711.15,80.00 718.00,76.76 718.00,76.76
             728.27,83.71 728.58,79.11 738.00,76.76
             740.80,75.74 744.23,77.26 746.36,74.67
             748.48,72.09 746.67,68.85 747.28,65.00
             748.37,57.99 752.86,56.53 753.00,45.00
             753.00,45.00 750.00,49.00 750.00,49.00
             750.00,49.00 748.00,49.00 748.00,49.00
             747.24,47.12 746.78,45.75 745.49,44.09
             743.09,41.00 732.81,34.37 729.00,33.73
             729.00,33.73 723.00,33.73 723.00,33.73
             723.00,33.73 715.00,33.00 715.00,33.00
             715.00,33.00 700.00,33.00 700.00,33.00
             692.38,32.99 693.80,32.45 687.00,31.00 Z
           M 371.00,76.00
           C 371.00,76.00 362.82,80.37 362.82,80.37
             362.82,80.37 352.00,77.00 352.00,77.00
             349.68,85.17 352.06,94.45 357.52,100.95
             364.55,109.31 372.49,105.03 368.00,113.00
             374.69,120.83 375.03,113.41 380.09,111.02
             383.83,109.30 391.13,109.84 395.00,111.02
             395.00,111.02 397.00,99.00 397.00,99.00
             390.50,98.48 392.00,97.37 387.00,95.56
             383.86,94.42 381.51,94.78 378.13,92.23
             373.25,88.56 371.33,80.64 373.00,75.00
             373.00,75.00 390.77,81.15 390.77,81.15
             390.77,81.15 394.64,90.69 394.64,90.69
             394.64,90.69 401.98,95.31 401.98,95.31
             401.98,95.31 403.00,113.00 403.00,113.00
             406.76,111.31 414.06,106.61 415.98,102.96
             417.41,100.24 416.77,96.99 417.26,94.00
             417.64,91.64 418.75,89.42 418.75,87.00
             418.74,82.88 413.69,70.10 410.45,67.57
             405.15,63.43 387.89,59.95 381.05,54.45
             378.58,52.46 377.46,50.68 375.89,48.00
             371.46,40.41 372.51,37.43 380.00,33.00
             369.71,30.14 353.31,44.64 359.42,60.96
             361.42,66.32 366.47,68.32 371.00,76.00 Z
           M 1217.00,32.00
           C 1217.00,32.00 1218.00,38.00 1218.00,38.00
             1218.00,38.00 1209.26,39.11 1209.26,39.11
             1207.74,39.91 1206.75,41.59 1205.89,43.02
             1204.80,44.83 1203.63,46.81 1203.75,49.00
             1203.92,52.31 1210.54,62.37 1213.26,63.98
             1216.98,66.19 1222.13,63.37 1227.00,63.04
             1232.12,62.69 1237.94,62.40 1238.85,55.99
             1240.15,46.77 1233.91,51.76 1227.26,43.98
             1222.12,37.97 1225.25,36.18 1217.00,32.00 Z
           M 1363.00,35.00
           C 1365.24,42.28 1365.33,43.03 1359.00,48.00
             1365.46,54.76 1367.31,48.54 1375.98,53.34
             1385.45,58.59 1385.67,74.71 1384.00,84.00
             1384.00,84.00 1393.42,88.58 1393.42,88.58
             1393.42,88.58 1398.00,100.00 1398.00,100.00
             1402.04,97.94 1402.31,97.12 1404.00,93.00
             1404.00,93.00 1409.00,95.00 1409.00,95.00
             1409.00,95.00 1410.69,85.00 1410.69,85.00
             1410.69,85.00 1407.40,76.00 1407.40,76.00
             1407.40,76.00 1408.48,69.00 1408.48,69.00
             1408.48,69.00 1406.00,59.00 1406.00,59.00
             1400.53,57.38 1396.71,52.60 1395.51,47.00
             1394.95,44.42 1395.91,41.57 1394.31,39.26
             1392.04,35.97 1387.61,35.36 1384.00,34.85
             1380.38,34.33 1376.64,33.01 1373.00,33.09
             1373.00,33.09 1363.00,35.00 1363.00,35.00 Z
           M 379.00,43.00
           C 379.00,43.00 386.00,46.68 386.00,46.68
             393.22,50.36 394.50,50.14 398.00,58.00
             407.29,56.37 404.04,58.10 411.00,58.94
             411.00,58.94 419.00,58.94 419.00,58.94
             418.12,46.10 404.67,30.67 391.00,34.61
             389.08,35.16 387.69,36.21 386.00,37.19
             382.34,39.30 381.15,39.14 379.00,43.00 Z
           M 105.00,35.00
           C 105.00,35.00 99.55,52.89 99.55,52.89
             99.55,52.89 101.00,56.00 101.00,56.00
             93.83,64.44 96.13,66.54 94.27,73.00
             94.27,73.00 87.41,92.00 87.41,92.00
             87.41,92.00 87.41,98.00 87.41,98.00
             86.81,101.06 83.21,108.21 83.85,110.70
             84.56,113.41 88.38,113.23 90.60,115.51
             93.15,118.13 90.72,119.15 96.00,127.00
             103.16,124.01 101.68,121.20 103.76,115.00
             103.76,115.00 106.57,108.00 106.57,108.00
             107.35,105.47 107.58,102.50 109.65,100.60
             114.00,96.60 127.05,102.50 126.62,93.91
             126.45,90.45 123.59,84.94 120.81,82.89
             118.31,81.03 115.32,80.90 114.07,78.69
             113.08,76.93 114.65,70.15 115.30,68.09
             117.38,61.44 127.14,61.84 128.82,61.25
             131.05,60.47 132.85,57.98 134.01,56.00
             134.94,54.40 135.68,52.92 135.43,51.00
             134.33,42.75 123.99,46.01 120.13,44.40
             117.03,43.11 116.01,39.90 115.00,37.00
             115.00,37.00 105.00,35.00 105.00,35.00 Z
           M 281.00,35.00
           C 281.00,35.00 275.55,52.89 275.55,52.89
             275.55,52.89 277.00,56.00 277.00,56.00
             269.83,64.44 272.13,66.54 270.27,73.00
             270.27,73.00 263.41,92.00 263.41,92.00
             263.41,92.00 263.41,98.00 263.41,98.00
             262.81,101.06 259.21,108.21 259.85,110.70
             260.56,113.41 264.38,113.23 266.60,115.51
             269.15,118.13 266.72,119.15 272.00,127.00
             279.16,124.01 277.68,121.20 279.76,115.00
             279.76,115.00 282.57,108.00 282.57,108.00
             283.35,105.47 283.58,102.50 285.65,100.60
             290.00,96.60 303.05,102.50 302.62,93.91
             302.45,90.45 299.59,84.94 296.81,82.89
             294.31,81.03 291.32,80.90 290.07,78.69
             289.08,76.93 290.65,70.15 291.30,68.09
             293.38,61.44 303.14,61.84 304.82,61.25
             307.05,60.47 308.85,57.98 310.01,56.00
             310.94,54.40 311.68,52.92 311.43,51.00
             310.33,42.75 299.99,46.01 296.13,44.40
             293.03,43.11 292.01,39.90 291.00,37.00
             291.00,37.00 281.00,35.00 281.00,35.00 Z
           M 897.00,109.09
           C 903.96,108.81 907.72,108.30 915.00,109.09
             915.00,109.09 922.00,110.68 922.00,110.68
             929.28,111.86 937.02,111.16 944.00,109.05
             952.05,106.61 957.53,105.66 961.00,97.00
             953.34,94.29 954.16,98.16 949.00,97.77
             944.89,97.46 941.39,94.02 939.00,91.00
             935.27,91.79 927.83,94.49 924.40,91.98
             922.38,90.49 922.99,88.14 922.80,86.00
             922.54,82.89 921.23,80.68 921.60,78.00
             921.60,78.00 923.98,71.00 923.98,71.00
             923.98,71.00 923.00,61.00 923.00,61.00
             922.83,50.29 923.78,53.39 924.73,46.00
             925.18,42.45 923.47,38.70 923.00,35.00
             923.00,35.00 915.91,36.48 915.91,36.48
             912.33,36.50 902.39,31.68 901.01,39.06
             901.01,39.06 901.01,44.00 901.01,44.00
             901.01,44.00 901.01,65.00 901.01,65.00
             900.52,69.12 898.87,71.61 899.07,76.00
             899.36,82.39 903.36,83.70 902.85,90.00
             902.85,90.00 897.00,109.09 897.00,109.09 Z
           M 1022.00,111.00
           C 1030.29,111.00 1028.57,110.72 1036.00,109.54
             1038.57,109.13 1040.80,109.78 1042.70,108.74
             1046.91,106.44 1044.42,102.39 1053.00,101.00
             1053.00,101.00 1058.69,76.00 1058.69,76.00
             1058.69,76.00 1058.69,69.00 1058.69,69.00
             1058.69,69.00 1061.10,63.00 1061.10,63.00
             1061.10,63.00 1061.10,53.00 1061.10,53.00
             1061.10,53.00 1063.00,43.00 1063.00,43.00
             1059.76,42.67 1056.00,41.97 1053.26,40.08
             1050.75,38.36 1050.27,36.15 1046.95,35.32
             1043.53,34.46 1039.79,35.20 1039.07,39.11
             1039.07,39.11 1039.07,45.00 1039.07,45.00
             1038.98,55.42 1037.97,52.43 1036.96,59.00
             1036.96,59.00 1036.96,71.00 1036.96,71.00
             1036.96,71.00 1034.71,78.00 1034.71,78.00
             1034.15,80.81 1034.90,82.54 1034.71,85.00
             1034.71,85.00 1032.40,96.94 1032.40,96.94
             1030.67,101.19 1027.05,100.52 1024.53,102.89
             1022.37,104.92 1022.23,108.24 1022.00,111.00 Z
           M 1256.00,47.00
           C 1256.00,47.00 1262.00,35.00 1262.00,35.00
             1259.88,35.17 1249.46,35.36 1248.62,36.04
             1246.17,37.99 1248.59,43.34 1250.52,44.92
             1252.08,46.19 1254.11,46.54 1256.00,47.00 Z
           M 1144.00,91.00
           C 1144.00,91.00 1146.86,73.00 1146.86,73.00
             1146.86,73.00 1146.22,66.42 1146.22,66.42
             1146.22,66.42 1146.95,60.99 1146.95,60.99
             1146.95,60.99 1146.95,51.00 1146.95,51.00
             1146.95,51.00 1149.00,36.00 1149.00,36.00
             1142.52,36.30 1132.42,36.93 1127.31,41.13
             1124.93,43.09 1124.84,46.18 1124.15,49.00
             1122.80,54.50 1122.91,70.21 1126.01,74.69
             1128.12,77.73 1131.58,76.37 1135.86,80.34
             1140.83,84.95 1138.27,88.79 1144.00,91.00 Z
           M 1494.00,91.00
           C 1494.00,91.00 1496.86,73.00 1496.86,73.00
             1496.86,73.00 1496.22,66.42 1496.22,66.42
             1496.22,66.42 1496.95,60.99 1496.95,60.99
             1496.95,60.99 1496.95,51.00 1496.95,51.00
             1496.95,51.00 1499.00,36.00 1499.00,36.00
             1492.52,36.30 1482.42,36.93 1477.31,41.13
             1474.93,43.09 1474.84,46.18 1474.15,49.00
             1472.80,54.50 1472.91,70.21 1476.01,74.69
             1478.12,77.73 1481.58,76.37 1485.86,80.34
             1490.83,84.95 1488.27,88.79 1494.00,91.00 Z
           M 929.00,53.00
           C 933.47,54.53 940.58,57.33 942.40,62.02
             942.40,62.02 943.45,68.00 943.45,68.00
             943.91,70.08 944.75,71.79 944.75,74.00
             944.75,77.70 940.53,85.18 945.31,89.08
             949.42,92.48 953.60,89.62 958.00,89.08
             958.00,89.08 965.00,89.08 965.00,89.08
             965.00,89.08 968.00,59.00 968.00,59.00
             968.00,59.00 970.00,59.00 970.00,59.00
             970.00,59.00 973.00,62.00 973.00,62.00
             972.94,57.31 973.11,53.97 969.00,51.00
             968.68,52.90 968.19,56.63 965.20,55.09
             963.58,54.25 961.68,50.62 960.45,49.04
             959.28,47.53 954.29,42.42 952.83,41.28
             950.38,39.36 940.24,36.64 937.19,37.33
             932.97,38.29 929.51,49.10 929.00,53.00 Z
           M 1113.00,40.00
           C 1113.00,40.00 1116.00,45.00 1116.00,45.00
             1116.00,45.00 1118.00,45.00 1118.00,45.00
             1118.00,45.00 1121.00,37.00 1121.00,37.00
             1121.00,37.00 1113.00,40.00 1113.00,40.00 Z
           M 1231.00,37.00
           C 1233.69,40.15 1233.91,40.33 1238.00,41.00
             1238.00,41.00 1231.00,37.00 1231.00,37.00 Z
           M 1351.98,37.86
           C 1348.95,38.65 1345.68,39.46 1343.26,41.57
             1340.40,44.06 1332.14,59.26 1331.65,63.00
             1331.33,65.48 1332.66,69.03 1332.91,72.00
             1333.56,79.91 1334.87,88.73 1339.03,95.72
             1344.77,105.37 1361.04,112.11 1372.00,110.87
             1373.81,110.67 1388.52,106.86 1389.40,106.07
             1392.53,103.24 1389.78,94.00 1386.70,92.02
             1381.93,88.96 1375.90,92.39 1371.00,92.62
             1365.06,92.89 1360.83,87.59 1358.15,83.00
             1353.84,75.63 1355.64,74.71 1354.74,69.00
             1354.41,66.86 1353.57,65.22 1353.78,63.00
             1353.78,63.00 1355.11,57.00 1355.11,57.00
             1355.23,53.85 1353.72,50.82 1353.60,49.00
             1353.30,44.54 1360.45,38.16 1351.98,37.86 Z
           M 1463.00,40.00
           C 1463.00,40.00 1466.00,45.00 1466.00,45.00
             1466.00,45.00 1468.00,45.00 1468.00,45.00
             1468.00,45.00 1471.00,37.00 1471.00,37.00
             1471.00,37.00 1463.00,40.00 1463.00,40.00 Z
           M 137.00,38.00
           C 137.00,38.00 141.00,45.00 141.00,45.00
             141.00,45.00 137.00,38.00 137.00,38.00 Z
           M 313.00,38.00
           C 313.00,38.00 317.00,45.00 317.00,45.00
             317.00,45.00 313.00,38.00 313.00,38.00 Z
           M 634.60,40.07
           C 631.50,44.25 633.63,51.82 632.75,57.00
             632.45,58.93 631.28,61.70 632.75,63.39
             634.96,66.00 646.32,63.06 648.96,61.50
             656.60,56.97 654.63,54.37 655.48,49.17
             655.96,46.85 657.50,45.01 655.48,42.86
             651.72,39.07 645.37,40.80 642.00,40.58
             638.43,40.33 638.45,38.99 634.60,40.07 Z
           M 248.00,45.00
           C 248.00,45.00 247.00,52.00 247.00,52.00
             249.07,49.18 249.25,48.29 248.00,45.00 Z
           M 625.00,45.00
           C 625.00,45.00 623.00,55.00 623.00,55.00
             627.30,52.33 626.94,49.66 627.00,45.00
             627.00,45.00 625.00,45.00 625.00,45.00 Z
           M 482.00,113.22
           C 481.24,104.02 479.97,104.07 473.00,99.55
             473.00,99.55 466.00,94.38 466.00,94.38
             464.48,93.32 461.53,91.69 460.40,90.45
             458.51,88.37 458.70,85.56 457.91,83.00
             455.19,74.14 453.03,70.41 457.00,61.00
             447.50,61.53 445.20,61.51 439.00,53.00
             437.62,53.78 437.00,53.78 436.02,55.29
             434.84,57.10 431.20,69.87 431.51,72.00
             432.49,78.78 432.87,77.02 433.00,85.00
             433.14,92.89 435.67,94.25 440.20,100.09
             445.30,106.67 450.77,113.82 460.00,114.65
             463.41,114.96 465.82,113.30 469.00,113.22
             475.23,113.71 471.42,116.28 482.00,113.22 Z
           M 678.00,55.00
           C 671.34,61.53 669.11,65.56 676.00,73.00
             677.20,68.82 679.48,58.85 678.00,55.00 Z
           M 790.00,55.00
           C 790.93,61.48 793.19,62.81 791.00,69.00
             803.30,71.06 794.12,89.43 793.58,94.00
             793.58,94.00 795.00,107.00 795.00,107.00
             798.72,105.84 800.97,104.85 805.00,105.06
             810.93,105.36 816.61,110.22 816.82,101.00
             816.82,101.00 816.82,88.00 816.82,88.00
             816.82,88.00 815.56,83.00 815.56,83.00
             814.99,78.58 819.45,70.80 821.00,66.00
             814.45,65.85 813.39,60.67 813.00,55.00
             813.00,55.00 804.00,56.75 804.00,56.75
             804.00,56.75 790.00,55.00 790.00,55.00 Z
           M 123.00,69.00
           C 125.02,78.32 131.33,86.08 134.24,95.00
             135.34,98.36 135.30,104.63 138.52,106.99
             140.63,108.24 143.64,107.38 146.00,106.99
             155.31,106.33 152.52,108.26 163.00,105.00
             158.31,96.65 152.02,89.58 150.00,80.00
             150.00,80.00 157.00,79.00 157.00,79.00
             157.00,79.00 150.00,63.00 150.00,63.00
             145.25,64.84 144.41,64.94 141.00,61.00
             132.82,64.84 133.50,68.67 123.00,69.00 Z
           M 299.00,69.00
           C 301.02,78.32 307.33,86.08 310.24,95.00
             311.34,98.36 311.30,104.63 314.52,106.99
             316.63,108.24 319.64,107.38 322.00,106.99
             331.31,106.33 328.52,108.26 339.00,105.00
             334.31,96.65 328.02,89.58 326.00,80.00
             326.00,80.00 333.00,79.00 333.00,79.00
             333.00,79.00 326.00,63.00 326.00,63.00
             321.25,64.84 320.41,64.94 317.00,61.00
             308.82,64.84 309.50,68.67 299.00,69.00 Z
           M 467.00,62.00
           C 468.13,64.71 468.13,64.45 471.00,65.00
             471.00,65.00 467.00,62.00 467.00,62.00 Z
           M 593.00,67.00
           C 593.00,67.00 591.00,72.00 591.00,72.00
             591.00,72.00 596.00,67.00 596.00,67.00
             596.00,67.00 593.00,67.00 593.00,67.00 Z
           M 649.00,115.00
           C 649.00,115.00 651.06,98.00 651.06,98.00
             651.06,98.00 651.06,89.00 651.06,89.00
             651.06,89.00 653.00,78.00 653.00,78.00
             653.00,78.00 653.00,67.00 653.00,67.00
             653.00,67.00 640.00,70.55 640.00,70.55
             636.45,71.34 634.09,70.52 631.39,73.56
             627.07,78.39 629.18,84.18 628.98,90.00
             628.77,96.21 627.12,95.85 627.00,103.00
             626.97,104.97 626.72,109.88 628.02,111.35
             629.61,113.15 631.84,111.63 635.00,111.97
             639.37,112.44 641.89,114.61 649.00,115.00 Z
           M 1201.00,71.06
           C 1201.00,71.06 1199.00,86.79 1199.00,86.79
             1201.68,86.78 1207.18,85.47 1209.36,86.79
             1214.76,89.31 1210.70,95.75 1203.00,97.00
             1208.60,105.81 1207.17,105.37 1205.00,115.00
             1210.13,114.65 1215.02,112.83 1220.00,111.59
             1223.06,110.83 1225.98,110.87 1227.71,107.85
             1230.44,103.73 1226.55,101.49 1227.71,97.00
             1228.23,94.06 1230.82,91.64 1232.02,89.00
             1233.09,86.61 1233.06,83.62 1233.71,81.00
             1234.33,78.49 1235.81,75.14 1232.69,73.60
             1231.22,72.87 1227.70,73.00 1226.00,73.00
             1211.58,72.97 1217.38,71.95 1210.00,71.06
             1210.00,71.06 1201.00,71.06 1201.00,71.06 Z
           M 1019.00,73.00
           C 1017.16,77.70 1017.10,78.79 1020.00,83.00
             1021.18,78.84 1021.67,76.62 1019.00,73.00 Z
           M 586.00,77.00
           C 584.75,78.74 582.14,81.82 582.18,83.99
             582.25,87.14 586.30,89.21 588.60,92.32
             591.28,95.95 590.98,98.75 591.00,103.00
             598.42,103.59 607.27,112.30 614.15,101.91
             615.26,100.24 615.51,98.87 616.00,97.00
             611.71,97.00 606.97,97.57 603.18,95.20
             595.54,90.41 596.84,81.36 586.00,77.00 Z
           M 485.00,79.00
           C 483.04,85.28 483.49,89.82 477.00,93.00
             479.21,96.62 481.01,96.47 483.53,99.26
             486.36,102.39 486.74,106.72 491.05,106.59
             498.76,106.36 501.39,96.92 503.33,91.00
             504.08,88.68 505.67,84.81 503.97,82.60
             502.65,80.87 499.93,81.10 498.00,80.91
             492.03,80.32 492.74,79.18 485.00,79.00 Z
           M 973.00,79.00
           C 973.00,79.00 973.00,80.00 973.00,80.00
             973.00,80.00 974.00,79.00 974.00,79.00
             974.00,79.00 973.00,79.00 973.00,79.00 Z
           M 11.00,89.00
           C 12.70,93.02 13.08,97.35 15.53,101.00
             17.23,103.53 20.50,107.45 23.04,109.11
             28.05,112.38 40.06,113.73 46.00,112.74
             46.00,112.74 59.00,109.00 59.00,109.00
             59.00,109.00 53.00,93.00 53.00,93.00
             53.00,93.00 40.02,94.27 40.02,94.27
             35.13,92.97 35.80,87.75 31.86,84.89
             26.01,80.65 22.60,85.04 18.96,86.44
             18.96,86.44 11.00,89.00 11.00,89.00 Z
           M 715.00,86.00
           C 717.34,86.76 717.37,86.83 719.00,85.00
             719.00,85.00 715.00,86.00 715.00,86.00 Z
           M 1281.00,89.00
           C 1281.00,89.00 1281.00,93.00 1281.00,93.00
             1288.77,96.81 1285.56,100.07 1289.43,103.07
             1294.32,106.85 1300.84,103.97 1306.00,103.71
             1309.10,103.55 1311.04,105.23 1316.00,104.94
             1326.00,104.36 1322.43,97.83 1320.12,92.00
             1319.26,89.82 1318.95,86.70 1316.69,85.69
             1314.46,84.51 1305.52,85.12 1303.00,85.69
             1303.00,85.69 1296.00,88.19 1296.00,88.19
             1296.00,88.19 1281.00,89.00 1281.00,89.00 Z
           M 605.00,89.00
           C 605.00,89.00 608.00,92.00 608.00,92.00
             608.00,92.00 605.00,89.00 605.00,89.00 Z
           M 509.00,91.00
           C 509.00,91.00 507.00,99.00 507.00,99.00
             509.12,96.17 509.50,94.51 509.00,91.00 Z
           M 1074.00,91.00
           C 1074.00,91.00 1073.00,112.00 1073.00,112.00
             1073.00,112.00 1084.00,113.14 1084.00,113.14
             1084.00,113.14 1091.87,113.14 1091.87,113.14
             1091.87,113.14 1099.00,119.00 1099.00,119.00
             1098.44,111.97 1096.16,112.28 1095.92,108.00
             1095.75,104.83 1098.57,97.77 1095.40,94.60
             1093.18,92.37 1087.99,93.15 1085.00,92.95
             1085.00,92.95 1074.00,91.00 1074.00,91.00 Z
           M 1424.00,91.00
           C 1424.00,91.00 1423.00,112.00 1423.00,112.00
             1423.00,112.00 1434.00,113.14 1434.00,113.14
             1434.00,113.14 1441.87,113.14 1441.87,113.14
             1441.87,113.14 1449.00,119.00 1449.00,119.00
             1448.44,111.97 1446.16,112.28 1445.92,108.00
             1445.75,104.83 1448.57,97.77 1445.40,94.60
             1443.18,92.37 1437.99,93.15 1435.00,92.95
             1435.00,92.95 1424.00,91.00 1424.00,91.00 Z
           M 422.00,94.00
           C 422.00,94.00 421.00,98.00 421.00,98.00
             421.00,98.00 422.00,94.00 422.00,94.00 Z
           M 673.00,99.00
           C 673.00,99.00 672.00,103.00 672.00,103.00
             672.00,103.00 673.00,99.00 673.00,99.00 Z
           M 347.00,102.00
           C 347.00,102.00 347.00,103.00 347.00,103.00
             347.00,103.00 348.00,102.00 348.00,102.00
             348.00,102.00 347.00,102.00 347.00,102.00 Z
           M 433.00,102.00
           C 433.97,106.53 434.66,109.67 438.00,113.00
             439.32,107.78 438.46,103.84 433.00,102.00 Z
           M 1402.00,104.00
           C 1397.75,106.98 1395.76,107.68 1395.00,113.00
             1400.14,111.59 1404.36,110.20 1402.00,104.00 Z
           M 617.00,105.00
           C 617.00,105.00 617.00,109.00 617.00,109.00
             617.00,109.00 619.00,105.00 619.00,105.00
             619.00,105.00 617.00,105.00 617.00,105.00 Z
           M 1051.00,111.00
           C 1051.00,111.00 1055.00,106.00 1055.00,106.00
             1051.58,107.20 1051.62,107.46 1051.00,111.00 Z
           M 115.00,107.00
           C 115.00,107.00 115.00,109.00 115.00,109.00
             115.00,109.00 119.00,109.00 119.00,109.00
             119.00,109.00 119.00,107.00 119.00,107.00
             119.00,107.00 115.00,107.00 115.00,107.00 Z
           M 291.00,107.00
           C 291.00,107.00 291.00,109.00 291.00,109.00
             291.00,109.00 295.00,109.00 295.00,109.00
             295.00,109.00 295.00,107.00 295.00,107.00
             295.00,107.00 291.00,107.00 291.00,107.00 Z
           M 1307.00,107.00
           C 1307.00,107.00 1304.00,113.00 1304.00,113.00
             1304.00,113.00 1311.00,111.00 1311.00,111.00
             1311.00,111.00 1307.00,107.00 1307.00,107.00 Z
           M 234.00,108.00
           C 228.55,112.38 228.28,113.24 229.00,120.00
             232.70,117.71 234.94,112.28 234.00,108.00 Z
           M 678.00,108.00
           C 678.00,108.00 677.00,111.00 677.00,111.00
             677.00,111.00 678.00,112.00 678.00,112.00
             678.00,112.00 684.00,110.00 684.00,110.00
             684.00,110.00 678.00,108.00 678.00,108.00 Z
           M 217.00,109.00
           C 217.00,109.00 215.03,123.96 215.03,123.96
             215.03,123.96 218.00,128.00 218.00,128.00
             220.92,123.10 224.12,111.49 217.00,109.00 Z
           M 157.00,115.00
           C 161.45,114.84 162.71,115.07 165.00,111.00
             165.00,111.00 164.00,110.00 164.00,110.00
             164.00,110.00 157.00,115.00 157.00,115.00 Z
           M 333.00,115.00
           C 337.45,114.84 338.71,115.07 341.00,111.00
             341.00,111.00 340.00,110.00 340.00,110.00
             340.00,110.00 333.00,115.00 333.00,115.00 Z
           M 207.00,111.00
           C 207.00,111.00 208.00,115.00 208.00,115.00
             208.00,115.00 211.00,111.00 211.00,111.00
             211.00,111.00 207.00,111.00 207.00,111.00 Z
           M 418.00,111.00
           C 413.31,113.55 411.45,113.98 409.00,119.00
             413.56,117.97 417.92,116.36 418.00,111.00 Z
           M 603.00,114.00
           C 603.00,114.00 612.00,112.00 612.00,112.00
             608.18,110.49 605.41,110.40 603.00,114.00 Z
           M 795.00,113.00
           C 795.00,113.00 795.00,118.00 795.00,118.00
             795.00,118.00 801.00,120.00 801.00,120.00
             802.09,115.63 802.69,115.01 806.00,112.00
             801.59,110.27 799.28,111.67 795.00,113.00 Z
           M 811.00,117.00
           C 811.00,117.00 819.00,117.00 819.00,117.00
             816.44,112.53 813.67,112.71 811.00,117.00 Z
           M 945.00,116.00
           C 945.00,116.00 951.00,114.00 951.00,114.00
             947.74,113.06 947.33,113.70 945.00,116.00 Z
           M 53.00,121.00
           C 56.65,119.10 57.65,119.00 59.00,115.00
             54.95,116.31 54.58,117.11 53.00,121.00 Z
           M 139.00,117.00
           C 139.00,117.00 141.00,121.00 141.00,121.00
             143.48,118.39 143.45,118.57 143.00,115.00
             143.00,115.00 139.00,117.00 139.00,117.00 Z
           M 315.00,117.00
           C 315.00,117.00 317.00,121.00 317.00,121.00
             319.48,118.39 319.45,118.57 319.00,115.00
             319.00,115.00 315.00,117.00 315.00,117.00 Z
           M 1262.00,115.00
           C 1262.00,115.00 1261.00,120.00 1261.00,120.00
             1263.07,117.74 1263.47,117.77 1262.00,115.00 Z
           M 109.00,117.00
           C 109.00,117.00 107.00,127.00 107.00,127.00
             116.97,125.93 120.96,117.42 109.00,117.00 Z
           M 285.00,117.00
           C 285.00,117.00 283.00,127.00 283.00,127.00
             292.97,125.93 296.96,117.42 285.00,117.00 Z
           M 391.00,117.00
           C 391.00,117.00 391.00,119.00 391.00,119.00
             391.00,119.00 396.00,119.00 396.00,119.00
             396.00,119.00 391.00,117.00 391.00,117.00 Z
           M 629.00,117.00
           C 629.00,117.00 629.00,119.00 629.00,119.00
             629.00,119.00 643.00,123.00 643.00,123.00
             638.35,117.12 636.09,117.03 629.00,117.00 Z
           M 652.00,120.00
           C 652.00,120.00 655.00,121.00 655.00,121.00
             655.00,121.00 656.00,117.00 656.00,117.00
             656.00,117.00 652.00,120.00 652.00,120.00 Z
           M 446.00,119.00
           C 447.17,125.99 448.35,126.84 455.00,125.00
             455.00,125.00 455.00,121.00 455.00,121.00
             455.00,121.00 446.00,119.00 446.00,119.00 Z
           M 1213.00,120.00
           C 1213.00,120.00 1217.00,120.00 1217.00,120.00
             1217.00,120.00 1213.00,120.00 1213.00,120.00 Z
           M 460.00,125.00
           C 460.00,125.00 470.00,122.00 470.00,122.00
             465.31,120.17 463.14,121.32 460.00,125.00 Z
           M 809.00,126.00
           C 809.00,126.00 813.00,123.00 813.00,123.00
             813.00,123.00 809.00,126.00 809.00,126.00 Z
           M 1142.00,126.00
           C 1138.81,130.52 1137.42,133.85 1143.00,137.00
             1143.00,137.00 1142.00,126.00 1142.00,126.00 Z
           M 1492.00,126.00
           C 1488.81,130.52 1487.42,133.85 1493.00,137.00
             1493.00,137.00 1492.00,126.00 1492.00,126.00 Z" />
</svg>
