<?xml version="1.0" encoding="UTF-8" standalone="no"?>
<!DOCTYPE svg PUBLIC "-//W3C//DTD SVG 20010904//EN"
              "http://www.w3.org/TR/2001/REC-SVG-20010904/DTD/svg10.dtd">

<svg xmlns="http://www.w3.org/2000/svg"
     width="103.722mm" height="41.2771mm"
     viewBox="0 0 588 234">
  <path id="Selection #1"
        fill="gray" stroke="black" stroke-width="1"
        d="M 359.00,37.00
           C 360.82,33.55 361.64,33.11 365.00,31.16
             367.29,29.83 369.35,28.64 372.00,28.23
             372.00,28.23 402.00,32.25 402.00,32.25
             411.08,32.63 420.94,30.08 430.00,29.17
             430.00,29.17 473.00,24.00 473.00,24.00
             473.00,24.00 481.00,24.00 481.00,24.00
             481.00,24.00 503.00,21.04 503.00,21.04
             513.17,21.42 525.96,30.26 536.00,32.48
             536.00,32.48 562.61,36.48 562.61,36.48
             565.70,38.22 566.19,42.82 566.75,46.00
             566.75,46.00 571.81,71.00 571.81,71.00
             572.35,73.69 574.32,79.34 573.36,81.72
             572.25,84.49 565.79,85.93 563.00,87.00
             563.00,87.00 575.00,90.00 575.00,90.00
             575.00,90.00 572.17,118.00 572.17,118.00
             572.17,118.00 570.10,129.28 570.10,129.28
             570.10,129.28 563.00,132.20 563.00,132.20
             563.00,132.20 547.00,137.00 547.00,137.00
             550.69,138.22 562.02,140.39 564.18,142.72
             567.01,145.79 565.95,159.46 566.00,164.00
             566.00,164.00 567.00,178.00 567.00,178.00
             567.00,178.00 567.00,202.00 567.00,202.00
             567.00,202.00 543.00,204.83 543.00,204.83
             543.00,204.83 520.00,206.29 520.00,206.29
             520.00,206.29 492.00,208.96 492.00,208.96
             492.00,208.96 461.00,201.00 461.00,201.00
             460.98,202.83 461.16,205.91 459.98,207.40
             458.63,209.10 455.95,208.96 454.00,209.00
             454.00,209.00 439.00,210.00 439.00,210.00
             426.54,210.14 429.65,210.87 420.00,211.83
             420.00,211.83 393.00,213.04 393.00,213.04
             393.00,213.04 382.00,214.08 382.00,214.08
             382.00,214.08 373.00,214.08 373.00,214.08
             367.95,214.67 364.44,216.24 359.00,215.91
             359.00,215.91 349.00,214.17 349.00,214.17
             340.16,213.23 321.47,214.13 316.00,206.00
             309.36,210.07 307.10,212.89 299.00,213.00
             299.00,213.00 282.00,213.00 282.00,213.00
             282.00,213.00 267.00,212.00 267.00,212.00
             267.00,212.00 219.00,212.00 219.00,212.00
             215.86,212.00 205.96,211.86 204.02,209.40
             203.05,208.16 203.12,206.48 203.00,205.00
             200.61,206.46 197.62,208.55 195.00,209.35
             192.00,210.27 185.40,210.00 182.00,210.00
             182.00,210.00 158.00,210.00 158.00,210.00
             146.79,209.84 149.00,204.37 142.00,203.72
             142.00,203.72 125.00,205.58 125.00,205.58
             125.00,205.58 108.00,208.58 108.00,208.58
             108.00,208.58 95.00,210.37 95.00,210.37
             88.64,211.63 82.55,213.33 76.00,213.63
             70.59,213.87 64.14,210.98 59.00,209.44
             59.00,209.44 38.06,202.94 38.06,202.94
             29.31,198.24 39.15,189.78 40.78,182.17
             42.03,176.31 36.02,171.26 35.75,166.04
             35.59,162.84 37.90,160.97 40.04,158.95
             45.76,153.57 50.10,152.21 57.00,149.00
             53.82,145.82 45.95,138.35 44.07,134.72
             42.38,131.44 42.19,126.63 41.72,123.00
             41.72,123.00 38.71,93.00 38.71,93.00
             38.71,93.00 35.76,68.00 35.76,68.00
             35.76,68.00 35.76,59.00 35.76,59.00
             36.45,54.40 44.02,47.79 46.57,43.00
             48.77,38.86 48.00,29.89 48.00,25.00
             48.00,25.00 87.00,22.83 87.00,22.83
             87.00,22.83 110.00,20.67 110.00,20.67
             110.00,20.67 128.00,23.71 128.00,23.71
             128.00,23.71 167.00,29.43 167.00,29.43
             175.30,30.83 183.53,32.90 192.00,33.00
             192.00,33.00 245.00,28.00 245.00,28.00
             245.00,28.00 299.00,28.00 299.00,28.00
             299.00,28.00 337.00,28.00 337.00,28.00
             345.35,28.12 351.60,33.40 359.00,37.00 Z" />
    <path id="Selection"
        fill="lightgray" stroke="black" stroke-width="1"
        d="M 112.00,23.00
           C 112.00,23.00 117.00,24.00 117.00,24.00
             117.00,24.00 112.00,23.00 112.00,23.00 Z
           M 128.00,26.00
           C 128.00,26.00 133.00,27.00 133.00,27.00
             133.00,27.00 128.00,26.00 128.00,26.00 Z
           M 120.00,27.00
           C 120.00,27.00 120.00,28.00 120.00,28.00
             120.00,28.00 121.00,27.00 121.00,27.00
             121.00,27.00 120.00,27.00 120.00,27.00 Z
           M 135.00,27.00
           C 135.00,27.00 142.00,28.00 142.00,28.00
             142.00,28.00 135.00,27.00 135.00,27.00 Z
           M 140.00,30.00
           C 140.00,30.00 140.00,31.00 140.00,31.00
             140.00,31.00 141.00,30.00 141.00,30.00
             141.00,30.00 140.00,30.00 140.00,30.00 Z
           M 105.00,31.00
           C 105.00,31.00 108.00,34.00 108.00,34.00
             108.00,34.00 105.00,31.00 105.00,31.00 Z
           M 120.00,31.00
           C 120.00,31.00 120.00,32.00 120.00,32.00
             120.00,32.00 121.00,31.00 121.00,31.00
             121.00,31.00 120.00,31.00 120.00,31.00 Z
           M 131.00,31.00
           C 131.00,31.00 131.00,32.00 131.00,32.00
             131.00,32.00 132.00,31.00 132.00,31.00
             132.00,31.00 131.00,31.00 131.00,31.00 Z
           M 161.00,33.00
           C 161.00,33.00 162.00,34.00 162.00,34.00
             162.00,34.00 168.00,32.00 168.00,32.00
             164.75,30.82 163.86,31.15 161.00,33.00 Z
           M 152.00,32.00
           C 152.00,32.00 152.00,33.00 152.00,33.00
             152.00,33.00 153.00,32.00 153.00,32.00
             153.00,32.00 152.00,32.00 152.00,32.00 Z
           M 109.00,33.00
           C 109.00,33.00 117.00,34.00 117.00,34.00
             117.00,34.00 109.00,33.00 109.00,33.00 Z
           M 180.00,34.00
           C 180.00,34.00 185.00,35.00 185.00,35.00
             185.00,35.00 180.00,34.00 180.00,34.00 Z
           M 128.00,35.00
           C 128.00,35.00 134.00,36.00 134.00,36.00
             134.00,36.00 128.00,35.00 128.00,35.00 Z
           M 537.00,35.00
           C 537.00,35.00 543.00,36.00 543.00,36.00
             543.00,36.00 537.00,35.00 537.00,35.00 Z
           M 390.00,62.00
           C 389.03,55.24 392.27,52.41 390.80,49.27
             389.80,47.15 386.05,45.73 384.00,44.75
             376.80,41.28 371.12,38.18 363.00,38.00
             363.00,38.00 364.00,41.00 364.00,41.00
             364.00,41.00 358.00,46.00 358.00,46.00
             358.00,46.00 360.00,39.00 360.00,39.00
             360.00,39.00 323.00,38.00 323.00,38.00
             323.00,38.00 307.00,39.00 307.00,39.00
             307.00,39.00 262.00,39.00 262.00,39.00
             262.00,39.00 307.00,77.00 307.00,77.00
             307.00,77.00 271.00,50.63 271.00,50.63
             271.00,50.63 254.00,39.34 254.00,39.34
             254.00,39.34 241.00,42.32 241.00,42.32
             241.00,42.32 218.00,46.00 218.00,46.00
             221.00,54.64 223.79,60.55 224.00,70.00
             221.96,65.21 218.57,51.45 215.36,48.60
             213.26,46.73 204.29,46.40 201.00,45.86
             201.00,45.86 191.00,43.24 191.00,43.24
             184.97,41.82 173.13,40.01 167.00,40.00
             167.00,40.00 151.00,40.00 151.00,40.00
             151.00,40.00 139.00,39.09 139.00,39.09
             139.00,39.09 117.00,37.91 117.00,37.91
             117.00,37.91 107.00,37.00 107.00,37.00
             88.64,36.79 78.52,43.49 62.00,49.00
             62.00,49.00 62.72,76.00 62.72,76.00
             63.01,78.48 62.70,83.63 64.02,85.44
             65.73,87.80 73.12,89.41 76.00,90.00
             76.00,90.00 54.00,92.00 54.00,92.00
             54.00,92.00 70.00,93.00 70.00,93.00
             67.67,94.36 64.44,95.88 63.01,98.21
             61.43,100.77 61.04,106.95 61.00,110.00
             61.00,110.00 60.06,137.99 60.06,137.99
             59.36,144.56 64.99,144.00 70.00,145.67
             84.32,150.42 79.79,147.78 92.00,150.40
             92.00,150.40 101.00,153.00 101.00,153.00
             91.87,155.17 82.95,149.92 70.00,153.58
             66.82,154.48 61.92,155.34 61.04,159.11
             60.51,161.35 62.56,168.14 63.00,171.00
             63.00,171.00 38.00,164.00 38.00,164.00
             48.58,171.18 74.10,171.12 86.00,183.00
             86.00,183.00 106.00,179.00 106.00,179.00
             106.00,179.00 81.00,187.00 81.00,187.00
             81.00,187.00 82.00,185.00 82.00,185.00
             82.00,185.00 69.00,190.00 69.00,190.00
             69.00,190.00 91.00,192.17 91.00,192.17
             91.00,192.17 137.00,196.00 137.00,196.00
             137.00,196.00 139.00,194.00 139.00,194.00
             140.23,189.35 144.35,187.46 147.70,184.34
             147.70,184.34 159.00,171.00 159.00,171.00
             156.42,176.36 145.94,188.90 152.70,194.01
             154.79,195.59 165.86,195.00 169.00,195.00
             169.00,195.00 150.00,196.00 150.00,196.00
             154.13,197.64 160.46,197.00 165.00,197.00
             165.00,197.00 194.00,197.00 194.00,197.00
             203.24,196.94 200.90,195.46 206.87,185.00
             210.11,179.33 213.75,173.95 218.00,169.00
             215.17,177.95 206.80,187.56 205.00,199.04
             205.00,199.04 221.00,199.04 221.00,199.04
             221.00,199.04 233.00,200.00 233.00,200.00
             233.00,200.00 267.00,200.00 267.00,200.00
             267.00,200.00 283.00,201.10 283.00,201.10
             283.00,201.10 297.00,201.10 297.00,201.10
             297.00,201.10 305.99,201.10 305.99,201.10
             305.99,201.10 314.00,199.00 314.00,199.00
             314.00,199.00 318.00,186.00 318.00,186.00
             318.00,186.00 324.00,199.00 324.00,199.00
             324.00,199.00 325.00,200.00 325.00,200.00
             325.00,200.00 327.00,201.00 327.00,201.00
             327.00,201.00 352.00,200.00 352.00,200.00
             352.00,200.00 397.00,200.00 397.00,200.00
             397.00,200.00 395.13,192.96 395.13,192.96
             394.20,185.30 395.98,185.20 392.00,177.00
             392.00,177.00 407.00,195.00 407.00,195.00
             408.12,199.96 412.68,199.21 417.00,198.91
             417.00,198.91 448.00,197.00 448.00,197.00
             448.00,197.00 446.00,195.00 446.00,195.00
             448.68,191.74 442.97,185.42 439.96,183.77
             438.16,182.77 437.97,183.19 437.00,183.00
             437.00,183.00 436.00,182.00 436.00,182.00
             436.00,182.00 437.00,180.00 437.00,180.00
             437.00,180.00 434.00,180.00 434.00,180.00
             433.04,174.92 430.20,172.26 425.00,172.00
             423.76,165.45 413.89,159.66 409.00,155.00
             419.37,161.56 442.13,181.41 449.00,191.00
             449.00,191.00 451.00,191.00 451.00,191.00
             452.49,185.75 452.28,181.27 451.00,176.00
             454.76,181.63 454.94,184.41 455.00,191.00
             455.00,191.00 470.00,192.00 470.00,192.00
             470.00,192.00 463.00,193.00 463.00,193.00
             463.00,193.00 495.00,197.46 495.00,197.46
             500.29,198.42 509.96,201.26 515.00,200.45
             526.09,198.66 541.16,190.56 552.00,192.00
             548.67,186.03 550.01,174.05 550.00,167.00
             549.99,164.35 550.19,161.43 548.98,159.00
             546.31,153.67 535.38,144.26 529.00,145.41
             525.28,146.07 512.68,153.75 508.00,156.00
             508.00,156.00 524.00,145.00 524.00,145.00
             524.00,145.00 510.00,144.00 510.00,144.00
             510.00,144.00 537.00,135.00 537.00,135.00
             537.00,135.00 539.80,117.00 539.80,117.00
             539.80,117.00 539.80,105.00 539.80,105.00
             539.80,105.00 545.00,84.00 545.00,84.00
             545.00,84.00 550.00,85.00 550.00,85.00
             550.00,85.00 547.00,84.00 547.00,84.00
             547.00,84.00 548.00,80.00 548.00,80.00
             548.00,80.00 547.00,80.00 547.00,80.00
             547.00,80.00 547.00,82.00 547.00,82.00
             547.00,82.00 546.26,68.17 546.26,68.17
             546.26,68.17 540.00,60.00 540.00,60.00
             540.00,60.00 549.00,66.00 549.00,66.00
             549.00,66.00 553.00,57.00 553.00,57.00
             553.00,57.00 555.00,59.00 555.00,59.00
             555.00,59.00 556.00,59.00 556.00,59.00
             556.00,59.00 549.96,52.25 549.96,52.25
             548.19,48.19 559.71,39.56 563.00,38.00
             560.22,37.25 553.97,36.88 552.00,39.00
             552.00,39.00 557.00,39.00 557.00,39.00
             557.00,39.00 552.00,42.00 552.00,42.00
             552.00,42.00 548.00,50.00 548.00,50.00
             548.00,50.00 525.00,46.00 525.00,46.00
             525.00,46.00 529.00,51.00 529.00,51.00
             523.91,48.07 515.69,41.07 511.00,39.55
             506.79,38.19 491.09,37.19 486.00,36.96
             486.00,36.96 478.00,36.04 478.00,36.04
             478.00,36.04 465.00,36.04 465.00,36.04
             456.49,36.04 438.12,39.93 429.00,41.58
             429.00,41.58 407.00,45.58 407.00,45.58
             403.77,46.16 399.14,46.51 396.61,48.72
             393.69,51.27 391.06,58.27 390.00,62.00 Z
           M 191.00,38.00
           C 191.00,38.00 191.00,39.00 191.00,39.00
             191.00,39.00 192.00,38.00 192.00,38.00
             192.00,38.00 191.00,38.00 191.00,38.00 Z
           M 520.00,38.00
           C 520.00,38.00 520.00,39.00 520.00,39.00
             520.00,39.00 521.00,38.00 521.00,38.00
             521.00,38.00 520.00,38.00 520.00,38.00 Z
           M 540.00,38.00
           C 540.00,38.00 540.00,39.00 540.00,39.00
             540.00,39.00 541.00,38.00 541.00,38.00
             541.00,38.00 540.00,38.00 540.00,38.00 Z
           M 192.00,40.00
           C 192.00,40.00 196.00,41.00 196.00,41.00
             196.00,41.00 192.00,40.00 192.00,40.00 Z
           M 519.00,40.00
           C 519.00,40.00 519.00,41.00 519.00,41.00
             519.00,41.00 520.00,40.00 520.00,40.00
             520.00,40.00 519.00,40.00 519.00,40.00 Z
           M 203.00,43.00
           C 203.00,43.00 208.00,44.00 208.00,44.00
             208.00,44.00 203.00,43.00 203.00,43.00 Z
           M 550.00,43.00
           C 550.00,43.00 550.00,44.00 550.00,44.00
             550.00,44.00 551.00,43.00 551.00,43.00
             551.00,43.00 550.00,43.00 550.00,43.00 Z
           M 358.00,46.00
           C 358.00,46.00 331.00,76.00 331.00,76.00
             330.57,71.82 334.08,68.24 336.42,65.00
             342.76,56.26 346.94,48.60 358.00,46.00 Z
           M 81.00,58.00
           C 81.00,58.00 93.00,67.00 93.00,67.00
             93.00,67.00 89.00,67.00 89.00,67.00
             89.00,67.00 81.00,58.00 81.00,58.00 Z
           M 95.00,70.00
           C 95.00,70.00 98.00,70.00 98.00,70.00
             98.00,70.00 107.00,79.00 107.00,79.00
             107.00,79.00 96.00,81.00 96.00,81.00
             96.00,81.00 102.00,78.00 102.00,78.00
             102.00,78.00 102.00,76.00 102.00,76.00
             98.85,74.65 96.03,73.45 95.00,70.00 Z
           M 339.00,97.00
           C 339.00,97.00 340.00,98.00 340.00,98.00
             340.00,98.00 339.00,100.00 339.00,100.00
             339.00,100.00 344.00,104.00 344.00,104.00
             344.00,104.00 324.00,91.51 324.00,91.51
             324.00,91.51 314.42,86.37 314.42,86.37
             314.42,86.37 304.83,93.40 304.83,93.40
             304.83,93.40 285.00,108.00 285.00,108.00
             290.42,100.49 298.57,95.68 304.91,89.00
             307.36,86.42 309.98,82.15 314.00,82.64
             321.47,83.54 331.01,96.33 339.00,97.00 Z
           M 91.00,83.00
           C 91.00,83.00 91.00,84.00 91.00,84.00
             91.00,84.00 90.00,83.00 90.00,83.00
             90.00,83.00 91.00,83.00 91.00,83.00 Z
           M 188.00,90.00
           C 188.00,90.00 188.00,91.00 188.00,91.00
             188.00,91.00 187.00,90.00 187.00,90.00
             187.00,90.00 188.00,90.00 188.00,90.00 Z
           M 44.00,91.00
           C 44.00,91.00 53.00,92.00 53.00,92.00
             53.00,92.00 44.00,91.00 44.00,91.00 Z
           M 190.00,92.00
           C 190.00,92.00 190.00,93.00 190.00,93.00
             190.00,93.00 189.00,92.00 189.00,92.00
             189.00,92.00 190.00,92.00 190.00,92.00 Z
           M 191.00,93.00
           C 191.00,93.00 191.00,94.00 191.00,94.00
             191.00,94.00 190.00,93.00 190.00,93.00
             190.00,93.00 191.00,93.00 191.00,93.00 Z
           M 192.00,94.00
           C 192.00,94.00 192.00,95.00 192.00,95.00
             192.00,95.00 191.00,94.00 191.00,94.00
             191.00,94.00 192.00,94.00 192.00,94.00 Z
           M 335.00,94.00
           C 335.00,94.00 335.00,95.00 335.00,95.00
             335.00,95.00 334.00,94.00 334.00,94.00
             334.00,94.00 335.00,94.00 335.00,94.00 Z
           M 195.00,97.00
           C 206.08,104.93 220.60,125.49 223.48,139.00
             224.21,142.41 224.00,147.40 224.00,151.00
             224.00,151.00 220.19,139.00 220.19,139.00
             220.19,139.00 209.25,117.00 209.25,117.00
             209.25,117.00 195.00,97.00 195.00,97.00 Z
           M 343.00,100.00
           C 343.00,100.00 343.00,101.00 343.00,101.00
             343.00,101.00 342.00,100.00 342.00,100.00
             342.00,100.00 343.00,100.00 343.00,100.00 Z
           M 346.00,102.00
           C 346.00,102.00 346.00,103.00 346.00,103.00
             346.00,103.00 345.00,102.00 345.00,102.00
             345.00,102.00 346.00,102.00 346.00,102.00 Z
           M 345.00,104.00
           C 345.00,104.00 345.00,105.00 345.00,105.00
             345.00,105.00 344.00,104.00 344.00,104.00
             344.00,104.00 345.00,104.00 345.00,104.00 Z
           M 284.00,106.00
           C 279.56,115.40 261.51,129.23 253.00,136.00
             248.16,139.86 243.68,144.44 238.00,147.00
             240.97,140.73 246.17,137.25 251.17,132.68
             257.67,126.74 277.06,109.60 284.00,106.00 Z
           M 351.00,106.00
           C 351.00,106.00 351.00,107.00 351.00,107.00
             351.00,107.00 350.00,106.00 350.00,106.00
             350.00,106.00 351.00,106.00 351.00,106.00 Z
           M 285.00,108.00
           C 285.00,108.00 285.00,109.00 285.00,109.00
             285.00,109.00 284.00,108.00 284.00,108.00
             284.00,108.00 285.00,108.00 285.00,108.00 Z
           M 351.00,108.00
           C 351.00,108.00 351.00,109.00 351.00,109.00
             351.00,109.00 350.00,108.00 350.00,108.00
             350.00,108.00 351.00,108.00 351.00,108.00 Z
           M 354.00,108.00
           C 354.00,108.00 354.00,109.00 354.00,109.00
             354.00,109.00 353.00,108.00 353.00,108.00
             353.00,108.00 354.00,108.00 354.00,108.00 Z
           M 284.00,109.00
           C 284.00,109.00 284.00,110.00 284.00,110.00
             284.00,110.00 283.00,109.00 283.00,109.00
             283.00,109.00 284.00,109.00 284.00,109.00 Z
           M 355.00,109.00
           C 355.00,109.00 355.00,110.00 355.00,110.00
             355.00,110.00 354.00,109.00 354.00,109.00
             354.00,109.00 355.00,109.00 355.00,109.00 Z
           M 283.00,110.00
           C 283.00,110.00 283.00,111.00 283.00,111.00
             283.00,111.00 282.00,110.00 282.00,110.00
             282.00,110.00 283.00,110.00 283.00,110.00 Z
           M 281.00,112.00
           C 281.00,112.00 281.00,113.00 281.00,113.00
             281.00,113.00 280.00,112.00 280.00,112.00
             280.00,112.00 281.00,112.00 281.00,112.00 Z
           M 361.00,114.00
           C 361.00,114.00 369.00,121.00 369.00,121.00
             365.51,119.51 362.09,117.85 361.00,114.00 Z
           M 370.00,121.00
           C 370.00,121.00 374.00,125.00 374.00,125.00
             374.00,125.00 370.00,121.00 370.00,121.00 Z
           M 375.00,125.00
           C 375.00,125.00 380.00,130.00 380.00,130.00
             377.08,128.59 375.89,128.23 375.00,125.00 Z
           M 388.00,136.00
           C 388.00,136.00 388.00,137.00 388.00,137.00
             388.00,137.00 387.00,136.00 387.00,136.00
             387.00,136.00 388.00,136.00 388.00,136.00 Z
           M 538.00,135.00
           C 538.00,135.00 544.00,137.00 544.00,137.00
             544.00,137.00 538.00,135.00 538.00,135.00 Z
           M 389.00,137.00
           C 389.00,137.00 389.00,138.00 389.00,138.00
             389.00,138.00 388.00,137.00 388.00,137.00
             388.00,137.00 389.00,137.00 389.00,137.00 Z
           M 390.00,138.00
           C 390.00,138.00 390.00,139.00 390.00,139.00
             390.00,139.00 389.00,138.00 389.00,138.00
             389.00,138.00 390.00,138.00 390.00,138.00 Z
           M 394.00,140.00
           C 394.00,140.00 394.00,141.00 394.00,141.00
             394.00,141.00 393.00,140.00 393.00,140.00
             393.00,140.00 394.00,140.00 394.00,140.00 Z
           M 226.00,145.00
           C 226.00,145.00 227.00,155.00 227.00,155.00
             227.00,155.00 235.00,148.00 235.00,148.00
             235.00,148.00 222.00,167.00 222.00,167.00
             222.00,167.00 223.49,157.00 223.49,157.00
             223.49,157.00 226.00,145.00 226.00,145.00 Z
           M 402.00,148.00
           C 402.00,148.00 402.00,149.00 402.00,149.00
             402.00,149.00 401.00,148.00 401.00,148.00
             401.00,148.00 402.00,148.00 402.00,148.00 Z
           M 403.00,149.00
           C 403.00,149.00 403.00,150.00 403.00,150.00
             403.00,150.00 402.00,149.00 402.00,149.00
             402.00,149.00 403.00,149.00 403.00,149.00 Z
           M 417.00,163.00
           C 417.00,163.00 417.00,164.00 417.00,164.00
             417.00,164.00 416.00,163.00 416.00,163.00
             416.00,163.00 417.00,163.00 417.00,163.00 Z
           M 422.00,167.00
           C 422.00,167.00 422.00,168.00 422.00,168.00
             422.00,168.00 421.00,167.00 421.00,167.00
             421.00,167.00 422.00,167.00 422.00,167.00 Z
           M 160.00,170.00
           C 160.00,170.00 160.00,171.00 160.00,171.00
             160.00,171.00 159.00,170.00 159.00,170.00
             159.00,170.00 160.00,170.00 160.00,170.00 Z
           M 425.00,170.00
           C 425.00,170.00 425.00,171.00 425.00,171.00
             425.00,171.00 424.00,170.00 424.00,170.00
             424.00,170.00 425.00,170.00 425.00,170.00 Z
           M 429.00,173.00
           C 429.00,173.00 429.00,174.00 429.00,174.00
             429.00,174.00 428.00,173.00 428.00,173.00
             428.00,173.00 429.00,173.00 429.00,173.00 Z
           M 431.00,175.00
           C 431.00,175.00 431.00,176.00 431.00,176.00
             431.00,176.00 430.00,175.00 430.00,175.00
             430.00,175.00 431.00,175.00 431.00,175.00 Z
           M 433.00,177.00
           C 433.00,177.00 433.00,178.00 433.00,178.00
             433.00,178.00 432.00,177.00 432.00,177.00
             432.00,177.00 433.00,177.00 433.00,177.00 Z
           M 434.00,178.00
           C 434.00,178.00 434.00,179.00 434.00,179.00
             434.00,179.00 433.00,178.00 433.00,178.00
             433.00,178.00 434.00,178.00 434.00,178.00 Z
           M 439.00,183.00
           C 439.00,183.00 439.00,184.00 439.00,184.00
             439.00,184.00 438.00,183.00 438.00,183.00
             438.00,183.00 439.00,183.00 439.00,183.00 Z
           M 441.00,185.00
           C 441.00,185.00 441.00,186.00 441.00,186.00
             441.00,186.00 440.00,185.00 440.00,185.00
             440.00,185.00 441.00,185.00 441.00,185.00 Z
           M 408.00,196.00
           C 408.00,196.00 408.00,197.00 408.00,197.00
             408.00,197.00 407.00,196.00 407.00,196.00
             407.00,196.00 408.00,196.00 408.00,196.00 Z
           M 315.00,197.00
           C 315.00,197.00 315.00,198.00 315.00,198.00
             315.00,198.00 316.00,197.00 316.00,197.00
             316.00,197.00 315.00,197.00 315.00,197.00 Z
           M 326.00,198.00
           C 326.00,198.00 326.00,199.00 326.00,199.00
             326.00,199.00 325.00,198.00 325.00,198.00
             325.00,198.00 326.00,198.00 326.00,198.00 Z" />
        <path id="Selection"
        fill="black" stroke="black" stroke-width="1"
        transform="translate(30,40)"
        d="M 241.00,13.00
           C 241.00,13.00 234.00,29.00 234.00,29.00
             249.50,34.02 241.82,38.83 255.00,39.00
             253.66,32.80 245.15,17.51 241.00,13.00 Z
           M 350.00,107.00
           C 350.00,107.00 352.00,107.00 352.00,107.00
             352.00,107.00 359.85,84.00 359.85,84.00
             360.27,82.18 359.87,81.62 359.85,80.00
             359.19,74.54 361.63,74.58 362.69,70.00
             362.69,70.00 363.26,63.00 363.26,63.00
             363.26,63.00 367.51,45.00 367.51,45.00
             369.97,33.94 374.95,28.82 375.00,16.00
             371.15,16.81 366.36,18.09 363.97,21.52
             362.75,23.27 362.84,25.59 360.69,27.41
             357.81,29.83 352.13,28.99 349.99,31.72
             348.66,33.43 349.42,35.67 348.04,39.00
             348.04,39.00 345.58,44.00 345.58,44.00
             345.58,44.00 342.99,63.00 342.99,63.00
             342.44,66.39 341.02,69.53 341.64,73.00
             343.19,81.73 347.98,85.17 348.64,89.00
             349.09,91.65 347.82,93.82 347.71,96.00
             347.62,97.87 349.39,104.92 350.00,107.00 Z
           M 85.00,27.00
           C 83.95,33.42 81.72,33.41 76.00,35.00
             77.95,42.92 78.73,45.04 77.32,53.00
             77.06,54.46 77.11,56.19 76.09,57.40
             74.25,59.61 71.21,58.32 66.09,60.41
             55.50,64.74 60.49,72.30 61.00,78.91
             61.00,78.91 75.00,78.91 75.00,78.91
             77.47,78.52 80.84,77.28 83.00,77.46
             89.23,77.97 90.19,84.40 99.85,80.77
             103.40,79.44 103.07,76.24 102.96,73.00
             102.76,66.82 102.96,60.08 99.00,55.00
             102.80,47.79 99.91,47.42 99.95,42.00
             99.91,38.56 102.57,31.04 99.95,22.00
             99.95,22.00 85.00,27.00 85.00,27.00 Z
           M 351.00,23.00
           C 351.00,23.00 351.00,25.00 351.00,25.00
             351.00,25.00 356.00,24.00 356.00,24.00
             356.00,24.00 351.00,23.00 351.00,23.00 Z
           M 384.00,26.00
           C 384.00,26.00 388.00,27.00 388.00,27.00
             388.00,27.00 384.00,26.00 384.00,26.00 Z
           M 143.00,41.00
           C 142.22,51.87 135.73,52.28 127.00,55.00
             127.10,63.23 129.02,64.21 130.34,71.00
             130.34,71.00 130.34,79.00 130.34,79.00
             132.23,86.51 135.26,89.92 131.00,98.00
             132.53,101.58 133.58,109.05 138.09,109.46
             141.43,109.77 145.01,105.84 148.82,107.54
             151.77,108.85 150.89,111.85 152.09,113.20
             154.04,115.90 158.57,113.75 161.00,113.20
             161.00,108.91 161.29,105.81 159.39,102.00
             157.15,97.50 153.58,95.24 152.66,91.00
             152.11,88.49 152.83,78.38 154.60,76.60
             156.08,75.11 159.89,74.68 162.00,74.14
             162.00,74.14 187.00,71.00 187.00,71.00
             187.00,71.00 185.00,57.00 185.00,57.00
             185.00,57.00 170.00,58.94 170.00,58.94
             170.00,58.94 163.00,58.94 163.00,58.94
             163.00,58.94 151.00,60.00 151.00,60.00
             151.39,58.16 151.72,53.81 152.76,52.60
             154.08,51.07 157.06,50.91 158.96,50.25
             158.96,50.25 164.28,47.65 164.28,47.65
             164.28,47.65 175.00,47.65 175.00,47.65
             178.33,47.00 183.93,47.40 186.01,44.43
             188.50,40.87 185.70,32.95 185.00,29.00
             176.14,29.03 175.43,30.73 172.00,30.75
             166.98,30.78 167.09,28.40 159.04,31.60
             152.35,34.25 153.04,38.73 143.00,41.00 Z
           M 343.00,89.00
           C 334.59,83.93 335.34,78.51 332.33,70.00
             332.33,70.00 319.00,35.00 319.00,35.00
             319.00,35.00 312.00,32.85 312.00,32.85
             309.26,32.28 307.96,33.11 305.00,32.00
             301.86,30.82 297.86,27.29 294.47,30.60
             292.54,32.70 293.60,35.60 294.47,38.00
             296.69,45.51 297.39,46.30 300.97,53.00
             300.97,53.00 308.87,67.68 308.87,67.68
             311.39,70.92 314.44,71.53 317.43,78.00
             320.25,84.07 319.75,91.35 323.53,97.00
             326.32,101.17 328.59,104.97 334.00,104.97
             335.45,104.97 337.20,104.87 338.43,104.01
             342.10,101.44 339.72,96.76 343.00,89.00 Z
           M 395.00,31.11
           C 395.00,31.11 394.00,38.00 394.00,38.00
             394.00,38.00 386.00,35.00 386.00,35.00
             381.84,39.75 386.11,41.31 390.42,49.00
             397.62,61.84 392.25,58.12 400.13,72.00
             403.39,77.73 405.97,80.82 412.69,76.53
             416.04,74.38 414.45,70.47 415.51,65.00
             415.92,62.89 416.64,61.23 416.35,59.00
             416.35,59.00 410.60,40.00 410.60,40.00
             409.83,37.30 408.99,32.90 406.69,31.11
             402.77,28.38 399.13,29.94 395.00,31.11 Z
           M 445.00,36.00
           C 448.75,37.13 450.65,35.66 454.00,34.00
             450.03,32.60 448.43,33.96 445.00,36.00 Z
           M 134.00,47.00
           C 134.00,47.00 140.00,35.00 140.00,35.00
             137.88,35.17 127.46,35.36 126.62,36.04
             124.17,37.99 126.59,43.34 128.52,44.92
             130.08,46.19 132.11,46.54 134.00,47.00 Z
           M 231.00,35.00
           C 231.00,35.00 225.55,52.89 225.55,52.89
             225.55,52.89 227.00,56.00 227.00,56.00
             219.83,64.44 222.13,66.54 220.27,73.00
             220.27,73.00 213.41,92.00 213.41,92.00
             213.41,92.00 213.41,98.00 213.41,98.00
             212.81,101.06 209.21,108.21 209.85,110.70
             210.56,113.41 214.38,113.23 216.60,115.51
             219.15,118.13 216.72,119.15 222.00,127.00
             229.16,124.01 227.68,121.20 229.76,115.00
             229.76,115.00 232.57,108.00 232.57,108.00
             233.35,105.47 233.58,102.50 235.65,100.60
             240.00,96.60 253.05,102.50 252.62,93.91
             252.45,90.45 249.59,84.94 246.81,82.89
             244.31,81.03 241.32,80.90 240.07,78.69
             239.08,76.93 240.65,70.15 241.30,68.09
             243.38,61.44 253.14,61.84 254.82,61.25
             257.05,60.47 258.85,57.98 260.01,56.00
             260.94,54.40 261.68,52.92 261.43,51.00
             260.33,42.75 249.99,46.01 246.13,44.40
             243.03,43.11 242.01,39.90 241.00,37.00
             241.00,37.00 231.00,35.00 231.00,35.00 Z
           M 53.06,37.00
           C 53.06,37.00 35.00,39.61 35.00,39.61
             33.43,40.04 30.96,40.97 30.15,42.50
             28.80,45.03 31.60,48.77 31.86,52.00
             31.86,52.00 31.86,58.00 31.86,58.00
             32.27,64.76 37.25,66.15 36.99,78.00
             36.99,78.00 36.33,86.00 36.33,86.00
             36.33,86.00 36.99,103.00 36.99,103.00
             37.06,105.87 36.69,111.22 38.85,113.38
             41.52,116.04 45.00,112.84 47.58,112.14
             50.42,111.54 53.07,113.16 55.87,112.14
             60.53,110.22 59.06,99.23 59.00,95.00
             59.00,95.00 56.40,79.00 56.40,79.00
             55.13,75.50 51.87,73.51 51.57,70.00
             51.57,70.00 54.44,55.00 54.44,55.00
             54.58,51.82 53.47,50.11 53.06,47.00
             53.06,47.00 53.06,37.00 53.06,37.00 Z
           M 459.00,37.00
           C 456.47,42.11 457.31,44.05 463.00,45.00
             463.00,45.00 459.00,37.00 459.00,37.00 Z
           M 263.00,38.00
           C 263.00,38.00 267.00,45.00 267.00,45.00
             267.00,45.00 263.00,38.00 263.00,38.00 Z
           M 427.00,57.00
           C 425.40,64.11 422.80,65.45 421.51,70.00
             420.59,73.22 421.56,75.82 419.40,78.82
             417.04,82.10 412.08,83.84 409.76,86.47
             407.49,89.05 406.84,93.01 404.24,97.00
             404.24,97.00 400.01,103.00 400.01,103.00
             398.75,105.54 396.82,113.18 398.64,115.53
             402.96,121.08 407.36,116.32 412.00,116.56
             415.71,116.75 416.06,118.89 425.00,119.00
             428.49,111.87 430.79,114.68 434.23,110.69
             436.67,107.87 436.89,104.51 437.00,101.00
             429.82,99.80 428.53,91.89 431.26,86.02
             433.46,81.26 445.01,73.01 450.00,71.00
             450.43,62.43 459.61,61.20 460.40,54.08
             460.74,50.96 458.13,49.53 456.07,47.70
             454.59,46.38 452.69,44.28 450.83,43.82
             448.89,42.96 446.91,43.53 445.00,43.82
             433.93,46.77 437.61,51.98 427.00,57.00 Z
           M 374.00,45.00
           C 374.00,45.00 373.00,52.00 373.00,52.00
             375.07,49.18 375.25,48.29 374.00,45.00 Z
           M 114.00,61.00
           C 114.00,61.00 113.00,80.00 113.00,80.00
             115.18,77.03 116.72,64.69 116.00,61.00
             116.00,61.00 114.00,61.00 114.00,61.00 Z
           M 249.00,69.00
           C 251.02,78.32 257.33,86.08 260.24,95.00
             261.34,98.36 261.30,104.63 264.52,106.99
             266.63,108.24 269.64,107.38 272.00,106.99
             281.31,106.33 278.52,108.26 289.00,105.00
             284.31,96.65 278.02,89.58 276.00,80.00
             276.00,80.00 283.00,79.00 283.00,79.00
             283.00,79.00 276.00,63.00 276.00,63.00
             271.25,64.84 270.41,64.94 267.00,61.00
             258.82,64.84 259.50,68.67 249.00,69.00 Z
           M 83.00,84.00
           C 83.00,96.65 82.99,92.38 85.23,104.00
             85.67,106.25 85.97,110.75 88.31,111.83
             92.09,113.58 94.63,107.59 97.26,106.02
             100.12,104.32 104.14,105.73 106.63,103.40
             107.39,102.70 107.80,101.98 107.90,100.94
             107.98,100.06 104.11,89.28 103.40,88.72
             100.61,86.01 97.21,89.08 93.00,88.72
             89.33,88.59 86.05,85.90 83.00,84.00 Z
           M 159.00,89.00
           C 159.00,89.00 159.00,93.00 159.00,93.00
             166.77,96.81 163.56,100.07 167.43,103.07
             172.32,106.85 178.84,103.97 184.00,103.71
             187.10,103.55 189.04,105.23 194.00,104.94
             204.00,104.36 200.43,97.83 198.12,92.00
             197.26,89.82 196.95,86.70 194.69,85.69
             192.46,84.51 183.52,85.12 181.00,85.69
             181.00,85.69 174.00,88.19 174.00,88.19
             174.00,88.19 159.00,89.00 159.00,89.00 Z
           M 437.00,85.00
           C 437.00,85.00 435.00,90.00 435.00,90.00
             438.33,88.66 438.39,88.53 439.00,85.00
             439.00,85.00 437.00,85.00 437.00,85.00 Z
           M 114.00,95.00
           C 114.00,95.00 114.00,96.00 114.00,96.00
             114.00,96.00 115.00,95.00 115.00,95.00
             115.00,95.00 114.00,95.00 114.00,95.00 Z
           M 185.00,107.00
           C 185.00,107.00 182.00,113.00 182.00,113.00
             182.00,113.00 189.00,111.00 189.00,111.00
             189.00,111.00 185.00,107.00 185.00,107.00 Z
           M 241.00,107.00
           C 241.00,107.00 241.00,109.00 241.00,109.00
             241.00,109.00 245.00,109.00 245.00,109.00
             245.00,109.00 245.00,107.00 245.00,107.00
             245.00,107.00 241.00,107.00 241.00,107.00 Z
           M 360.00,108.00
           C 354.55,112.38 354.28,113.24 355.00,120.00
             358.70,117.71 360.94,112.28 360.00,108.00 Z
           M 343.00,109.00
           C 343.00,109.00 341.03,123.96 341.03,123.96
             341.03,123.96 344.00,128.00 344.00,128.00
             346.92,123.10 350.12,111.49 343.00,109.00 Z
           M 283.00,115.00
           C 287.45,114.84 288.71,115.07 291.00,111.00
             291.00,111.00 290.00,110.00 290.00,110.00
             290.00,110.00 283.00,115.00 283.00,115.00 Z
           M 333.00,111.00
           C 333.00,111.00 334.00,115.00 334.00,115.00
             334.00,115.00 337.00,111.00 337.00,111.00
             337.00,111.00 333.00,111.00 333.00,111.00 Z
           M 99.00,119.00
           C 99.99,118.83 100.83,118.88 101.84,118.41
             106.16,116.40 101.60,111.84 99.59,116.16
             99.12,117.17 99.17,118.01 99.00,119.00 Z
           M 140.00,115.00
           C 140.00,115.00 139.00,120.00 139.00,120.00
             141.07,117.74 141.47,117.77 140.00,115.00 Z
           M 265.00,117.00
           C 265.00,117.00 267.00,121.00 267.00,121.00
             269.48,118.39 269.45,118.57 269.00,115.00
             269.00,115.00 265.00,117.00 265.00,117.00 Z
           M 235.00,117.00
           C 235.00,117.00 233.00,127.00 233.00,127.00
             242.97,125.93 246.96,117.42 235.00,117.00 Z" />
        
</svg>
