<?xml version="1.0" encoding="UTF-8" standalone="no"?>
<!-- Created with Inkscape (http://www.inkscape.org/) -->

<svg
   xmlns:dc="http://purl.org/dc/elements/1.1/"
   xmlns:cc="http://creativecommons.org/ns#"
   xmlns:rdf="http://www.w3.org/1999/02/22-rdf-syntax-ns#"
   xmlns:svg="http://www.w3.org/2000/svg"
   xmlns="http://www.w3.org/2000/svg"
   xmlns:xlink="http://www.w3.org/1999/xlink"
   xmlns:sodipodi="http://sodipodi.sourceforge.net/DTD/sodipodi-0.dtd"
   xmlns:inkscape="http://www.inkscape.org/namespaces/inkscape"
   width="210mm"
   height="297mm"
   viewBox="0 0 210 297"
   version="1.1"
   id="svg12187"
   inkscape:version="0.92.3 (2405546, 2018-03-11)"
   sodipodi:docname="knightbody.svg">
  <defs
     id="defs12181">
    <linearGradient
       inkscape:collect="always"
       id="linearGradient12195">
      <stop
         style="stop-color:#784421;stop-opacity:1;"
         offset="0"
         id="stop12191" />
      <stop
         style="stop-color:#a05a2c;stop-opacity:1"
         offset="1"
         id="stop12193" />
    </linearGradient>
    <linearGradient
       inkscape:collect="always"
       xlink:href="#linearGradient12195"
       id="linearGradient12197"
       x1="103.70058"
       y1="128.62019"
       x2="104.76965"
       y2="128.62019"
       gradientUnits="userSpaceOnUse" />
  </defs>
  <sodipodi:namedview
     id="base"
     pagecolor="#ffffff"
     bordercolor="#666666"
     borderopacity="1.0"
     inkscape:pageopacity="0.0"
     inkscape:pageshadow="2"
     inkscape:zoom="0.24748737"
     inkscape:cx="334.38954"
     inkscape:cy="444.52143"
     inkscape:document-units="mm"
     inkscape:current-layer="layer1"
     showgrid="false"
     inkscape:window-width="454"
     inkscape:window-height="405"
     inkscape:window-x="50"
     inkscape:window-y="371"
     inkscape:window-maximized="0" />
  <metadata
     id="metadata12184">
    <rdf:RDF>
      <cc:Work
         rdf:about="">
        <dc:format>image/svg+xml</dc:format>
        <dc:type
           rdf:resource="http://purl.org/dc/dcmitype/StillImage" />
        <dc:title></dc:title>
      </cc:Work>
    </rdf:RDF>
  </metadata>
  <g
     inkscape:label="Layer 1"
     inkscape:groupmode="layer"
     id="layer1">
    <path
       style="fill:url(#linearGradient12197);stroke:#000000;stroke-width:0.26458332px;stroke-linecap:butt;stroke-linejoin:miter;stroke-opacity:1;fill-opacity:1"
       d="m 61.47199,89.598845 c 0,0 27.083309,4.454492 40.89223,4.276312 13.80892,-0.17818 41.96131,-5.345391 41.96131,-5.345391 0,0 -0.70473,31.496724 3.47451,49.177594 4.17924,17.68086 20.57976,50.78121 20.57976,50.78121 0,0 -15.7605,3.38325 -23.78699,3.20724 -8.0265,-0.17602 -14.16529,-3.20723 -14.16529,-3.20723 v -12.82895 l -16.57071,-0.53454 0.53454,13.89803 c 0,0 -6.57719,3.09844 -10.69078,3.20723 -4.113582,0.10879 -11.759853,-3.20723 -11.759853,-3.20723 L 91.406178,174.05601 H 74.835467 v 14.9671 c 0,0 -13.719835,3.02906 -18.441597,2.93997 -4.721762,-0.0891 -22.183371,-2.40543 -22.183371,-2.40543 0,0 19.056066,-35.31001 23.519718,-52.38483 C 62.193869,120.098 61.47199,89.598845 61.47199,89.598845 Z"
       id="path12189"
       inkscape:connector-curvature="0"
       sodipodi:nodetypes="czczczcccczcccczczc" />
    <rect
       style="fill:#000000;stroke-width:0.26458332"
       id="rect12199"
       width="102.09695"
       height="13.363476"
       x="50.781212"
       y="137.70735" />
    <ellipse
       style="fill:#d4aa00;stroke-width:0.26458332"
       id="path12201"
       cx="151.00729"
       cy="143.85457"
       rx="4.543582"
       ry="9.8889723" />
  </g>
</svg>
