<?xml version="1.0" encoding="UTF-8" standalone="no"?>
<!-- Created with Inkscape (http://www.inkscape.org/) -->

<svg
   xmlns:dc="http://purl.org/dc/elements/1.1/"
   xmlns:cc="http://creativecommons.org/ns#"
   xmlns:rdf="http://www.w3.org/1999/02/22-rdf-syntax-ns#"
   xmlns:svg="http://www.w3.org/2000/svg"
   xmlns="http://www.w3.org/2000/svg"
   xmlns:sodipodi="http://sodipodi.sourceforge.net/DTD/sodipodi-0.dtd"
   xmlns:inkscape="http://www.inkscape.org/namespaces/inkscape"
   width="297mm"
   height="210mm"
   viewBox="0 0 297 210"
   version="1.1"
   id="svg8"
   sodipodi:docname="knighthead.svg"
   inkscape:version="0.92.3 (2405546, 2018-03-11)">
  <defs
     id="defs2" />
  <sodipodi:namedview
     id="base"
     pagecolor="#ffffff"
     bordercolor="#666666"
     borderopacity="1.0"
     inkscape:pageopacity="0.0"
     inkscape:pageshadow="2"
     inkscape:zoom="0.25"
     inkscape:cx="547.69964"
     inkscape:cy="390.40521"
     inkscape:document-units="mm"
     inkscape:current-layer="layer1"
     showgrid="false"
     inkscape:window-width="454"
     inkscape:window-height="405"
     inkscape:window-x="52"
     inkscape:window-y="52"
     inkscape:window-maximized="0" />
  <metadata
     id="metadata5">
    <rdf:RDF>
      <cc:Work
         rdf:about="">
        <dc:format>image/svg+xml</dc:format>
        <dc:type
           rdf:resource="http://purl.org/dc/dcmitype/StillImage" />
        <dc:title></dc:title>
      </cc:Work>
    </rdf:RDF>
  </metadata>
  <g
     inkscape:label="Layer 1"
     inkscape:groupmode="layer"
     id="layer1"
     transform="translate(0,-87)">
    <path
       style="fill:#ff0000;fill-opacity:1;stroke:#000000;stroke-width:0.26458332px;stroke-linecap:butt;stroke-linejoin:miter;stroke-opacity:1"
       d="m 143.05438,164.70834 c 0,0 -35.42726,-35.87571 -60.091811,-35.8757 -22.640987,0 -43.947738,10.31426 -51.122881,26.90677 -7.17514,16.59251 -17.489406,8.96893 -17.489406,8.96893 0,0 29.982635,17.48942 50.674434,17.48941 16.592513,-1e-5 30.612078,-9.75423 41.705504,-10.76272 9.86582,-0.89689 21.97388,4.93291 21.97388,4.93291 z"
       id="path11405"
       inkscape:connector-curvature="0"
       sodipodi:nodetypes="csscsscc" />
    <ellipse
       style="fill:#4d4d4d;stroke-width:0.26458332"
       id="path116"
       cx="216.43564"
       cy="17.614702"
       rx="5.2916665"
       ry="16.630953"
       transform="rotate(46.876114)"
       inkscape:transform-center-x="0.36232234"
       inkscape:transform-center-y="0.93500606" />
    <ellipse
       style="fill:#4d4d4d;stroke-width:0.26458332"
       id="path108"
       cx="179.91666"
       cy="272.80951"
       rx="30.994047"
       ry="9.0714283" />
    <circle
       style="fill:#999999;stroke-width:0.26458332"
       id="path106"
       cx="178.78275"
       cy="213.46727"
       r="61.610119" />
    <path
       style="fill:#666666;stroke-width:0.69139928"
       id="path11437"
       sodipodi:type="arc"
       sodipodi:cx="189.21101"
       sodipodi:cy="202.57169"
       sodipodi:rx="59.090862"
       sodipodi:ry="61.684605"
       sodipodi:start="1.4846405"
       sodipodi:end="4.6822951"
       d="m 194.29574,264.02749 a 59.090862,61.684605 0 0 1 -54.15061,-27.08221 59.090862,61.684605 0 0 1 -3.48812,-62.57433 59.090862,61.684605 0 0 1 50.776,-33.45594 l 1.778,61.65668 z"
       transform="matrix(0.99823956,0.05931094,-0.0635464,0.99797888,0,0)" />
    <path
       style="fill:#808080;stroke:#000000;stroke-width:0.25539121px;stroke-linecap:butt;stroke-linejoin:miter;stroke-opacity:1"
       d="m 187.042,202.19845 c 0,0 26.59058,-14.32548 33.29492,-19.09742 8.73359,-6.2163 20.31163,-16.40672 20.31163,-16.40672 0,0 15.83646,17.1819 16.49305,43.78117 0.64105,25.96971 -14.84562,48.47065 -14.84562,48.47065 0,0 -12.96714,-10.10499 -20.73388,-15.3817 -7.76674,-5.27672 -34.6753,-16.72706 -34.6753,-16.72706 z"
       id="path114"
       inkscape:connector-curvature="0"
       sodipodi:nodetypes="cscsczcc" />
    <circle
       style="fill:#4d4d4d;stroke-width:0.26458332"
       id="path110"
       cx="179.16071"
       cy="214.6012"
       r="19.654762" />
    <rect
       style="fill:#000000;stroke-width:0.26458332"
       id="rect12113"
       width="8.9689264"
       height="27.355227"
       x="203.14619"
       y="199.68715" />
    <rect
       style="fill:#000000;stroke-width:0.26458332"
       id="rect12115"
       width="9.4173584"
       height="47.535313"
       x="218.84181"
       y="189.37288" />
    <rect
       style="fill:#000000;stroke-width:0.26458332"
       id="rect12117"
       width="10.762727"
       height="64.127831"
       x="236.33119"
       y="181.30084" />
  </g>
</svg>
