<?xml version="1.0" encoding="UTF-8" standalone="no"?>
<!-- Created with Inkscape (http://www.inkscape.org/) -->

<svg
   xmlns:dc="http://purl.org/dc/elements/1.1/"
   xmlns:cc="http://creativecommons.org/ns#"
   xmlns:rdf="http://www.w3.org/1999/02/22-rdf-syntax-ns#"
   xmlns:svg="http://www.w3.org/2000/svg"
   xmlns="http://www.w3.org/2000/svg"
   xmlns:sodipodi="http://sodipodi.sourceforge.net/DTD/sodipodi-0.dtd"
   xmlns:inkscape="http://www.inkscape.org/namespaces/inkscape"
   width="210mm"
   height="297mm"
   viewBox="0 0 210 297"
   version="1.1"
   id="svg12491"
   inkscape:version="0.92.3 (2405546, 2018-03-11)"
   sodipodi:docname="summonerweapon.svg">
  <defs
     id="defs12485" />
  <sodipodi:namedview
     id="base"
     pagecolor="#ffffff"
     bordercolor="#666666"
     borderopacity="1.0"
     inkscape:pageopacity="0.0"
     inkscape:pageshadow="2"
     inkscape:zoom="0.49497475"
     inkscape:cx="400"
     inkscape:cy="560"
     inkscape:document-units="mm"
     inkscape:current-layer="layer1"
     showgrid="false"
     inkscape:snap-global="false"
     inkscape:window-width="453"
     inkscape:window-height="405"
     inkscape:window-x="695"
     inkscape:window-y="347"
     inkscape:window-maximized="0" />
  <metadata
     id="metadata12488">
    <rdf:RDF>
      <cc:Work
         rdf:about="">
        <dc:format>image/svg+xml</dc:format>
        <dc:type
           rdf:resource="http://purl.org/dc/dcmitype/StillImage" />
        <dc:title></dc:title>
      </cc:Work>
    </rdf:RDF>
  </metadata>
  <g
     inkscape:label="Layer 1"
     inkscape:groupmode="layer"
     id="layer1">
    <path
       style="fill:#ececec;stroke:#000000;stroke-width:0.26458332px;stroke-linecap:butt;stroke-linejoin:miter;stroke-opacity:1"
       d="m 58.799294,135.56921 1.069078,-10.69078 c 0,0 20.918236,-2.54991 31.003267,-1.60362 10.085031,0.94629 24.588791,4.27631 24.588791,4.27631 0,0 8.92925,-11.45205 12.2944,-17.10525 3.36515,-5.6532 10.15625,-9.6217 10.15625,-9.6217 l 5.34539,6.41446 -24.5888,25.65788 z"
       id="path12503"
       inkscape:connector-curvature="0"
       sodipodi:nodetypes="cczczcccc" />
    <path
       style="fill:#800080;stroke:#000000;stroke-width:0.26458332px;stroke-linecap:butt;stroke-linejoin:miter;stroke-opacity:1"
       d="m 55.057521,125.9475 63.610149,6.94901 24.05426,-32.07234 5.34539,3.74177 -24.05426,33.14142 -10.15624,65.7483 -68.421,-8.55263 z"
       id="path12493"
       inkscape:connector-curvature="0"
       sodipodi:nodetypes="cccccccc" />
    <path
       sodipodi:type="star"
       style="fill:#000000;stroke-width:0.26458332"
       id="path12501"
       sodipodi:sides="8"
       sodipodi:cx="82.319016"
       sodipodi:cy="169.77971"
       sodipodi:r1="30.096022"
       sodipodi:r2="15.04801"
       sodipodi:arg1="0.98771979"
       sodipodi:arg2="1.3804189"
       inkscape:flatsided="false"
       inkscape:rounded="0"
       inkscape:randomized="0"
       d="m 98.889727,194.90305 -13.723184,-10.34721 -8.895147,14.70601 -2.38718,-17.02033 -16.688537,4.1089 10.347201,-13.72318 -14.706009,-8.89515 17.020333,-2.38718 -4.1089,-16.68854 13.723184,10.3472 8.895147,-14.70601 2.38718,17.02034 16.688535,-4.1089 -10.347199,13.72318 14.706009,8.89515 -17.020333,2.38718 z"
       transform="matrix(0.67919171,-0.03814523,0.03814523,0.67919171,22.070492,53.330505)"
       inkscape:transform-center-x="-2.6726953"
       inkscape:transform-center-y="9.0871639" />
    <path
       style="fill:#ff00ff;stroke:#000000;stroke-width:0.26458332px;stroke-linecap:butt;stroke-linejoin:miter;stroke-opacity:1"
       d="m 113.85682,203.45566 11.75986,-5.34538 14.96709,-25.12334 7.48355,-68.421 -24.05426,33.14142 z"
       id="path12505"
       inkscape:connector-curvature="0"
       sodipodi:nodetypes="cccccc" />
  </g>
</svg>
