<?xml version="1.0" encoding="UTF-8" standalone="no"?>
<!-- Created with Inkscape (http://www.inkscape.org/) -->

<svg
   xmlns:dc="http://purl.org/dc/elements/1.1/"
   xmlns:cc="http://creativecommons.org/ns#"
   xmlns:rdf="http://www.w3.org/1999/02/22-rdf-syntax-ns#"
   xmlns:svg="http://www.w3.org/2000/svg"
   xmlns="http://www.w3.org/2000/svg"
   xmlns:sodipodi="http://sodipodi.sourceforge.net/DTD/sodipodi-0.dtd"
   xmlns:inkscape="http://www.inkscape.org/namespaces/inkscape"
   width="210mm"
   height="297mm"
   viewBox="0 0 210 297"
   version="1.1"
   id="svg12237"
   inkscape:version="0.92.3 (2405546, 2018-03-11)"
   sodipodi:docname="warlockbody.svg">
  <defs
     id="defs12231" />
  <sodipodi:namedview
     id="base"
     pagecolor="#ffffff"
     bordercolor="#666666"
     borderopacity="1.0"
     inkscape:pageopacity="0.0"
     inkscape:pageshadow="2"
     inkscape:zoom="0.24748737"
     inkscape:cx="400"
     inkscape:cy="422.21784"
     inkscape:document-units="mm"
     inkscape:current-layer="layer1"
     showgrid="false"
     inkscape:window-width="454"
     inkscape:window-height="405"
     inkscape:window-x="969"
     inkscape:window-y="371"
     inkscape:window-maximized="0" />
  <metadata
     id="metadata12234">
    <rdf:RDF>
      <cc:Work
         rdf:about="">
        <dc:format>image/svg+xml</dc:format>
        <dc:type
           rdf:resource="http://purl.org/dc/dcmitype/StillImage" />
        <dc:title></dc:title>
      </cc:Work>
    </rdf:RDF>
  </metadata>
  <g
     inkscape:label="Layer 1"
     inkscape:groupmode="layer"
     id="layer1">
    <path
       style="fill:#800080;fill-opacity:1;stroke:#000000;stroke-width:0.26458332px;stroke-linecap:butt;stroke-linejoin:miter;stroke-opacity:1"
       d="m 50.207286,87.534703 c 4.288298,-3.88176 30.086613,9.04229 45.357143,9.07142 15.270521,0.0291 41.386351,-12.01532 46.113101,-9.07142 3.17159,1.97532 0.46711,27.763887 6.42559,46.491077 5.95848,18.72717 35.66495,62.96466 32.50595,71.05952 -3.159,8.09486 -29.26089,-4.35269 -41.19939,-3.40179 -11.93851,0.9509 -19.89911,6.36263 -31.40109,6.04687 -11.501971,-0.31576 -27.839741,-13.11933 -39.280473,-12.85044 -11.440736,0.26889 -23.903262,16.14428 -29.104165,7.55952 -5.200903,-8.58476 7.478268,-30.69351 9.449407,-49.89286 1.971139,-19.19934 -2.594724,-61.636737 1.133927,-65.011897 z"
       id="path12221"
       inkscape:connector-curvature="0"
       sodipodi:nodetypes="szszzzzzzzs" />
    <path
       sodipodi:type="star"
       style="fill:#ffff00;stroke-width:0.26458332"
       id="path12340"
       sodipodi:sides="5"
       sodipodi:cx="98.355184"
       sodipodi:cy="133.43105"
       sodipodi:r1="26.726952"
       sodipodi:r2="13.363476"
       sodipodi:arg1="0.92729522"
       sodipodi:arg2="1.5556137"
       inkscape:flatsided="false"
       inkscape:rounded="0"
       inkscape:randomized="0"
       d="m 114.39136,154.81261 -15.833289,-8.01963 -15.582508,8.49664 2.734362,-17.53655 -12.89604,-12.19425 17.523215,-2.81855 7.612318,-16.0331 8.095582,15.79459 17.60071,2.28525 -12.51987,12.58015 z"
       inkscape:transform-center-x="0.12539041"
       inkscape:transform-center-y="-2.4326519" />
    <path
       style="fill:#ffff00;fill-opacity:1;stroke:#000000;stroke-width:0.26458332px;stroke-linecap:butt;stroke-linejoin:miter;stroke-opacity:1"
       d="m 55.876929,170.31149 c 0,0 30.086613,9.04229 45.357141,9.07142 15.27052,0.0291 46.11311,-9.07142 46.11311,-9.07142 3.56304,-1.12499 19.7439,-8.52183 25.70238,10.20536 5.95848,18.72717 10.71852,16.47359 7.55952,24.56845 -3.159,8.09486 -29.26089,-4.35269 -41.19939,-3.40179 -11.93852,0.9509 -19.89912,6.36263 -31.4011,6.04687 -11.501971,-0.31576 -27.839741,-13.11933 -39.280473,-12.85044 -11.440736,0.26889 -23.903262,16.14428 -29.104165,7.55952 -5.200903,-8.58476 -0.08126,-4.99113 1.889883,-24.19048 1.971139,-19.19934 9.434573,-8.9396 14.363094,-7.93749 z"
       id="path12221-1"
       inkscape:connector-curvature="0"
       sodipodi:nodetypes="szszzzzzzzs" />
  </g>
</svg>
