<?xml version="1.0" encoding="UTF-8" standalone="no"?>
<!-- Created with Inkscape (http://www.inkscape.org/) -->

<svg
   xmlns:dc="http://purl.org/dc/elements/1.1/"
   xmlns:cc="http://creativecommons.org/ns#"
   xmlns:rdf="http://www.w3.org/1999/02/22-rdf-syntax-ns#"
   xmlns:svg="http://www.w3.org/2000/svg"
   xmlns="http://www.w3.org/2000/svg"
   xmlns:sodipodi="http://sodipodi.sourceforge.net/DTD/sodipodi-0.dtd"
   xmlns:inkscape="http://www.inkscape.org/namespaces/inkscape"
   width="210mm"
   height="297mm"
   viewBox="0 0 210 297"
   version="1.1"
   id="svg12513"
   inkscape:version="0.92.3 (2405546, 2018-03-11)"
   sodipodi:docname="warlockweapon.svg">
  <defs
     id="defs12507" />
  <sodipodi:namedview
     id="base"
     pagecolor="#ffffff"
     bordercolor="#666666"
     borderopacity="1.0"
     inkscape:pageopacity="0.0"
     inkscape:pageshadow="2"
     inkscape:zoom="0.24748737"
     inkscape:cx="400"
     inkscape:cy="655.62219"
     inkscape:document-units="mm"
     inkscape:current-layer="layer1"
     showgrid="false"
     inkscape:window-width="454"
     inkscape:window-height="405"
     inkscape:window-x="982"
     inkscape:window-y="337"
     inkscape:window-maximized="0" />
  <metadata
     id="metadata12510">
    <rdf:RDF>
      <cc:Work
         rdf:about="">
        <dc:format>image/svg+xml</dc:format>
        <dc:type
           rdf:resource="http://purl.org/dc/dcmitype/StillImage" />
        <dc:title></dc:title>
      </cc:Work>
    </rdf:RDF>
  </metadata>
  <g
     inkscape:label="Layer 1"
     inkscape:groupmode="layer"
     id="layer1">
    <path
       style="fill:#aa4400;stroke:#000000;stroke-width:0.26458332px;stroke-linecap:butt;stroke-linejoin:miter;stroke-opacity:1"
       d="m 96.761905,52.82738 c 0,0 4.392155,90.90658 1.787039,113.39286 -2.60511,22.48628 -1.107065,21.03696 -1.863016,24.06077 -0.755955,3.02382 3.855742,12.98089 3.855742,12.98089 0,0 1.58214,-6.56741 5.15409,-5.45935 3.57196,1.10806 3.78255,5.29229 2.30585,14.75219 -1.4767,9.4599 -13.507563,30.01669 -13.507563,30.01669 0,0 16.364263,-11.55828 20.562673,-26.64176 4.19841,-15.08349 -7.13895,-39.39336 -7.13895,-43.17313 0,-3.77976 0.18342,-119.92916 0.18342,-119.92916 z"
       id="path12517"
       inkscape:connector-curvature="0"
       sodipodi:nodetypes="czsczzczzcc" />
    <circle
       style="fill:#ff0000;stroke-width:0.26458332"
       id="path12515"
       cx="101.6756"
       cy="42.622017"
       r="15.497024" />
    <path
       style="fill:#aa0000;stroke:#000000;stroke-width:0.26458332px;stroke-linecap:butt;stroke-linejoin:miter;stroke-opacity:1"
       d="m 102.09696,27.325046 c -6.195293,-0.325706 -15.603792,4.827711 -15.768903,14.432555 -0.165111,9.604843 7.939243,16.46966 16.570713,16.570711 0,0 -6.546158,-8.411164 -6.949012,-15.501634 -0.402854,-7.09047 6.147202,-15.501632 6.147202,-15.501632 z"
       id="path17014"
       inkscape:connector-curvature="0"
       sodipodi:nodetypes="czczc" />
  </g>
</svg>
