<?xml version="1.0" encoding="UTF-8" standalone="no"?>
<!-- Created with Inkscape (http://www.inkscape.org/) -->

<svg
   xmlns:dc="http://purl.org/dc/elements/1.1/"
   xmlns:cc="http://creativecommons.org/ns#"
   xmlns:rdf="http://www.w3.org/1999/02/22-rdf-syntax-ns#"
   xmlns:svg="http://www.w3.org/2000/svg"
   xmlns="http://www.w3.org/2000/svg"
   xmlns:sodipodi="http://sodipodi.sourceforge.net/DTD/sodipodi-0.dtd"
   xmlns:inkscape="http://www.inkscape.org/namespaces/inkscape"
   width="210mm"
   height="297mm"
   viewBox="0 0 210 297"
   version="1.1"
   id="svg12155"
   inkscape:version="0.92.3 (2405546, 2018-03-11)"
   sodipodi:docname="warlockhead.svg">
  <defs
     id="defs12149" />
  <sodipodi:namedview
     id="base"
     pagecolor="#ffffff"
     bordercolor="#666666"
     borderopacity="1.0"
     inkscape:pageopacity="0.0"
     inkscape:pageshadow="2"
     inkscape:zoom="0.24748737"
     inkscape:cx="452.51959"
     inkscape:cy="543.87959"
     inkscape:document-units="mm"
     inkscape:current-layer="layer1"
     showgrid="false"
     inkscape:window-width="454"
     inkscape:window-height="405"
     inkscape:window-x="970"
     inkscape:window-y="60"
     inkscape:window-maximized="0" />
  <metadata
     id="metadata12152">
    <rdf:RDF>
      <cc:Work
         rdf:about="">
        <dc:format>image/svg+xml</dc:format>
        <dc:type
           rdf:resource="http://purl.org/dc/dcmitype/StillImage" />
        <dc:title></dc:title>
      </cc:Work>
    </rdf:RDF>
  </metadata>
  <g
     inkscape:label="Layer 1"
     inkscape:groupmode="layer"
     id="layer1">
    <ellipse
       style="fill:#800080;stroke-width:0.33227831"
       id="path12157"
       cx="61.340401"
       cy="135.15015"
       rx="94.392868"
       ry="7.1612697"
       transform="matrix(0.92319814,-0.38432432,0.37385753,0.92748614,0,0)" />
    <path
       style="fill:#800080;stroke:#000000;stroke-width:0.26458332px;stroke-linecap:butt;stroke-linejoin:miter;stroke-opacity:1"
       d="M 61.610118,114.05952 42.711309,58.497022 c 0,0 -18.520833,0.755954 -22.300595,19.654763 -3.779762,18.898809 -11.7172617,20.410712 -11.7172617,20.410712 0,0 3.4017857,-104.3214257 37.7976197,-88.06845 34.395833,16.252976 100.163688,68.41369 100.163688,68.41369 z"
       id="path12179"
       inkscape:connector-curvature="0" />
    <path
       style="fill:#ececec;stroke:#000000;stroke-width:0.26458332px;stroke-linecap:butt;stroke-linejoin:miter;stroke-opacity:1"
       d="m 61.610118,114.05952 c 0,0 -11.339285,49.89286 -5.669643,55.5625 5.669643,5.66964 4.632624,-2.87344 10.205358,-1.88988 9.241494,1.63109 10.656734,27.91813 20.032737,26.08035 4.86808,-0.95418 3.300668,-15.96704 7.241833,-16.2599 3.941166,-0.29285 11.175207,18.57691 19.972447,27.97717 11.03622,11.82462 21.57828,31.15586 35.1518,35.52976 9.51114,3.71685 -8.92301,-13.10148 -2.64584,-13.60714 6.27717,-0.50566 25.93336,14.3284 33.63988,17.00892 8.69345,3.02381 -10.58334,-18.14284 -10.96132,-27.97023 0.2363,-14.19934 4.86875,-2.02896 6.80359,-9.07143 1.93484,-7.04246 -22.84992,-30.69122 -14.3631,-33.2619 18.14285,11.71727 8.69345,-11.71726 8.69345,-11.71726 0,0 -6.80358,-17.3869 -3.40179,-21.92262 5.03318,-15.47897 -18.08262,-39.62156 2.26786,-28.34822 0,0 8.69346,4.53572 2.64584,-5.29166 C 165.1756,97.050593 146.65476,78.907737 146.65476,78.907737 117.09163,87.385209 88.172821,97.580896 61.610118,114.05952 Z"
       id="path12177"
       inkscape:connector-curvature="0"
       sodipodi:nodetypes="cssszcczsczccccscc" />
    <ellipse
       style="fill:#ffccaa;stroke-width:0.26458332"
       id="path12175"
       cx="157.99405"
       cy="144.10863"
       rx="15.497024"
       ry="14.552083" />
    <path
       style="fill:#c8beb7;stroke:#000000;stroke-width:0.26458332px;stroke-linecap:butt;stroke-linejoin:miter;stroke-opacity:1"
       d="m 61.61012,114.05952 c 0,0 -11.33929,49.89286 -5.66965,55.5625 5.66965,5.66964 4.63263,-2.87344 10.20536,-1.88988 9.24149,1.63109 10.65674,27.91813 20.03274,26.08035 4.86808,-0.95418 3.30067,-15.96704 7.24183,-16.2599 3.94117,-0.29285 11.17521,18.57691 19.97245,27.97717 11.03622,11.82462 21.57828,31.15586 35.1518,35.52976 9.51114,3.71685 -8.92301,-13.10148 -2.64584,-13.60714 6.27717,-0.50566 25.93336,14.3284 33.63988,17.00892 8.69345,3.02381 -3.02382,-10.96129 -8.31549,-18.8988 0,0 -7.85708,-2.86211 -13.9851,-3.77976 -6.12802,-0.91765 -11.33929,5.66964 -22.67858,-0.75595 -20.47096,-13.68821 -39.133418,-68.92619 -45.35714,-54.0506 -6.223721,14.87559 -13.607135,-10.20535 -23.812493,-10.58333 -11.531215,-0.42708 20.03273,-55.18453 20.03273,-55.18453 z"
       id="path12177-4"
       inkscape:connector-curvature="0"
       sodipodi:nodetypes="cssszcczsczczscc" />
    <path
       style="fill:#ffff00;stroke:#000000;stroke-width:0.26458332px;stroke-linecap:butt;stroke-linejoin:miter;stroke-opacity:1"
       d="m 84.288689,47.157737 c -12.097851,-0.658495 -24.070809,5.864919 -19.65476,24.946429 6.803571,19.510589 22.20609,15.763 29.482142,11.717262 0,0 -15.129186,-7.652122 -17.008929,-15.875 -1.879743,-8.222878 7.181547,-20.788691 7.181547,-20.788691 z"
       id="path12397"
       inkscape:connector-curvature="0"
       sodipodi:nodetypes="scczs" />
  </g>
</svg>
